<svg width="24" height="24" viewBox="0 0 24 24" fill="none" xmlns="http://www.w3.org/2000/svg">
<path fill-rule="evenodd" clip-rule="evenodd" d="M15.4869 10.5523C15.8282 10.2146 16.04 9.74633 16.04 9.2294C16.04 8.20268 15.2045 7.3674 14.1776 7.3674C13.3862 7.3674 12.6849 7.86904 12.423 8.60412C12.3132 8.58388 12.2003 8.57276 12.0848 8.57276C11.9692 8.57276 11.8563 8.58388 11.7465 8.60412C11.4846 7.869 10.7832 7.3674 9.99195 7.3674C8.96503 7.3674 8.12954 8.20268 8.12954 9.2294C8.12954 9.74633 8.34138 10.2146 8.68263 10.5523C7.86406 11.0186 7.3371 11.9016 7.3371 12.8619C7.3371 13.0276 7.47142 13.1619 7.6371 13.1619C7.80278 13.1619 7.9371 13.0276 7.9371 12.8619C7.9371 12.0137 8.46811 11.2436 9.25955 10.9415C9.48451 11.0381 9.73207 11.0918 9.99199 11.0918C10.1065 11.0918 10.2198 11.0808 10.3308 11.0603C10.4256 11.3255 10.5788 11.5631 10.7751 11.7575C9.94907 12.2252 9.42999 13.1017 9.42999 14.0673C9.42999 14.2331 9.56431 14.3673 9.72999 14.3673C9.89567 14.3673 10.03 14.2331 10.03 14.0673C10.03 13.2396 10.5226 12.4964 11.285 12.1739C11.3054 12.1653 11.3243 12.1545 11.3416 12.1422C11.5694 12.2418 11.8207 12.2974 12.0848 12.2974C12.3448 12.2974 12.5924 12.2437 12.8173 12.147C13.6084 12.4491 14.1395 13.22 14.1395 14.0673C14.1395 14.2331 14.2738 14.3673 14.4395 14.3673C14.6052 14.3673 14.7395 14.2331 14.7395 14.0673C14.7395 13.1079 14.2124 12.2243 13.3941 11.7578C13.5905 11.5634 13.7438 11.3257 13.8387 11.0603C13.9497 11.0808 14.063 11.0918 14.1775 11.0918C14.4374 11.0918 14.685 11.0381 14.9099 10.9415C15.7014 11.2436 16.2324 12.0137 16.2324 12.8619C16.2324 13.0276 16.3667 13.1619 16.5324 13.1619C16.6981 13.1619 16.8324 13.0276 16.8324 12.8619C16.8325 11.9015 16.3055 11.0186 15.4869 10.5523ZM10.2225 10.4351C10.2225 10.442 10.2227 10.4489 10.223 10.4557L10.2234 10.4702C10.1478 10.4843 10.0704 10.4918 9.99199 10.4918C9.29591 10.4918 8.72959 9.92553 8.72959 9.2294C8.72959 8.53356 9.29591 7.9674 9.99199 7.9674C10.529 7.9674 11.0048 8.30816 11.1818 8.80712C10.6102 9.12544 10.2225 9.73573 10.2225 10.4351ZM10.8225 10.4351C10.8225 9.73909 11.3888 9.1728 12.0848 9.1728C12.7808 9.1728 13.3471 9.73905 13.3471 10.4351C13.3471 11.1311 12.7808 11.6974 12.0848 11.6974C11.3888 11.6974 10.8225 11.1311 10.8225 10.4351ZM13.9462 10.4702L13.9466 10.4557C13.9468 10.4488 13.947 10.442 13.947 10.4351C13.947 9.73573 13.5594 9.12548 12.9878 8.80716C13.1648 8.3082 13.6405 7.96744 14.1776 7.96744C14.8737 7.96744 15.44 8.53356 15.44 9.22944C15.44 9.92553 14.8737 10.4918 14.1776 10.4918C14.0991 10.4918 14.0217 10.4843 13.9462 10.4702Z" fill="#017FFD"/>
<path d="M13.7051 15.3396H14.5979C14.7635 15.3396 14.8979 15.4739 14.8979 15.6396C14.8979 15.8054 14.7635 15.9396 14.5979 15.9396H13.7051C13.5394 15.9396 13.4051 15.8054 13.4051 15.6396C13.4051 15.4739 13.5394 15.3396 13.7051 15.3396Z" fill="#017FFD"/>
<path d="M14.5973 16.5147H9.57186C9.40618 16.5147 9.27186 16.6489 9.27186 16.8147C9.27186 16.9804 9.40618 17.1147 9.57186 17.1147H14.5974C14.7631 17.1147 14.8974 16.9804 14.8974 16.8147C14.8974 16.6489 14.763 16.5147 14.5973 16.5147Z" fill="#017FFD"/>
<path d="M9.57602 15.9396H9.57186C9.40618 15.9396 9.27186 15.8054 9.27186 15.6396C9.27186 15.4739 9.40618 15.3396 9.57186 15.3396H9.57602C9.7417 15.3396 9.87602 15.4739 9.87602 15.6396C9.87602 15.8054 9.7417 15.9396 9.57602 15.9396Z" fill="#017FFD"/>
<path d="M10.6155 15.9396C10.7812 15.9396 10.9155 15.8054 10.9155 15.6396C10.9155 15.4739 10.7812 15.3396 10.6155 15.3396H10.6113C10.4456 15.3396 10.3113 15.4739 10.3113 15.6396C10.3113 15.8054 10.4456 15.9396 10.6113 15.9396H10.6155Z" fill="#017FFD"/>
<path d="M11.9538 15.6396C11.9538 15.8054 11.8194 15.9396 11.6538 15.9396H11.6496C11.4839 15.9396 11.3496 15.8054 11.3496 15.6396C11.3496 15.4739 11.4839 15.3396 11.6496 15.3396H11.6538C11.8194 15.3396 11.9538 15.4739 11.9538 15.6396Z" fill="#017FFD"/>
<path fill-rule="evenodd" clip-rule="evenodd" d="M19.8538 14.9655V9.51243C20.6016 9.37131 21.1692 8.71355 21.1692 7.92534C21.1692 7.03454 20.4445 6.30986 19.5537 6.30986C19.0641 6.30986 18.625 6.52906 18.3285 6.8741L13.609 4.14909C13.6677 3.98193 13.7 3.80241 13.7 3.61541C13.7 2.72468 12.9754 2 12.0846 2C11.1938 2 10.4691 2.72468 10.4691 3.61545C10.4691 3.80245 10.5014 3.98193 10.5601 4.14913L5.84061 6.8741C5.54413 6.52906 5.10505 6.30986 4.61549 6.30986C3.72468 6.30986 3 7.03454 3 7.92534C3 8.71355 3.56752 9.37127 4.31533 9.51243V14.9655C3.56752 15.1067 3 15.7644 3 16.5526C3 17.4434 3.72468 18.1681 4.61549 18.1681C5.10429 18.1681 5.54273 17.9496 5.83921 17.6055L10.5601 20.331C10.5014 20.4981 10.4691 20.6776 10.4691 20.8645C10.4691 21.7553 11.1938 22.48 12.0846 22.48C12.9754 22.48 13.7001 21.7553 13.7001 20.8645C13.7001 20.6776 13.6678 20.4981 13.6091 20.331L18.33 17.6055C18.6265 17.9496 19.0649 18.1681 19.5537 18.1681C20.4445 18.1681 21.1692 17.4434 21.1692 16.5526C21.1692 15.7644 20.6016 15.1067 19.8538 14.9655ZM19.5537 6.90986C20.1136 6.90986 20.5691 7.36542 20.5691 7.92534C20.5691 8.48527 20.1136 8.94083 19.5537 8.94083C18.9937 8.94083 18.5382 8.48527 18.5382 7.92534C18.5382 7.36542 18.9937 6.90986 19.5537 6.90986ZM12.0846 2.6C12.6445 2.6 13.1001 3.05552 13.1001 3.61545C13.1001 4.17485 12.6454 4.63005 12.0862 4.63089L12.0846 4.63081L12.083 4.63089C11.5238 4.63005 11.0691 4.17485 11.0691 3.61545C11.0691 3.05552 11.5246 2.6 12.0846 2.6ZM3.6 7.92534C3.6 7.36542 4.05556 6.90986 4.61549 6.90986C5.17541 6.90986 5.63097 7.36542 5.63097 7.92534C5.63097 8.48527 5.17541 8.94083 4.61549 8.94083C4.05556 8.94083 3.6 8.48527 3.6 7.92534ZM4.61549 17.5681C4.05556 17.5681 3.6 17.1125 3.6 16.5526C3.6 15.9927 4.05556 15.5371 4.61549 15.5371C5.17541 15.5371 5.63097 15.9927 5.63097 16.5526C5.63097 17.1125 5.17541 17.5681 4.61549 17.5681ZM12.0846 21.88C11.5247 21.88 11.0691 21.4244 11.0691 20.8645C11.0691 20.3046 11.5247 19.849 12.0846 19.849C12.6445 19.849 13.1001 20.3046 13.1001 20.8645C13.1001 21.4244 12.6445 21.88 12.0846 21.88ZM13.3084 19.8117C13.0741 19.5397 12.7511 19.3465 12.3846 19.2774V18.1216C12.3846 17.9559 12.2502 17.8216 12.0846 17.8216C11.9189 17.8216 11.7846 17.9559 11.7846 18.1216V19.2774C11.418 19.3465 11.095 19.5397 10.8607 19.8117L6.13993 17.0863C6.19865 16.9191 6.23093 16.7396 6.23093 16.5526C6.23093 16.3655 6.19857 16.1858 6.13977 16.0185L7.14098 15.4403C7.28446 15.3574 7.33358 15.1739 7.25074 15.0304C7.1679 14.8869 6.98442 14.8379 6.84089 14.9207L5.83881 15.4994C5.60453 15.2276 5.28165 15.0346 4.91529 14.9655V9.51247C5.28177 9.44339 5.60473 9.25023 5.83901 8.97835L6.84246 9.55783C6.8897 9.58511 6.9413 9.59807 6.99222 9.59807C7.09586 9.59807 7.1967 9.54427 7.25226 9.44807C7.33514 9.30459 7.28598 9.12107 7.1425 9.03823L6.13981 8.45919C6.19853 8.29194 6.23085 8.11238 6.23085 7.92534C6.23085 7.7391 6.19881 7.5603 6.14053 7.3937L10.8607 4.66829C11.095 4.94021 11.418 5.13341 11.7844 5.20253V6.35842C11.7844 6.52414 11.9188 6.65842 12.0844 6.65842C12.2501 6.65842 12.3844 6.52414 12.3844 6.35842V5.20253C12.7509 5.13341 13.0739 4.94021 13.3082 4.66829L18.0283 7.3937C17.9701 7.5603 17.938 7.7391 17.938 7.92534C17.938 8.11238 17.9703 8.29194 18.0291 8.45919L17.0264 9.03823C16.8829 9.12107 16.8337 9.30459 16.9166 9.44807C16.9722 9.54427 17.073 9.59807 17.1767 9.59807C17.2275 9.59807 17.2792 9.58511 17.3264 9.55783L18.3299 8.97835C18.5642 9.25023 18.8871 9.44339 19.2536 9.51247V14.9655C18.8872 15.0346 18.5644 15.2276 18.3301 15.4994L17.328 14.9207C17.1845 14.8379 17.001 14.8869 16.9181 15.0304C16.8353 15.1739 16.8844 15.3574 17.0279 15.4403L18.0291 16.0185C17.9703 16.1858 17.9379 16.3655 17.9379 16.5526C17.9379 16.7396 17.9702 16.9191 18.0289 17.0863L13.3084 19.8117ZM19.5537 17.5681C18.9937 17.5681 18.5382 17.1125 18.5382 16.5526C18.5382 15.9927 18.9937 15.5371 19.5537 15.5371C20.1136 15.5371 20.5691 15.9927 20.5691 16.5526C20.5691 17.1125 20.1136 17.5681 19.5537 17.5681Z" fill="#017FFD"/>
</svg>
