<svg fill="none" xmlns="http://www.w3.org/2000/svg" viewBox="0 0 24 24"><path fill-rule="evenodd" clip-rule="evenodd" d="M15.487 10.552c.341-.337.553-.806.553-1.323a1.864 1.864 0 0 0-1.862-1.862c-.792 0-1.493.502-1.755 1.237a1.863 1.863 0 0 0-.677 0 1.865 1.865 0 0 0-1.754-1.237A1.864 1.864 0 0 0 8.13 9.23c0 .517.211.986.553 1.323a2.67 2.67 0 0 0-1.346 2.31.3.3 0 1 0 .6 0c0-.848.531-1.618 1.323-1.92a1.852 1.852 0 0 0 1.07.118c.096.265.249.503.445.697a2.65 2.65 0 0 0-1.345 2.31.3.3 0 1 0 .6 0c0-.827.493-1.57 1.255-1.893.02-.009.04-.02.057-.032a1.85 1.85 0 0 0 1.475.005 2.066 2.066 0 0 1 1.322 1.92.3.3 0 1 0 .6 0c0-.96-.527-1.843-1.345-2.31.197-.194.35-.431.445-.697a1.865 1.865 0 0 0 1.07-.119 2.065 2.065 0 0 1 1.323 1.92.3.3 0 1 0 .6 0 2.67 2.67 0 0 0-1.345-2.309Zm-5.264-.117v.035a1.262 1.262 0 1 1 .959-1.663c-.572.318-.96.929-.96 1.628Zm.6 0c0-.696.566-1.262 1.262-1.262.696 0 1.262.566 1.262 1.262 0 .696-.566 1.262-1.262 1.262a1.264 1.264 0 0 1-1.263-1.262Zm3.123.035v-.014l.001-.02c0-.7-.388-1.31-.96-1.629a1.264 1.264 0 0 1 2.452.422 1.264 1.264 0 0 1-1.493 1.241Z" fill="currentColor"/><path d="M13.705 15.34h.893a.3.3 0 0 1 0 .6h-.893a.3.3 0 1 1 0-.6ZM14.597 16.515H9.572a.3.3 0 1 0 0 .6h5.025a.3.3 0 1 0 0-.6ZM9.576 15.94h-.004a.3.3 0 1 1 0-.6h.004a.3.3 0 1 1 0 .6ZM10.616 15.94a.3.3 0 1 0 0-.6h-.005a.3.3 0 1 0 0 .6h.005ZM11.954 15.64a.3.3 0 0 1-.3.3h-.004a.3.3 0 1 1 0-.6h.004a.3.3 0 0 1 .3.3Z" fill="currentColor"/><path fill-rule="evenodd" clip-rule="evenodd" d="M19.854 14.966V9.512a1.618 1.618 0 0 0 1.315-1.587c0-.89-.724-1.615-1.615-1.615-.49 0-.929.22-1.226.564L13.61 4.15A1.617 1.617 0 0 0 12.085 2a1.617 1.617 0 0 0-1.525 2.15L5.84 6.874a1.612 1.612 0 0 0-1.225-.564C3.725 6.31 3 7.035 3 7.925c0 .789.568 1.446 1.315 1.587v5.454A1.618 1.618 0 0 0 3 16.553c0 .89.725 1.615 1.615 1.615.49 0 .928-.218 1.224-.563l4.721 2.726a1.617 1.617 0 0 0 1.524 2.149 1.617 1.617 0 0 0 1.525-2.149l4.721-2.726c.297.345.735.563 1.224.563.89 0 1.615-.725 1.615-1.615 0-.789-.567-1.446-1.315-1.588Zm-.3-8.056a1.017 1.017 0 0 1 0 2.03 1.017 1.017 0 0 1 0-2.03Zm-7.47-4.31a1.017 1.017 0 0 1 .002 2.03h-.003a1.017 1.017 0 0 1 .002-2.03ZM3.6 7.925a1.017 1.017 0 0 1 2.031 0 1.017 1.017 0 0 1-2.031 0Zm1.015 9.643a1.017 1.017 0 0 1 0-2.03 1.017 1.017 0 0 1 0 2.03Zm7.47 4.312a1.017 1.017 0 0 1 0-2.031 1.017 1.017 0 0 1 0 2.031Zm1.223-2.068a1.615 1.615 0 0 0-.923-.535v-1.155a.3.3 0 0 0-.6 0v1.155c-.367.07-.69.263-.924.535L6.14 17.086a1.607 1.607 0 0 0 0-1.067l1.001-.579a.3.3 0 0 0-.3-.52l-1.002.58a1.615 1.615 0 0 0-.924-.534V9.512c.367-.069.69-.262.924-.534l1.003.58a.299.299 0 0 0 .41-.11.3.3 0 0 0-.11-.41L6.14 8.46a1.608 1.608 0 0 0 0-1.065l4.72-2.726c.235.272.558.465.924.535v1.155a.3.3 0 0 0 .6 0V5.203c.367-.07.69-.263.924-.535l4.72 2.726a1.609 1.609 0 0 0 .001 1.065l-1.003.58a.3.3 0 1 0 .3.519l1.004-.58c.234.272.557.465.924.534v5.454c-.367.069-.69.262-.924.533l-1.002-.578a.3.3 0 0 0-.3.52l1.001.577a1.608 1.608 0 0 0 0 1.068l-4.72 2.726Zm6.246-2.244a1.017 1.017 0 0 1 0-2.03 1.017 1.017 0 0 1 0 2.03Z" fill="currentColor"/></svg>