<?xml version="1.0" encoding="UTF-8"?>
<svg id="Layer_1" data-name="Layer 1" xmlns="http://www.w3.org/2000/svg" xmlns:xlink="http://www.w3.org/1999/xlink" viewBox="0 0 269.3 94.97">
  <defs>
    <style>
      .cls-1 {
        fill: #f4c47f;
      }

      .cls-2 {
        fill: #7b1c58;
      }

      .cls-3 {
        fill: #7276b1;
      }

      .cls-4 {
        fill: url(#linear-gradient);
      }
    </style>
    <linearGradient id="linear-gradient" x1="82.14" y1="75.09" x2="2.3" y2="75.09" gradientTransform="matrix(1, 0, 0, 1, 0, 0)" gradientUnits="userSpaceOnUse">
      <stop offset="0" stop-color="#7b1c58"/>
      <stop offset="1" stop-color="#7276b1"/>
    </linearGradient>
  </defs>
  <path id="fullLogo" class="cls-2" d="M121.67,56.5c-5.06,0-6.44-3.15-6.44-8.98,0-6.41,2.37-9.18,7.25-9.18,1.81,0,4.07,.28,5.09,.58l-.81,3c-1.25-.23-2.47-.51-4.15-.51-2.72,0-3.61,1.63-3.61,6s.89,6.03,3.26,6.03c.56,0,1.55-.03,2.34-.23v-3.89h-2.65v-2.95h6.11v9.06c-1.7,.79-4.07,1.07-6.39,1.07Z"/>
  <path id="fullLogo-2" data-name="fullLogo" class="cls-2" d="M135.82,42.69c3.76,0,5.42,1.88,5.42,5.9,0,.58,0,1.17-.05,1.78h-7.61c.03,2.47,.51,3.31,2.85,3.31,1.6,0,3.13-.43,3.82-.66l.76,2.57c-1.09,.46-2.93,.92-5.06,.92-4.65,0-5.98-2.09-5.98-6.82s1.75-7,5.85-7Zm-2.24,5.37h4.27c0-1.96-.46-2.75-2.06-2.75s-2.16,.76-2.21,2.75Z"/>
  <path id="fullLogo-3" data-name="fullLogo" class="cls-2" d="M143.2,56.19v-13.18h3.28l.03,1.22c1.5-1.02,2.98-1.55,4.3-1.55,2.01,0,3.71,1.09,3.71,4.02v9.49h-3.59v-8.83c0-1.27-.69-1.65-1.48-1.65-.92,0-1.73,.38-2.67,.86v9.62h-3.59Z"/>
  <path id="fullLogo-4" data-name="fullLogo" class="cls-2" d="M162.4,42.8c4.48,0,6.05,2.14,6.05,6.89,0,4.5-1.81,6.92-6.05,6.92s-6.03-2.14-6.03-6.92c0-4.5,1.81-6.89,6.03-6.89Zm0,2.72c-1.83,0-2.39,1.17-2.39,4.17s.56,4.17,2.39,4.17,2.39-1.14,2.39-4.17-.53-4.17-2.39-4.17Z"/>
  <path id="fullLogo-5" data-name="fullLogo" class="cls-2" d="M170.39,56.19v-13.18h3.28l.03,1.22c1.5-1.02,2.98-1.55,4.3-1.55s2.57,.51,3.23,1.7c1.55-1.12,3.13-1.7,4.5-1.7,2.01,0,3.71,1.09,3.71,4.02v9.49h-3.59v-8.83c0-1.27-.69-1.65-1.48-1.65-.92,0-1.73,.38-2.67,.86v9.62h-3.59v-8.83c0-1.27-.69-1.65-1.48-1.65-.92,0-1.73,.38-2.67,.86v9.62h-3.59Z"/>
  <path id="fullLogo-6" data-name="fullLogo" class="cls-2" d="M193.62,37.57c1.14,0,2.06,.92,2.06,2.06s-.92,2.03-2.06,2.03-2.04-.89-2.04-2.03,.89-2.06,2.04-2.06Zm1.81,5.44v13.18h-3.59v-13.18h3.59Z"/>
  <path id="fullLogo-7" data-name="fullLogo" class="cls-2" d="M203.26,42.69c1.53,0,2.87,.23,3.66,.43l-.69,2.72c-.66-.13-1.81-.31-2.75-.31-1.58,0-2.42,1.07-2.42,4.04,0,3.13,.66,3.99,2.49,3.99,.94,0,1.96-.15,2.85-.41l.69,2.7c-.97,.36-2.49,.64-4.17,.64-4.05,0-5.55-2.09-5.55-6.94,0-4.45,1.98-6.87,5.88-6.87Z"/>
  <path id="fullLogo-8" data-name="fullLogo" class="cls-2" d="M212.85,56.19v-17.55h6.05c2.01,0,3.66,.41,4.71,1.32,1.81,1.53,2.06,4.32,2.06,7.22,0,3.61-.56,6.05-1.98,7.45-1.17,1.17-2.85,1.55-4.68,1.55h-6.16Zm3.66-14.55v11.55h2.29c2.09,0,3.21-1.02,3.21-5.93s-1.09-5.62-3.54-5.62h-1.96Z"/>
  <path id="fullLogo-9" data-name="fullLogo" class="cls-2" d="M227.12,52.45c0-2.52,1.25-3.84,3.66-4.12,1.02-.13,2.34-.18,3.48-.2v-.92c0-1.32-.61-1.75-2.03-1.75s-2.98,.36-3.84,.56l-.51-2.62c1.4-.41,3.13-.71,5.01-.71,3.13,0,4.88,1.09,4.88,4.04v9.46h-3.1l-.03-1.07c-.97,.86-2.42,1.37-3.69,1.37-2.54,0-3.84-1.4-3.84-4.04Zm4.88,1.42c.76,0,1.65-.31,2.26-.71v-2.75l-1.93,.05c-1.22,.03-1.73,.61-1.73,1.86,0,1.17,.53,1.55,1.4,1.55Z"/>
  <path id="fullLogo-10" data-name="fullLogo" class="cls-2" d="M240.96,45.74h-1.83v-2.62l1.98-.1,.13-3.1,3.31-.33v3.43h3.05v2.7h-3.05v6.54c0,1.04,.25,1.42,1.07,1.42,.53,0,1.17-.08,1.78-.31l.56,2.52c-.79,.38-2.21,.61-3.59,.61-2.37,0-3.41-1.12-3.41-3.36v-7.4Z"/>
  <path id="fullLogo-11" data-name="fullLogo" class="cls-2" d="M248.67,52.45c0-2.52,1.25-3.84,3.66-4.12,1.02-.13,2.34-.18,3.48-.2v-.92c0-1.32-.61-1.75-2.03-1.75s-2.98,.36-3.84,.56l-.51-2.62c1.4-.41,3.13-.71,5.01-.71,3.13,0,4.88,1.09,4.88,4.04v9.46h-3.1l-.03-1.07c-.97,.86-2.42,1.37-3.69,1.37-2.54,0-3.84-1.4-3.84-4.04Zm4.88,1.42c.76,0,1.65-.31,2.26-.71v-2.75l-1.93,.05c-1.22,.03-1.73,.61-1.73,1.86,0,1.17,.53,1.55,1.4,1.55Z"/>
  <path id="fullLogo-12" data-name="fullLogo" class="cls-2" d="M120.12,63.39v17.55h-3.66v-17.55h3.66Z"/>
  <path id="fullLogo-13" data-name="fullLogo" class="cls-2" d="M122.64,80.94v-13.18h3.28l.03,1.22c1.5-1.02,2.98-1.55,4.3-1.55,2.01,0,3.71,1.09,3.71,4.02v9.49h-3.59v-8.83c0-1.27-.69-1.65-1.48-1.65-.92,0-1.73,.38-2.67,.86v9.62h-3.59Z"/>
  <path id="fullLogo-14" data-name="fullLogo" class="cls-2" d="M141.03,62.14c1.09,0,2.11,.08,2.77,.2l-.46,2.67c-.48-.03-.99-.08-1.5-.08-.84,0-1.14,.36-1.14,1.35v1.48h2.77v2.7h-2.77v10.48h-3.59v-10.45h-1.81v-2.72h1.86v-2.09c0-1.98,1.25-3.54,3.87-3.54Z"/>
  <path id="fullLogo-15" data-name="fullLogo" class="cls-2" d="M144.9,80.94v-13.18h3.28l.05,1.91c1.09-1.78,2.09-2.24,3.51-2.24,.33,0,.46,.03,.66,.08l-.28,3.18c-.38-.08-.69-.1-1.09-.1-.89,0-1.78,.38-2.54,1.22v9.13h-3.59Z"/>
  <path id="fullLogo-16" data-name="fullLogo" class="cls-2" d="M153.09,77.2c0-2.52,1.25-3.84,3.66-4.12,1.02-.13,2.34-.18,3.48-.2v-.92c0-1.32-.61-1.75-2.03-1.75s-2.98,.36-3.84,.56l-.51-2.62c1.4-.41,3.13-.71,5.01-.71,3.13,0,4.88,1.09,4.88,4.04v9.46h-3.1l-.03-1.07c-.97,.86-2.42,1.37-3.69,1.37-2.54,0-3.84-1.4-3.84-4.04Zm4.88,1.42c.76,0,1.65-.31,2.26-.71v-2.75l-1.93,.05c-1.22,.03-1.73,.61-1.73,1.86,0,1.17,.53,1.55,1.4,1.55Z"/>
  <path id="fullLogo-17" data-name="fullLogo" class="cls-2" d="M166.07,77.91c1.27,.31,2.75,.53,3.92,.53,1.53,0,2.09-.41,2.09-1.35,0-.76-.41-.99-1.5-1.22l-1.58-.28c-2.19-.41-3.18-1.4-3.18-3.87,0-3,1.93-4.3,5.04-4.3,1.91,0,3.41,.25,4.12,.38l-.74,2.72c-.86-.15-2.11-.36-3.33-.36s-1.75,.41-1.75,1.17,.31,.86,1.25,1.07l1.65,.31c2.37,.48,3.36,1.6,3.36,3.89,0,2.87-1.53,4.63-5.37,4.63-1.86,0-3.03-.18-4.45-.51l.48-2.82Z"/>
  <path id="fullLogo-18" data-name="fullLogo" class="cls-2" d="M178,70.48h-1.83v-2.62l1.98-.1,.13-3.1,3.31-.33v3.43h3.05v2.7h-3.05v6.54c0,1.04,.25,1.42,1.07,1.42,.53,0,1.17-.08,1.78-.31l.56,2.52c-.79,.38-2.21,.61-3.59,.61-2.37,0-3.41-1.12-3.41-3.36v-7.4Z"/>
  <path id="fullLogo-19" data-name="fullLogo" class="cls-2" d="M186.34,80.94v-13.18h3.28l.05,1.91c1.09-1.78,2.09-2.24,3.51-2.24,.33,0,.46,.03,.66,.08l-.28,3.18c-.38-.08-.69-.1-1.09-.1-.89,0-1.78,.38-2.54,1.22v9.13h-3.59Z"/>
  <path id="fullLogo-20" data-name="fullLogo" class="cls-2" d="M195.17,67.76h3.59v8.78c0,1.14,.43,1.68,1.5,1.68,.84,0,1.65-.31,2.39-.69v-9.77h3.59v13.18h-3.28v-1.04c-1.25,.79-2.57,1.35-4.05,1.35-2.24,0-3.74-1.27-3.74-4.12v-9.36Z"/>
  <path id="fullLogo-21" data-name="fullLogo" class="cls-2" d="M214.1,67.43c1.53,0,2.87,.23,3.66,.43l-.69,2.72c-.66-.13-1.81-.31-2.75-.31-1.58,0-2.42,1.07-2.42,4.04,0,3.13,.66,3.99,2.49,3.99,.94,0,1.96-.15,2.85-.41l.69,2.7c-.97,.36-2.49,.64-4.17,.64-4.05,0-5.55-2.09-5.55-6.94,0-4.45,1.98-6.87,5.88-6.87Z"/>
  <path id="fullLogo-22" data-name="fullLogo" class="cls-2" d="M220.28,70.48h-1.83v-2.62l1.98-.1,.13-3.1,3.31-.33v3.43h3.05v2.7h-3.05v6.54c0,1.04,.25,1.42,1.07,1.42,.53,0,1.17-.08,1.78-.31l.56,2.52c-.79,.38-2.21,.61-3.59,.61-2.37,0-3.41-1.12-3.41-3.36v-7.4Z"/>
  <path id="fullLogo-23" data-name="fullLogo" class="cls-2" d="M228.55,67.76h3.59v8.78c0,1.14,.43,1.68,1.5,1.68,.84,0,1.65-.31,2.39-.69v-9.77h3.59v13.18h-3.28v-1.04c-1.25,.79-2.57,1.35-4.05,1.35-2.24,0-3.74-1.27-3.74-4.12v-9.36Z"/>
  <path id="fullLogo-24" data-name="fullLogo" class="cls-2" d="M242.11,80.94v-13.18h3.28l.05,1.91c1.09-1.78,2.09-2.24,3.51-2.24,.33,0,.46,.03,.66,.08l-.28,3.18c-.38-.08-.69-.1-1.09-.1-.89,0-1.78,.38-2.54,1.22v9.13h-3.59Z"/>
  <path id="fullLogo-25" data-name="fullLogo" class="cls-2" d="M256.05,67.43c3.76,0,5.42,1.88,5.42,5.9,0,.58,0,1.17-.05,1.78h-7.61c.03,2.47,.51,3.31,2.85,3.31,1.6,0,3.13-.43,3.82-.66l.76,2.57c-1.09,.46-2.93,.92-5.06,.92-4.65,0-5.98-2.09-5.98-6.82s1.75-7,5.85-7Zm-2.24,5.37h4.27c0-1.96-.46-2.75-2.06-2.75s-2.16,.76-2.21,2.75Z"/>
  <a xlink:href="20.5937254901961">
    <path id="fullLogo-26" data-name="fullLogo" class="cls-1" d="M49.85,90.62c-.47,.19-.91,.37-1.35,.75-1.64,1.41-.11,3.16,3.07,3.54,3.99,.47,6.29-1.51,4.9-3.26-.98-1.23-3.73-1.96-6.62-1.02Z"/>
  </a>
  <a xlink:href="51.556862745098">
    <path id="fullLogo-27" data-name="fullLogo" class="cls-3" d="M78.6,77.22c-3.29,1.93-4.72,5.55-3.71,7.25,1.44,2.43,5.95-1.14,7.02-4.78,.67-2.3-.4-3.9-3.31-2.48Z"/>
  </a>
  <a xlink:href="adient">
    <path id="fullLogo-28" data-name="fullLogo" class="cls-4" d="M89.75,70.85c-2.9,2.16-4.77,7.2-4.28,8.52,.52,1.4,3.58-2.06,5.06-5.26,.3-.64,.51-1.23,.64-1.74,.07-.29,.64-2.77-1.42-1.52Z"/>
  </a>
  <a xlink:href="51.556862745098">
    <path id="fullLogo-29" data-name="fullLogo" class="cls-3" d="M32.68,82.28c-.38,.14-.85,.31-1.27,.62-2.69,1.94-.21,5.65,4.35,6.51,4.57,.87,6.95-1.95,5.19-4.59-1.12-1.67-4.42-3.57-8.27-2.55Z"/>
  </a>
  <a xlink:href="51.556862745098">
    <path id="fullLogo-30" data-name="fullLogo" class="cls-3" d="M50.63,75.32c-5,2.28-4.97,6.62-1.29,8.31,4.82,2.22,11.05-1.55,9.66-5.85-.66-2.05-3.7-4.16-8.37-2.46Z"/>
  </a>
  <a xlink:href="20.5937254901961">
    <path id="fullLogo-31" data-name="fullLogo" class="cls-1" d="M96.04,50.27c-3.11,2.95-3.8,10.55-2.22,12.23,1.54,1.64,3.96-3.04,4.51-7.56,.35-2.89-.13-6.25-2.29-4.67Z"/>
  </a>
  <a xlink:href="20.5937254901961">
    <path id="fullLogo-32" data-name="fullLogo" class="cls-1" d="M20.6,26.4c-4.04,1.69-4.81,7.15-2.25,9.29,3.22,2.69,8.48-1.14,7.82-5.7-.31-2.1-2.24-4.61-5.57-3.6Z"/>
  </a>
  <a xlink:href="51.556862745098">
    <path id="fullLogo-33" data-name="fullLogo" class="cls-3" d="M36.01,19.77c-4.65,2.36-4.01,8.27-.02,9.79,4.45,1.69,9.12-2.69,7.34-6.9-.87-2.05-3.71-4.3-7.32-2.89Z"/>
  </a>
  <a xlink:href="20.5937254901961">
    <path id="fullLogo-34" data-name="fullLogo" class="cls-1" d="M68.22,13.88c3.62-.05,4.33-3.47,1.3-6.2-1.75-1.58-5.31-3.18-7.73-1.77-.08,.07-.2,.15-.27,.22-2.55,2.38,2.15,7.82,6.71,7.76Z"/>
  </a>
  <a xlink:href="51.556862745098">
    <path id="fullLogo-35" data-name="fullLogo" class="cls-3" d="M77.51,6.64c1.71-.36,.58-2.66-2.29-4.63-1.87-1.29-5-2.66-6.09-1.68-1.32,2.08,5.97,6.82,8.38,6.31Z"/>
  </a>
  <a xlink:href="20.5937254901961">
    <path id="fullLogo-36" data-name="fullLogo" class="cls-1" d="M2.21,49.92c-3.45,.87-2.52,8.21,.5,10.16,2.36,1.53,4.45-1.17,3.85-4.97-.36-2.27-1.95-5.39-4.35-5.2Z"/>
  </a>
  <a xlink:href="51.556862745098">
    <path id="fullLogo-37" data-name="fullLogo" class="cls-3" d="M16.09,45.95c-4.78,1.8-4.69,8.27-.91,10.69,4.01,2.58,8.8-1.26,7.76-6.22-.51-2.45-2.98-5.45-6.84-4.47Z"/>
  </a>
  <a xlink:href="51.556862745098">
    <path id="fullLogo-38" data-name="fullLogo" class="cls-3" d="M34.33,38.81c-5.83,2.7-5.75,9.3-1.29,11.56,5.25,2.66,11.73-2.38,10.06-7.82-.74-2.39-3.77-5.53-8.77-3.74Z"/>
  </a>
  <a xlink:href="lse">
    <path id="fullLogo-39" data-name="fullLogo" class="cls-2" d="M90.15,48.36l-.2,.2c-2,2.19-2.83,6.94-.96,9.35,.32,.43,1.07,1.43,.93,3.69-.28,4.28-3.61,8.64-6.45,8.64-.76,0-1.48-.31-2.1-1.02-1.53-1.54-4.54,.06-5.69,3-2.34,6.04-9.31,6.81-11,2.47-.23-.59-.28-1.2-.28-1.64,0-.39,.04-.65,.04-.65,.45-4.37-3.42-6.99-8.45-5.71,.03-.01,.06-.02,.1-.04-2.01,.7-4.28,.73-6.41-.24-5.6-2.55-5.18-9.96,.43-13.16,2.63-1.72,3.8-4.15,3.8-6.46,0-2.1-.96-4.1-2.65-5.43-3.53-2.83-3.62-8.53,1.37-11.3,2.23-1.02,4.38-.97,6.58,.14,3.13,1.6,6.46-.26,6.37-3.54,0,.02,0,.03,.01,.05-.19-2.14,.57-4.26,2.64-5.62,4.06-2.13,8,.68,9.5,3.36,.57,1.01,.93,2.14,1,3.3,.06,1.02-.11,2.06-.53,3-.39,.88-1,1.67-1.77,2.25s-1.74,.96-2.72,1.05c-1.23,.12-2.51-.14-3.6-.69-.09-.04-.17-.09-.26-.14-.64-.34-1.27-.69-1.98-.82-.53-.1-1.07-.1-1.6,0-1.04,.2-1.97,.78-2.61,1.62-.54,.71-.86,1.58-.96,2.46-.12,.95-.33,1.8-.75,2.61-.43,.81-1.07,1.58-2.09,2.37-3.67,2.69-4.78,8.46-.72,11.91,1.22,.84,2.11,2.03,2.57,3.37,.37,1.08,.44,2.15,.3,3.17-.3,4.65,3.4,7.59,8.02,6.3,1.96-.5,3.13-.37,4.51,.5,2.12,1.46,5.05-.15,6.07-3.31,.51-1.86,1.62-3.77,3.37-5.25,2.72-2.18,3.74-7.16,1-9.66,.02,.01,.03,.02,.05,.03-.37-.28-.72-.61-1.03-1l.18,.24c-1.67-1.72-4.01,.1-4.22,2.54-.09-.27-.18-.55-.28-.83,.1,.28,.19,.57,.28,.86-.76,8.08-9.23,10.86-13.31,6.07-2.99-3.51-2.34-10.08,2.98-13.3,1.23-.6,2.42-.91,3.55-.91,1.62,0,3.13,.62,4.51,1.86,.51,.48,1.11,.71,1.7,.71,1.32,0,2.59-1.16,2.63-3.24,0,.11,.02,.21,.02,.32-.12-2.8,.76-5.68,2.95-7.32,3.73-2.19,6.53,1.43,7.33,4.71,.93,3.79-.19,7.4-2.16,9.13Z"/>
  </a>
  <a xlink:href="51.556862745098">
    <path id="fullLogo-40" data-name="fullLogo" class="cls-3" d="M85.46,24.99c3.74,.8,4.65-3.61,1.65-8-1.52-2.22-4.84-5.09-7.31-3.35-3.03,3.03,1.3,10.42,5.65,11.35Z"/>
  </a>
  <a xlink:href="20.5937254901961">
    <path id="fullLogo-41" data-name="fullLogo" class="cls-1" d="M30.73,61.57c-6.34,2.63-5.46,9.66-.12,12.08,5.99,2.72,12.71-2.12,10.73-7.73-1.01-2.86-4.96-6.1-10.61-4.35Z"/>
  </a>
  <g>
    <path class="cls-2" d="M127.03,31.27h-10.57V13.73h10.5v3h-6.84v4.02h5.46v3.02h-5.46v4.5h6.91v3Z"/>
    <path class="cls-2" d="M128.82,18.1h3.58v8.77c0,1.14,.43,1.68,1.5,1.68,.84,0,1.65-.3,2.39-.69v-9.76h3.58v13.17h-3.28v-1.04c-1.25,.79-2.57,1.35-4.04,1.35-2.24,0-3.74-1.27-3.74-4.12v-9.36Z"/>
    <path class="cls-2" d="M142.37,31.27v-13.17h3.28l.05,1.91c1.09-1.78,2.08-2.24,3.51-2.24,.33,0,.46,.02,.66,.08l-.28,3.18c-.38-.08-.69-.1-1.09-.1-.89,0-1.78,.38-2.54,1.22v9.13h-3.58Z"/>
    <path class="cls-2" d="M156.46,17.77c4.47,0,6.05,2.13,6.05,6.89,0,4.5-1.8,6.91-6.05,6.91s-6.02-2.13-6.02-6.91c0-4.5,1.8-6.89,6.02-6.89Zm0,2.72c-1.83,0-2.39,1.17-2.39,4.17s.56,4.17,2.39,4.17,2.39-1.14,2.39-4.17-.53-4.17-2.39-4.17Z"/>
    <path class="cls-2" d="M170.83,31.57c-1.12,0-2.11-.3-2.8-.66v5.54l-3.58,.33V18.08h3.15v1.25c1.09-.91,2.44-1.55,3.94-1.55,3.35,0,4.63,2.06,4.63,6.89,0,4.58-1.96,6.91-5.34,6.91Zm-2.8-9.94v6.71c.61,.23,1.42,.43,2.03,.43,1.73,0,2.47-1.04,2.47-4.12s-.56-3.97-1.96-3.97c-.92,0-1.86,.46-2.54,.94Z"/>
    <path class="cls-2" d="M183.54,17.77c3.76,0,5.41,1.88,5.41,5.9,0,.58,0,1.17-.05,1.78h-7.6c.02,2.47,.51,3.3,2.85,3.3,1.6,0,3.13-.43,3.81-.66l.76,2.57c-1.09,.46-2.92,.91-5.06,.91-4.65,0-5.97-2.08-5.97-6.81s1.76-6.99,5.85-6.99Zm-2.24,5.36h4.27c0-1.96-.46-2.74-2.06-2.74s-2.16,.76-2.21,2.74Z"/>
    <path class="cls-2" d="M190.29,27.53c0-2.52,1.25-3.84,3.66-4.12,1.02-.13,2.34-.18,3.48-.2v-.91c0-1.32-.61-1.76-2.03-1.76s-2.97,.36-3.84,.56l-.51-2.62c1.4-.41,3.13-.71,5.01-.71,3.13,0,4.88,1.09,4.88,4.04v9.46h-3.1l-.02-1.07c-.97,.87-2.42,1.37-3.69,1.37-2.54,0-3.84-1.4-3.84-4.04Zm4.88,1.42c.76,0,1.65-.3,2.26-.71v-2.75l-1.93,.05c-1.22,.02-1.73,.61-1.73,1.85,0,1.17,.53,1.55,1.4,1.55Z"/>
    <path class="cls-2" d="M203.36,31.27v-13.17h3.28l.02,1.22c1.5-1.02,2.97-1.55,4.3-1.55,2.01,0,3.71,1.09,3.71,4.02v9.48h-3.58v-8.82c0-1.27-.69-1.65-1.47-1.65-.91,0-1.73,.38-2.67,.87v9.61h-3.58Z"/>
  </g>
</svg>