<?xml version="1.0" encoding="UTF-8" standalone="no"?>
<svg
   xmlns:dc="http://purl.org/dc/elements/1.1/"
   xmlns:cc="http://creativecommons.org/ns#"
   xmlns:rdf="http://www.w3.org/1999/02/22-rdf-syntax-ns#"
   xmlns:svg="http://www.w3.org/2000/svg"
   xmlns="http://www.w3.org/2000/svg"
   xmlns:sodipodi="http://sodipodi.sourceforge.net/DTD/sodipodi-0.dtd"
   xmlns:inkscape="http://www.inkscape.org/namespaces/inkscape"
   version="1.1"
   viewBox="0 0 522.78577 392.98087"
   fill="none"
   stroke="none"
   stroke-linecap="square"
   stroke-miterlimit="10"
   id="svg4164"
   sodipodi:docname="diagram.svg"
   width="522.78577"
   height="392.98087"
   inkscape:version="1.0.2 (e86c8708, 2021-01-15)">
  <metadata
     id="metadata4170">
    <rdf:RDF>
      <cc:Work
         rdf:about="">
        <dc:format>image/svg+xml</dc:format>
        <dc:type
           rdf:resource="http://purl.org/dc/dcmitype/StillImage" />
        <dc:title></dc:title>
      </cc:Work>
    </rdf:RDF>
  </metadata>
  <defs
     id="defs4168" />
  <sodipodi:namedview
     pagecolor="#ffffff"
     bordercolor="#666666"
     borderopacity="1"
     objecttolerance="10"
     gridtolerance="10"
     guidetolerance="10"
     inkscape:pageopacity="0.01568627"
     inkscape:pageshadow="2"
     inkscape:window-width="1440"
     inkscape:window-height="855"
     id="namedview4166"
     showgrid="false"
     inkscape:zoom="1.1427083"
     inkscape:cx="362.10754"
     inkscape:cy="218.36828"
     inkscape:window-x="1920"
     inkscape:window-y="23"
     inkscape:window-maximized="1"
     inkscape:current-layer="g4162"
     inkscape:pagecheckerboard="true" />
  <clipPath
     id="p.0">
    <path
       d="M 0,0 H 960 V 540 H 0 Z"
       clip-rule="nonzero"
       id="path4043" />
  </clipPath>
  <g
     clip-path="url(#p.0)"
     id="g4162"
     transform="translate(-166.80402,-16.627165)">
    <path
       fill="#ffffff"
       d="M 166.80402,16.627165 H 689.58979 V 409.60802 H 166.80402 Z"
       fill-rule="evenodd"
       id="path4046"
       style="stroke-width:0.629528;fill:#ffffff;fill-opacity:0" />
    <path
       fill="#017ffd"
       d="M 170.58792,128.70604 H 343.53281 V 192.2336 H 170.58792 Z"
       fill-rule="evenodd"
       id="path4048" />
    <path
       stroke="#595959"
       stroke-width="1"
       stroke-linejoin="round"
       stroke-linecap="butt"
       d="M 170.58792,128.70604 H 343.53281 V 192.2336 H 170.58792 Z"
       fill-rule="evenodd"
       id="path4050" />
    <path
       fill="#ffffff"
       d="m 224.76816,159.59294 q -1.67188,0 -2.65625,-0.625 -0.96875,-0.64063 -1.35938,-1.76563 -0.39062,-1.14062 -0.39062,-2.625 v -5.4375 q 0,-1.5625 0.39062,-2.6875 0.39063,-1.125 1.35938,-1.73437 0.98437,-0.625 2.65625,-0.625 1.625,0 2.54687,0.54687 0.9375,0.53125 1.3125,1.53125 0.39063,0.98438 0.39063,2.28125 v 1.28125 h -3 v -1.42187 q 0,-0.53125 -0.0625,-0.98438 -0.0469,-0.45312 -0.29688,-0.73437 -0.25,-0.29688 -0.85937,-0.29688 -0.625,0 -0.90625,0.29688 -0.28125,0.29687 -0.35938,0.78125 -0.0625,0.46875 -0.0625,1.04687 v 6.85938 q 0,0.64062 0.0937,1.125 0.10938,0.46875 0.39063,0.71875 0.29687,0.25 0.84375,0.25 0.59375,0 0.84375,-0.28125 0.25,-0.29688 0.3125,-0.78125 0.0625,-0.48438 0.0625,-1.03125 v -1.46875 h 3 v 1.25 q 0,1.32812 -0.375,2.34375 -0.375,1.01562 -1.29688,1.60937 -0.90625,0.57813 -2.57812,0.57813 z m 9.37941,-0.0156 q -1.15625,0 -1.98438,-0.42187 -0.82812,-0.42188 -1.25,-1.21875 -0.40625,-0.79688 -0.40625,-2 v -3.875 q 0,-1.20313 0.40625,-2 0.42188,-0.79688 1.25,-1.21875 0.82813,-0.42188 1.98438,-0.42188 1.15625,0 1.96875,0.42188 0.82812,0.42187 1.25,1.21875 0.4375,0.79687 0.4375,2 v 3.875 q 0,1.20312 -0.4375,2 -0.42188,0.79687 -1.25,1.21875 -0.8125,0.42187 -1.96875,0.42187 z m 0.0156,-1.90625 q 0.34375,0 0.53125,-0.1875 0.1875,-0.20312 0.25,-0.54687 0.0625,-0.34375 0.0625,-0.79688 v -4.26562 q 0,-0.46875 -0.0625,-0.79688 -0.0625,-0.34375 -0.25,-0.54687 -0.1875,-0.20313 -0.53125,-0.20313 -0.35937,0 -0.54687,0.20313 -0.1875,0.20312 -0.25,0.54687 -0.0625,0.32813 -0.0625,0.79688 v 4.26562 q 0,0.45313 0.0625,0.79688 0.0625,0.34375 0.25,0.54687 0.1875,0.1875 0.54687,0.1875 z m 5.4746,1.71875 v -15.10937 h 2.82812 v 15.10937 z m 4.92525,0 v -15.10937 h 2.82812 v 15.10937 z m 8.19087,0.1875 q -1.1875,0 -2,-0.4375 -0.79688,-0.4375 -1.20313,-1.28125 -0.40625,-0.85937 -0.40625,-2.04687 v -3.625 q 0,-1.23438 0.40625,-2.0625 0.40625,-0.82813 1.21875,-1.26563 0.82813,-0.4375 1.98438,-0.4375 1.23437,0 2,0.45313 0.76562,0.4375 1.125,1.29687 0.375,0.85938 0.375,2.09375 v 1.875 h -4.32813 v 2.09375 q 0,0.46875 0.0937,0.76563 0.10938,0.29687 0.29688,0.42187 0.1875,0.125 0.46875,0.125 0.25,0 0.4375,-0.125 0.20312,-0.125 0.29687,-0.375 0.0937,-0.26562 0.0937,-0.70312 v -1.01563 h 2.60938 v 0.89063 q 0,1.64062 -0.89063,2.5 -0.89062,0.85937 -2.57812,0.85937 z m -0.82813,-6.76562 h 1.6875 v -1.07813 q 0,-0.45312 -0.0937,-0.73437 -0.0937,-0.29688 -0.29687,-0.42188 -0.1875,-0.125 -0.48438,-0.125 -0.28125,0 -0.45312,0.14063 -0.17188,0.125 -0.26563,0.45312 -0.0937,0.32813 -0.0937,0.92188 z m 9.39438,6.76562 q -1.1875,0 -2,-0.45312 -0.79687,-0.46875 -1.20312,-1.29688 -0.39063,-0.84375 -0.39063,-2 v -3.64062 q 0,-1.20313 0.39063,-2.03125 0.40625,-0.84375 1.20312,-1.28125 0.8125,-0.45313 2,-0.45313 1.15625,0 1.9375,0.35938 0.79688,0.35937 1.17188,1.09375 0.375,0.73437 0.375,1.82812 v 1.03125 h -2.67188 v -1.10937 q 0,-0.48438 -0.0937,-0.75 -0.0781,-0.26563 -0.26562,-0.375 -0.17188,-0.125 -0.45313,-0.125 -0.28125,0 -0.45312,0.14062 -0.15625,0.14063 -0.23438,0.46875 -0.0781,0.32813 -0.0781,0.90625 v 4.23438 q 0,0.875 0.1875,1.1875 0.20312,0.3125 0.59375,0.3125 0.3125,0 0.46875,-0.125 0.17187,-0.14063 0.25,-0.42188 0.0781,-0.28125 0.0781,-0.70312 v -1.3125 h 2.67188 v 1.17187 q 0,1.07813 -0.39063,1.84375 -0.39062,0.75 -1.17187,1.125 -0.78125,0.375 -1.92188,0.375 z m 8.36661,-0.0781 q -1.125,0 -1.76562,-0.34375 -0.625,-0.34375 -0.875,-1 -0.23438,-0.65625 -0.23438,-1.57813 v -6.125 h -1.0625 v -1.84375 h 1.0625 v -3.26562 h 2.84375 v 3.26562 h 1.57813 v 1.84375 h -1.57813 v 5.85938 q 0,0.5 0.25,0.71875 0.26563,0.21875 0.70313,0.21875 0.23437,0 0.4375,-0.0312 0.20312,-0.0312 0.375,-0.0469 v 2.20313 q -0.26563,0.0312 -0.75,0.0781 -0.48438,0.0469 -0.98438,0.0469 z m 3.21463,-0.10938 v -10.78125 h 2.82813 v 10.78125 z m -0.0156,-12.5625 v -2.09375 h 2.84375 v 2.09375 z m 8.20092,12.75 q -1.15625,0 -1.98437,-0.42187 -0.82813,-0.42188 -1.25,-1.21875 -0.40625,-0.79688 -0.40625,-2 v -3.875 q 0,-1.20313 0.40625,-2 0.42187,-0.79688 1.25,-1.21875 0.82812,-0.42188 1.98437,-0.42188 1.15625,0 1.96875,0.42188 0.82813,0.42187 1.25,1.21875 0.4375,0.79687 0.4375,2 v 3.875 q 0,1.20312 -0.4375,2 -0.42187,0.79687 -1.25,1.21875 -0.8125,0.42187 -1.96875,0.42187 z m 0.0156,-1.90625 q 0.34375,0 0.53125,-0.1875 0.1875,-0.20312 0.25,-0.54687 0.0625,-0.34375 0.0625,-0.79688 v -4.26562 q 0,-0.46875 -0.0625,-0.79688 -0.0625,-0.34375 -0.25,-0.54687 -0.1875,-0.20313 -0.53125,-0.20313 -0.35938,0 -0.54688,0.20313 -0.1875,0.20312 -0.25,0.54687 -0.0625,0.32813 -0.0625,0.79688 v 4.26562 q 0,0.45313 0.0625,0.79688 0.0625,0.34375 0.25,0.54687 0.1875,0.1875 0.54688,0.1875 z m 5.34958,1.71875 v -10.78125 h 2.8125 v 1.07813 q 0.57812,-0.57813 1.21875,-0.92188 0.65625,-0.34375 1.375,-0.34375 0.67187,0 1.09375,0.34375 0.42187,0.32813 0.625,0.875 0.20312,0.54688 0.20312,1.25 v 8.5 h -2.79687 v -8.04687 q 0,-0.4375 -0.14063,-0.65625 -0.14062,-0.23438 -0.53125,-0.23438 -0.21875,0 -0.5,0.125 -0.26562,0.125 -0.54687,0.32813 v 8.48437 z"
       fill-rule="nonzero"
       id="path4052" />
    <path
       fill="#ffffff"
       d="m 211.48277,172.42607 q 0,-1.46875 0.39062,-2.82813 0.40625,-1.35937 1.1875,-2.45312 0.78125,-1.10938 1.60938,-1.5625 l 0.25,0.78125 q -0.95313,0.73437 -1.5625,2.23437 -0.59375,1.5 -0.65625,3.34375 l -0.0156,0.5625 q 0,2.51563 0.92188,4.35938 0.5625,1.10937 1.3125,1.73437 l -0.25,0.73438 q -0.85938,-0.48438 -1.64063,-1.625 -1.54687,-2.20313 -1.54687,-5.28125 z m 7.43051,2.98437 q 0.64063,0 1.125,-0.39062 0.48438,-0.39063 0.53125,-0.96875 h 1.14063 q -0.0312,0.60937 -0.42188,1.15625 -0.375,0.54687 -1.01562,0.875 -0.64063,0.3125 -1.35938,0.3125 -1.4375,0 -2.29687,-0.95313 -0.84375,-0.96875 -0.84375,-2.625 v -0.20312 q 0,-1.03125 0.375,-1.82813 0.39062,-0.79687 1.09375,-1.23437 0.70312,-0.45313 1.67187,-0.45313 1.17188,0 1.95313,0.71875 0.79687,0.70313 0.84375,1.82813 h -1.14063 q -0.0469,-0.67188 -0.51562,-1.10938 -0.46875,-0.45312 -1.14063,-0.45312 -0.92187,0 -1.4375,0.67187 -0.5,0.65625 -0.5,1.90625 v 0.21875 q 0,1.21875 0.5,1.875 0.51563,0.65625 1.4375,0.65625 z m 3.83582,-2.71875 q 0,-1.04687 0.40625,-1.875 0.40625,-0.82812 1.125,-1.26562 0.73437,-0.45313 1.65625,-0.45313 1.4375,0 2.32812,1 0.89063,0.98438 0.89063,2.64063 v 0.0937 q 0,1.01562 -0.39063,1.84375 -0.39062,0.8125 -1.125,1.26562 -0.73437,0.45313 -1.6875,0.45313 -1.42187,0 -2.3125,-0.98438 -0.89062,-1 -0.89062,-2.64062 z m 1.20312,0.14063 q 0,1.17187 0.54688,1.875 0.54687,0.70312 1.45312,0.70312 0.92188,0 1.45313,-0.71875 0.54687,-0.71875 0.54687,-2 0,-1.17187 -0.54687,-1.89062 -0.54688,-0.71875 -1.46875,-0.71875 -0.89063,0 -1.4375,0.71875 -0.54688,0.70312 -0.54688,2.03125 z m 8.02307,3.4375 h -1.20312 v -10 h 1.20312 z m 3.23442,0 h -1.20312 v -10 h 1.20312 z m 4.8438,0.125 q -1.42188,0 -2.32813,-0.9375 -0.89062,-0.9375 -0.89062,-2.51563 v -0.21875 q 0,-1.04687 0.39062,-1.85937 0.40625,-0.82813 1.125,-1.29688 0.71875,-0.46875 1.5625,-0.46875 1.375,0 2.125,0.90625 0.76563,0.90625 0.76563,2.59375 v 0.5 h -4.76563 q 0.0156,1.03125 0.59375,1.67188 0.59375,0.64062 1.48438,0.64062 0.64062,0 1.07812,-0.25 0.45313,-0.26562 0.78125,-0.6875 l 0.73438,0.5625 q -0.875,1.35938 -2.65625,1.35938 z m -0.14063,-6.3125 q -0.73437,0 -1.23437,0.53125 -0.48438,0.53125 -0.60938,1.48437 h 3.53125 v -0.0781 q -0.0469,-0.92188 -0.5,-1.42188 -0.4375,-0.51562 -1.1875,-0.51562 z m 7.10793,5.32812 q 0.64063,0 1.125,-0.39062 0.48438,-0.39063 0.53125,-0.96875 h 1.14063 q -0.0312,0.60937 -0.42188,1.15625 -0.375,0.54687 -1.01562,0.875 -0.64063,0.3125 -1.35938,0.3125 -1.4375,0 -2.29687,-0.95313 -0.84375,-0.96875 -0.84375,-2.625 v -0.20312 q 0,-1.03125 0.375,-1.82813 0.39062,-0.79687 1.09375,-1.23437 0.70312,-0.45313 1.67187,-0.45313 1.17188,0 1.95313,0.71875 0.79687,0.70313 0.84375,1.82813 h -1.14063 q -0.0469,-0.67188 -0.51562,-1.10938 -0.46875,-0.45312 -1.14063,-0.45312 -0.92187,0 -1.4375,0.67187 -0.5,0.65625 -0.5,1.90625 v 0.21875 q 0,1.21875 0.5,1.875 0.51563,0.65625 1.4375,0.65625 z m 5.78894,-7.89062 v 1.70312 h 1.3125 v 0.9375 h -1.3125 v 4.35938 q 0,0.42187 0.17188,0.64062 0.17187,0.21875 0.59375,0.21875 0.21875,0 0.57812,-0.0781 v 0.96875 q -0.46875,0.125 -0.92187,0.125 -0.8125,0 -1.21875,-0.48438 -0.40625,-0.48437 -0.40625,-1.39062 v -4.35938 h -1.28125 v -0.9375 h 1.28125 v -1.70312 z m 5.63504,8.875 q -1.42187,0 -2.32812,-0.9375 -0.89064,-0.9375 -0.89064,-2.51563 v -0.21875 q 0,-1.04687 0.39062,-1.85937 0.40627,-0.82813 1.12502,-1.29688 0.71875,-0.46875 1.5625,-0.46875 1.375,0 2.125,0.90625 0.76562,0.90625 0.76562,2.59375 v 0.5 h -4.76562 q 0.0156,1.03125 0.59375,1.67188 0.59375,0.64062 1.48437,0.64062 0.64063,0 1.07813,-0.25 0.45312,-0.26562 0.78125,-0.6875 l 0.73437,0.5625 q -0.875,1.35938 -2.65625,1.35938 z m -0.14062,-6.3125 q -0.73438,0 -1.23438,0.53125 -0.48437,0.53125 -0.60937,1.48437 h 3.53125 v -0.0781 q -0.0469,-0.92188 -0.5,-1.42188 -0.4375,-0.51562 -1.1875,-0.51562 z m 3.99853,2.60937 q 0,-1.625 0.76563,-2.60937 0.76562,-0.98438 2,-0.98438 1.25,0 1.96875,0.84375 v -3.67187 h 1.20312 v 10 h -1.10937 l -0.0625,-0.75 q -0.71875,0.875 -2,0.875 -1.23438,0 -2,-1 -0.76563,-1 -0.76563,-2.60938 z m 1.20313,0.14063 q 0,1.1875 0.48437,1.875 0.5,0.67187 1.375,0.67187 1.14063,0 1.67188,-1.03125 v -3.23437 q -0.54688,-1 -1.65625,-1 -0.89063,0 -1.39063,0.6875 -0.48437,0.6875 -0.48437,2.03125 z m 9.61297,-0.14063 q 0,-1.625 0.76563,-2.60937 0.76562,-0.98438 2,-0.98438 1.25,0 1.96875,0.84375 v -3.67187 h 1.20312 v 10 h -1.10937 l -0.0625,-0.75 q -0.71875,0.875 -2,0.875 -1.23438,0 -2,-1 -0.76563,-1 -0.76563,-2.60938 z m 1.20313,0.14063 q 0,1.1875 0.48437,1.875 0.5,0.67187 1.375,0.67187 1.14063,0 1.67188,-1.03125 v -3.23437 q -0.54688,-1 -1.65625,-1 -0.89063,0 -1.39063,0.6875 -0.48437,0.6875 -0.48437,2.03125 z m 10.9541,3.4375 q -0.10938,-0.20313 -0.17188,-0.73438 -0.84375,0.85938 -2.01562,0.85938 -1.03125,0 -1.70313,-0.57813 -0.67187,-0.59375 -0.67187,-1.5 0,-1.09375 0.82812,-1.70312 0.84375,-0.60938 2.35938,-0.60938 h 1.17187 v -0.5625 q 0,-0.625 -0.375,-1 -0.375,-0.375 -1.10937,-0.375 -0.64063,0 -1.07813,0.32813 -0.4375,0.32812 -0.4375,0.78125 h -1.20312 q 0,-0.51563 0.35937,-1 0.375,-0.5 1.01563,-0.78125 0.65625,-0.29688 1.42187,-0.29688 1.21875,0 1.90625,0.60938 0.6875,0.60937 0.71875,1.67187 v 3.25 q 0,0.96875 0.23438,1.53125 v 0.10938 z m -2,-0.92188 q 0.5625,0 1.0625,-0.28125 0.51562,-0.29687 0.73437,-0.76562 v -1.45313 h -0.9375 q -2.21875,0 -2.21875,1.29688 0,0.5625 0.375,0.89062 0.39063,0.3125 0.98438,0.3125 z m 6.53104,-7.82812 v 1.70312 h 1.3125 v 0.9375 h -1.3125 v 4.35938 q 0,0.42187 0.17187,0.64062 0.17188,0.21875 0.59375,0.21875 0.21875,0 0.57813,-0.0781 v 0.96875 q -0.46875,0.125 -0.92188,0.125 -0.8125,0 -1.21875,-0.48438 -0.40625,-0.48437 -0.40625,-1.39062 v -4.35938 h -1.28125 v -0.9375 h 1.28125 v -1.70312 z m 7.07251,8.75 q -0.10938,-0.20313 -0.17188,-0.73438 -0.84375,0.85938 -2.01562,0.85938 -1.03125,0 -1.70313,-0.57813 -0.67187,-0.59375 -0.67187,-1.5 0,-1.09375 0.82812,-1.70312 0.84375,-0.60938 2.35938,-0.60938 h 1.17187 v -0.5625 q 0,-0.625 -0.375,-1 -0.375,-0.375 -1.10937,-0.375 -0.64063,0 -1.07813,0.32813 -0.4375,0.32812 -0.4375,0.78125 h -1.20312 q 0,-0.51563 0.35937,-1 0.375,-0.5 1.01563,-0.78125 0.65625,-0.29688 1.42187,-0.29688 1.21875,0 1.90625,0.60938 0.6875,0.60937 0.71875,1.67187 v 3.25 q 0,0.96875 0.23438,1.53125 v 0.10938 z m -2,-0.92188 q 0.5625,0 1.0625,-0.28125 0.51562,-0.29687 0.73437,-0.76562 v -1.45313 h -0.9375 q -2.21875,0 -2.21875,1.29688 0,0.5625 0.375,0.89062 0.39063,0.3125 0.98438,0.3125 z m 7.67166,-2.85937 q 0,1.45312 -0.39063,2.78125 -0.375,1.32812 -1.15625,2.45312 -0.78125,1.125 -1.64062,1.60938 l -0.25,-0.73438 q 1,-0.76562 1.60937,-2.375 0.60938,-1.625 0.625,-3.60937 v -0.20313 q 0,-1.35937 -0.29687,-2.53125 -0.28125,-1.1875 -0.79688,-2.10937 -0.5,-0.9375 -1.14062,-1.45313 l 0.25,-0.73437 q 0.85937,0.46875 1.64062,1.59375 0.78125,1.10937 1.15625,2.45312 0.39063,1.32813 0.39063,2.85938 z"
       fill-rule="nonzero"
       id="path4054" />
    <path
       fill="#017ffd"
       d="M 514.82153,128.70604 H 687.76642 V 192.2336 H 514.82153 Z"
       fill-rule="evenodd"
       id="path4056" />
    <path
       stroke="#595959"
       stroke-width="1"
       stroke-linejoin="round"
       stroke-linecap="butt"
       d="M 514.82153,128.70604 H 687.76642 V 192.2336 H 514.82153 Z"
       fill-rule="evenodd"
       id="path4058" />
    <path
       fill="#ffffff"
       d="m 571.54913,159.38982 v -15.10938 h 2.14062 l 3.35938,7.875 v -7.875 h 2.53125 v 15.10938 h -2.04688 l -3.35937,-8.35938 v 8.35938 z m 13.55432,0.1875 q -1.1875,0 -2,-0.4375 -0.79687,-0.4375 -1.20312,-1.28125 -0.40625,-0.85938 -0.40625,-2.04688 v -3.625 q 0,-1.23437 0.40625,-2.0625 0.40625,-0.82812 1.21875,-1.26562 0.82812,-0.4375 1.98437,-0.4375 1.23438,0 2,0.45312 0.76563,0.4375 1.125,1.29688 0.375,0.85937 0.375,2.09375 v 1.875 h -4.32812 v 2.09375 q 0,0.46875 0.0937,0.76562 0.10937,0.29688 0.29687,0.42188 0.1875,0.125 0.46875,0.125 0.25,0 0.4375,-0.125 0.20313,-0.125 0.29688,-0.375 0.0937,-0.26563 0.0937,-0.70313 v -1.01562 h 2.60937 v 0.89062 q 0,1.64063 -0.89062,2.5 -0.89063,0.85938 -2.57813,0.85938 z m -0.82812,-6.76563 h 1.6875 v -1.07812 q 0,-0.45313 -0.0937,-0.73438 -0.0937,-0.29687 -0.29688,-0.42187 -0.1875,-0.125 -0.48437,-0.125 -0.28125,0 -0.45313,0.14062 -0.17187,0.125 -0.26562,0.45313 -0.0937,0.32812 -0.0937,0.92187 z m 9.25378,6.6875 q -1.125,0 -1.76563,-0.34375 -0.625,-0.34375 -0.875,-1 -0.23437,-0.65625 -0.23437,-1.57812 v -6.125 h -1.0625 v -1.84375 h 1.0625 v -3.26563 h 2.84375 v 3.26563 h 1.57812 v 1.84375 h -1.57812 v 5.85937 q 0,0.5 0.25,0.71875 0.26562,0.21875 0.70312,0.21875 0.23438,0 0.4375,-0.0312 0.20313,-0.0312 0.375,-0.0469 v 2.20312 q -0.26562,0.0312 -0.75,0.0781 -0.48437,0.0469 -0.98437,0.0469 z m 4.24585,-0.10937 -1.625,-10.78125 h 2.35937 l 0.85938,6.51562 0.96875,-6.51562 h 2.04687 l 0.875,6.625 0.96875,-6.625 h 2.20313 l -1.65625,10.78125 h -2.40625 l -1.04688,-6.40625 -1.14062,6.40625 z m 13.45984,0.1875 q -1.15625,0 -1.98438,-0.42188 -0.82812,-0.42187 -1.25,-1.21875 -0.40625,-0.79687 -0.40625,-2 v -3.875 q 0,-1.20312 0.40625,-2 0.42188,-0.79687 1.25,-1.21875 0.82813,-0.42187 1.98438,-0.42187 1.15625,0 1.96875,0.42187 0.82812,0.42188 1.25,1.21875 0.4375,0.79688 0.4375,2 v 3.875 q 0,1.20313 -0.4375,2 -0.42188,0.79688 -1.25,1.21875 -0.8125,0.42188 -1.96875,0.42188 z m 0.0156,-1.90625 q 0.34375,0 0.53125,-0.1875 0.1875,-0.20313 0.25,-0.54688 0.0625,-0.34375 0.0625,-0.79687 v -4.26563 q 0,-0.46875 -0.0625,-0.79687 -0.0625,-0.34375 -0.25,-0.54688 -0.1875,-0.20312 -0.53125,-0.20312 -0.35937,0 -0.54687,0.20312 -0.1875,0.20313 -0.25,0.54688 -0.0625,0.32812 -0.0625,0.79687 v 4.26563 q 0,0.45312 0.0625,0.79687 0.0625,0.34375 0.25,0.54688 0.1875,0.1875 0.54687,0.1875 z m 5.38086,1.71875 v -10.78125 h 2.82813 v 1.73437 q 0.53125,-0.95312 1.0625,-1.40625 0.53125,-0.45312 1.26562,-0.45312 0.125,0 0.23438,0.0156 0.10937,0 0.1875,0.0312 v 2.84375 q -0.20313,-0.0937 -0.46875,-0.15625 -0.25,-0.0781 -0.53125,-0.0781 -0.51563,0 -0.95313,0.28125 -0.42187,0.26562 -0.79687,0.76562 v 7.20313 z m 6.87158,0 v -15.10938 h 2.79688 v 8.5 l 2.70312,-4.17187 h 3.14063 l -2.79688,4.375 2.76563,6.40625 h -3.04688 l -1.92187,-5.20313 -0.84375,1.09375 v 4.10938 z"
       fill-rule="nonzero"
       id="path4060" />
    <path
       fill="#ffffff"
       d="m 534.42914,172.42607 q 0,-1.46875 0.39062,-2.82813 0.40625,-1.35937 1.1875,-2.45312 0.78125,-1.10938 1.60938,-1.5625 l 0.25,0.78125 q -0.95313,0.73437 -1.5625,2.23437 -0.59375,1.5 -0.65625,3.34375 l -0.0156,0.5625 q 0,2.51563 0.92188,4.35938 0.5625,1.10937 1.3125,1.73437 l -0.25,0.73438 q -0.85938,-0.48438 -1.64063,-1.625 -1.54687,-2.20313 -1.54687,-5.28125 z m 7.43048,2.98437 q 0.64063,0 1.125,-0.39062 0.48438,-0.39063 0.53125,-0.96875 h 1.14063 q -0.0312,0.60937 -0.42188,1.15625 -0.375,0.54687 -1.01562,0.875 -0.64063,0.3125 -1.35938,0.3125 -1.4375,0 -2.29687,-0.95313 -0.84375,-0.96875 -0.84375,-2.625 v -0.20312 q 0,-1.03125 0.375,-1.82813 0.39062,-0.79687 1.09375,-1.23437 0.70312,-0.45313 1.67187,-0.45313 1.17188,0 1.95313,0.71875 0.79687,0.70313 0.84375,1.82813 h -1.14063 q -0.0469,-0.67188 -0.51562,-1.10938 -0.46875,-0.45312 -1.14063,-0.45312 -0.92187,0 -1.4375,0.67187 -0.5,0.65625 -0.5,1.90625 v 0.21875 q 0,1.21875 0.5,1.875 0.51563,0.65625 1.4375,0.65625 z m 3.83582,-2.71875 q 0,-1.04687 0.40625,-1.875 0.40625,-0.82812 1.125,-1.26562 0.73437,-0.45313 1.65625,-0.45313 1.4375,0 2.32812,1 0.89063,0.98438 0.89063,2.64063 v 0.0937 q 0,1.01562 -0.39063,1.84375 -0.39062,0.8125 -1.125,1.26562 -0.73437,0.45313 -1.6875,0.45313 -1.42187,0 -2.3125,-0.98438 -0.89062,-1 -0.89062,-2.64062 z m 1.20312,0.14063 q 0,1.17187 0.54688,1.875 0.54687,0.70312 1.45312,0.70312 0.92188,0 1.45313,-0.71875 0.54687,-0.71875 0.54687,-2 0,-1.17187 -0.54687,-1.89062 -0.54688,-0.71875 -1.46875,-0.71875 -0.89063,0 -1.4375,0.71875 -0.54688,0.70312 -0.54688,2.03125 z m 7.8512,-3.60938 0.0312,0.78125 q 0.76562,-0.90625 2.09375,-0.90625 1.46875,0 2,1.125 0.35937,-0.5 0.92187,-0.8125 0.5625,-0.3125 1.32813,-0.3125 2.3125,0 2.35937,2.45313 v 4.71875 h -1.20312 v -4.64063 q 0,-0.76562 -0.34375,-1.14062 -0.34375,-0.375 -1.17188,-0.375 -0.65625,0 -1.10937,0.40625 -0.4375,0.40625 -0.51563,1.07812 v 4.67188 h -1.20312 v -4.60938 q 0,-1.54687 -1.5,-1.54687 -1.1875,0 -1.625,1.01562 v 5.14063 h -1.20313 v -7.04688 z m 11.68164,0 0.0312,0.78125 q 0.76562,-0.90625 2.09375,-0.90625 1.46875,0 2,1.125 0.35937,-0.5 0.92187,-0.8125 0.5625,-0.3125 1.32813,-0.3125 2.3125,0 2.35937,2.45313 v 4.71875 h -1.20312 v -4.64063 q 0,-0.76562 -0.34375,-1.14062 -0.34375,-0.375 -1.17188,-0.375 -0.65625,0 -1.10937,0.40625 -0.4375,0.40625 -0.51563,1.07812 v 4.67188 h -1.20312 v -4.60938 q 0,-1.54687 -1.5,-1.54687 -1.1875,0 -1.625,1.01562 v 5.14063 h -1.20313 v -7.04688 z m 10.22851,3.46875 q 0,-1.04687 0.40625,-1.875 0.40625,-0.82812 1.125,-1.26562 0.73438,-0.45313 1.65625,-0.45313 1.4375,0 2.32813,1 0.89062,0.98438 0.89062,2.64063 v 0.0937 q 0,1.01562 -0.39062,1.84375 -0.39063,0.8125 -1.125,1.26562 -0.73438,0.45313 -1.6875,0.45313 -1.42188,0 -2.3125,-0.98438 -0.89063,-1 -0.89063,-2.64062 z m 1.20313,0.14063 q 0,1.17187 0.54687,1.875 0.54688,0.70312 1.45313,0.70312 0.92187,0 1.45312,-0.71875 0.54688,-0.71875 0.54688,-2 0,-1.17187 -0.54688,-1.89062 -0.54687,-0.71875 -1.46875,-0.71875 -0.89062,0 -1.4375,0.71875 -0.54687,0.70312 -0.54687,2.03125 z m 7.8512,-3.60938 0.0469,0.89063 q 0.79688,-1.01563 2.10938,-1.01563 2.23437,0 2.25,2.51563 v 4.65625 h -1.20313 v -4.65625 q -0.0156,-0.76563 -0.35937,-1.125 -0.32813,-0.375 -1.0625,-0.375 -0.57813,0 -1.03125,0.3125 -0.4375,0.3125 -0.6875,0.82812 v 5.01563 h -1.20313 v -7.04688 z m 9.2315,3.46875 q 0,-1.625 0.76563,-2.60937 0.76562,-0.98438 2,-0.98438 1.25,0 1.96875,0.84375 v -3.67187 h 1.20312 v 10 h -1.10937 l -0.0625,-0.75 q -0.71875,0.875 -2,0.875 -1.23438,0 -2,-1 -0.76563,-1 -0.76563,-2.60938 z m 1.20313,0.14063 q 0,1.1875 0.48437,1.875 0.5,0.67187 1.375,0.67187 1.14063,0 1.67188,-1.03125 v -3.23437 q -0.54688,-1 -1.65625,-1 -0.89063,0 -1.39063,0.6875 -0.48437,0.6875 -0.48437,2.03125 z m 10.9541,3.4375 q -0.10938,-0.20313 -0.17188,-0.73438 -0.84375,0.85938 -2.01562,0.85938 -1.03125,0 -1.70313,-0.57813 -0.67187,-0.59375 -0.67187,-1.5 0,-1.09375 0.82812,-1.70312 0.84375,-0.60938 2.35938,-0.60938 h 1.17187 v -0.5625 q 0,-0.625 -0.375,-1 -0.375,-0.375 -1.10937,-0.375 -0.64063,0 -1.07813,0.32813 -0.4375,0.32812 -0.4375,0.78125 h -1.20312 q 0,-0.51563 0.35937,-1 0.375,-0.5 1.01563,-0.78125 0.65625,-0.29688 1.42187,-0.29688 1.21875,0 1.90625,0.60938 0.6875,0.60937 0.71875,1.67187 v 3.25 q 0,0.96875 0.23438,1.53125 v 0.10938 z m -2,-0.92188 q 0.5625,0 1.0625,-0.28125 0.51562,-0.29687 0.73437,-0.76562 v -1.45313 h -0.9375 q -2.21875,0 -2.21875,1.29688 0,0.5625 0.375,0.89062 0.39063,0.3125 0.98438,0.3125 z m 6.53107,-7.82812 v 1.70312 h 1.3125 v 0.9375 h -1.3125 v 4.35938 q 0,0.42187 0.17187,0.64062 0.17188,0.21875 0.59375,0.21875 0.21875,0 0.57813,-0.0781 v 0.96875 q -0.46875,0.125 -0.92188,0.125 -0.8125,0 -1.21875,-0.48438 -0.40625,-0.48437 -0.40625,-1.39062 v -4.35938 h -1.28125 v -0.9375 h 1.28125 v -1.70312 z m 7.07251,8.75 q -0.10938,-0.20313 -0.17188,-0.73438 -0.84375,0.85938 -2.01562,0.85938 -1.03125,0 -1.70313,-0.57813 -0.67187,-0.59375 -0.67187,-1.5 0,-1.09375 0.82812,-1.70312 0.84375,-0.60938 2.35938,-0.60938 h 1.17187 v -0.5625 q 0,-0.625 -0.375,-1 -0.375,-0.375 -1.10937,-0.375 -0.64063,0 -1.07813,0.32813 -0.4375,0.32812 -0.4375,0.78125 h -1.20312 q 0,-0.51563 0.35937,-1 0.375,-0.5 1.01563,-0.78125 0.65625,-0.29688 1.42187,-0.29688 1.21875,0 1.90625,0.60938 0.6875,0.60937 0.71875,1.67187 v 3.25 q 0,0.96875 0.23438,1.53125 v 0.10938 z m -2,-0.92188 q 0.5625,0 1.0625,-0.28125 0.51562,-0.29687 0.73437,-0.76562 v -1.45313 h -0.9375 q -2.21875,0 -2.21875,1.29688 0,0.5625 0.375,0.89062 0.39063,0.3125 0.98438,0.3125 z m 12.63,-6.125 0.0312,0.78125 q 0.76563,-0.90625 2.09375,-0.90625 1.46875,0 2,1.125 0.35938,-0.5 0.92188,-0.8125 0.5625,-0.3125 1.32812,-0.3125 2.3125,0 2.35938,2.45313 v 4.71875 h -1.20313 v -4.64063 q 0,-0.76562 -0.34375,-1.14062 -0.34375,-0.375 -1.17187,-0.375 -0.65625,0 -1.10938,0.40625 -0.4375,0.40625 -0.51562,1.07812 v 4.67188 H 632.524 v -4.60938 q 0,-1.54687 -1.5,-1.54687 -1.1875,0 -1.625,1.01562 v 5.14063 h -1.20312 v -7.04688 z m 10.22852,3.46875 q 0,-1.04687 0.40625,-1.875 0.40625,-0.82812 1.125,-1.26562 0.73437,-0.45313 1.65625,-0.45313 1.4375,0 2.32812,1 0.89063,0.98438 0.89063,2.64063 v 0.0937 q 0,1.01562 -0.39063,1.84375 -0.39062,0.8125 -1.125,1.26562 -0.73437,0.45313 -1.6875,0.45313 -1.42187,0 -2.3125,-0.98438 -0.89062,-1 -0.89062,-2.64062 z m 1.20312,0.14063 q 0,1.17187 0.54688,1.875 0.54687,0.70312 1.45312,0.70312 0.92188,0 1.45313,-0.71875 0.54687,-0.71875 0.54687,-2 0,-1.17187 -0.54687,-1.89062 -0.54688,-0.71875 -1.46875,-0.71875 -0.89063,0 -1.4375,0.71875 -0.54688,0.70312 -0.54688,2.03125 z m 6.42932,-0.14063 q 0,-1.625 0.76563,-2.60937 0.76562,-0.98438 2,-0.98438 1.25,0 1.96875,0.84375 v -3.67187 h 1.20312 v 10 h -1.10937 l -0.0625,-0.75 q -0.71875,0.875 -2,0.875 -1.23438,0 -2,-1 -0.76563,-1 -0.76563,-2.60938 z m 1.20313,0.14063 q 0,1.1875 0.48437,1.875 0.5,0.67187 1.375,0.67187 1.14063,0 1.67188,-1.03125 v -3.23437 q -0.54688,-1 -1.65625,-1 -0.89063,0 -1.39063,0.6875 -0.48437,0.6875 -0.48437,2.03125 z m 9.5166,3.5625 q -1.42187,0 -2.32812,-0.9375 -0.89063,-0.9375 -0.89063,-2.51563 v -0.21875 q 0,-1.04687 0.39063,-1.85937 0.40625,-0.82813 1.125,-1.29688 0.71875,-0.46875 1.5625,-0.46875 1.375,0 2.125,0.90625 0.76562,0.90625 0.76562,2.59375 v 0.5 h -4.76562 q 0.0156,1.03125 0.59375,1.67188 0.59375,0.64062 1.48437,0.64062 0.64063,0 1.07813,-0.25 0.45312,-0.26562 0.78125,-0.6875 l 0.73437,0.5625 q -0.875,1.35938 -2.65625,1.35938 z m -0.14062,-6.3125 q -0.73438,0 -1.23438,0.53125 -0.48437,0.53125 -0.60937,1.48437 h 3.53125 v -0.0781 q -0.0469,-0.92188 -0.5,-1.42188 -0.4375,-0.51562 -1.1875,-0.51562 z m 5.59228,6.1875 h -1.20312 v -10 h 1.20312 z m 4.70319,-3.78125 q 0,1.45312 -0.39063,2.78125 -0.375,1.32812 -1.15625,2.45312 -0.78125,1.125 -1.64062,1.60938 l -0.25,-0.73438 q 1,-0.76562 1.60937,-2.375 0.60938,-1.625 0.625,-3.60937 v -0.20313 q 0,-1.35937 -0.29687,-2.53125 -0.28125,-1.1875 -0.79688,-2.10937 -0.5,-0.9375 -1.14062,-1.45313 l 0.25,-0.73437 q 0.85937,0.46875 1.64062,1.59375 0.78125,1.10937 1.15625,2.45312 0.39063,1.32813 0.39063,2.85938 z"
       fill-rule="nonzero"
       id="path4062" />
    <path
       fill="#017ffd"
       d="m 170.58792,238.23622 h 172.94489 v 63.52757 H 170.58792 Z"
       fill-rule="evenodd"
       id="path4064" />
    <path
       stroke="#595959"
       stroke-width="1"
       stroke-linejoin="round"
       stroke-linecap="butt"
       d="m 170.58792,238.23622 h 172.94489 v 63.52757 H 170.58792 Z"
       fill-rule="evenodd"
       id="path4066" />
    <path
       fill="#ffffff"
       d="m 229.64761,268.91998 v -15.10936 h 3.6875 q 1.92187,0 3,0.5 1.07812,0.48437 1.51562,1.54687 0.45313,1.04686 0.45313,2.68749 v 5.5 q 0,1.6875 -0.45313,2.76562 -0.4375,1.07813 -1.5,1.59375 -1.04687,0.51563 -2.9375,0.51563 z m 3.07812,-2.14063 h 0.65625 q 0.85938,0 1.21875,-0.26562 0.35938,-0.28125 0.45313,-0.8125 0.0937,-0.53125 0.0937,-1.3125 v -6.23438 q 0,-0.78125 -0.125,-1.25 -0.10938,-0.48437 -0.48438,-0.70312 -0.35937,-0.23436 -1.1875,-0.23436 h -0.625 z m 9.58066,2.32813 q -0.76562,0 -1.3125,-0.39063 -0.54687,-0.39062 -0.82812,-0.98437 -0.28125,-0.60938 -0.28125,-1.23438 0,-1.01562 0.39062,-1.70312 0.39063,-0.6875 1.03125,-1.15625 0.64063,-0.46875 1.42188,-0.79688 0.78125,-0.34375 1.5625,-0.625 v -1 q 0,-0.35937 -0.0625,-0.60937 -0.0469,-0.26563 -0.20313,-0.40625 -0.15625,-0.14063 -0.46875,-0.14063 -0.29687,0 -0.45312,0.125 -0.15625,0.10938 -0.21875,0.34375 -0.0625,0.23438 -0.0937,0.51563 l -0.0469,0.75 -2.67187,-0.10938 q 0.0937,-1.90625 1,-2.8125 0.90625,-0.92187 2.73437,-0.92187 1.64063,0 2.42188,0.90625 0.78125,0.90625 0.78125,2.375 v 5.01562 q 0,0.64063 0.0312,1.14063 0.0312,0.48437 0.0781,0.875 0.0469,0.375 0.0781,0.65625 h -2.53125 q -0.0625,-0.40625 -0.14063,-0.89063 -0.0625,-0.48437 -0.10937,-0.65625 -0.1875,0.67188 -0.70313,1.20313 -0.51562,0.53125 -1.40625,0.53125 z m 1.03125,-2 q 0.20313,0 0.39063,-0.0937 0.1875,-0.0937 0.32812,-0.23438 0.14063,-0.15625 0.23438,-0.28125 v -2.96875 q -0.39063,0.23438 -0.73438,0.46875 -0.32812,0.23438 -0.57812,0.51563 -0.23438,0.28125 -0.375,0.625 -0.125,0.32812 -0.125,0.76562 0,0.54688 0.21875,0.875 0.23437,0.32813 0.64062,0.32813 z m 8.68166,1.92187 q -1.125,0 -1.76563,-0.34375 -0.625,-0.34375 -0.875,-1 -0.23437,-0.65625 -0.23437,-1.57812 v -6.125 h -1.0625 v -1.84375 h 1.0625 v -3.26561 h 2.84375 v 3.26561 h 1.57812 v 1.84375 h -1.57812 v 5.85937 q 0,0.5 0.25,0.71875 0.26562,0.21875 0.70312,0.21875 0.23438,0 0.4375,-0.0312 0.20313,-0.0312 0.375,-0.0469 v 2.20312 q -0.26562,0.0312 -0.75,0.0781 -0.48437,0.0469 -0.98437,0.0469 z m 5.32399,0.0781 q -0.76563,0 -1.3125,-0.39063 -0.54686,-0.39062 -0.82811,-0.98437 -0.28125,-0.60938 -0.28125,-1.23438 0,-1.01562 0.39062,-1.70312 0.39063,-0.6875 1.03124,-1.15625 0.64062,-0.46875 1.42187,-0.79688 0.78125,-0.34375 1.5625,-0.625 v -1 q 0,-0.35937 -0.0625,-0.60937 -0.0469,-0.26563 -0.20312,-0.40625 -0.15625,-0.14063 -0.46875,-0.14063 -0.29688,0 -0.45313,0.125 -0.15625,0.10938 -0.21875,0.34375 -0.0625,0.23438 -0.0937,0.51563 l -0.0469,0.75 -2.67186,-0.10938 q 0.0937,-1.90625 0.99998,-2.8125 0.90625,-0.92187 2.73438,-0.92187 1.64062,0 2.42187,0.90625 0.78125,0.90625 0.78125,2.375 v 5.01562 q 0,0.64063 0.0312,1.14063 0.0312,0.48437 0.0781,0.875 0.0469,0.375 0.0781,0.65625 h -2.53125 q -0.0625,-0.40625 -0.14062,-0.89063 -0.0625,-0.48437 -0.10938,-0.65625 -0.1875,0.67188 -0.70312,1.20313 -0.51563,0.53125 -1.40625,0.53125 z m 1.03125,-2 q 0.20312,0 0.39062,-0.0937 0.1875,-0.0937 0.32813,-0.23438 0.14062,-0.15625 0.23437,-0.28125 v -2.96875 q -0.39062,0.23438 -0.73437,0.46875 -0.32813,0.23438 -0.57813,0.51563 -0.23437,0.28125 -0.375,0.625 -0.125,0.32812 -0.125,0.76562 0,0.54688 0.21875,0.875 0.23438,0.32813 0.64063,0.32813 z m 8.64392,2 q -1.40625,0 -2.3125,-0.67188 -0.90625,-0.6875 -1.40625,-2.10937 l 1.98437,-0.82813 q 0.28125,0.79688 0.67188,1.23438 0.39062,0.4375 0.90625,0.4375 0.39062,0 0.57812,-0.17188 0.20313,-0.1875 0.20313,-0.5 0,-0.45312 -0.29688,-0.79687 -0.29687,-0.35938 -1.0625,-1 l -1,-0.85938 q -0.79687,-0.67187 -1.26562,-1.32812 -0.46875,-0.67188 -0.46875,-1.65625 0,-0.875 0.4375,-1.53125 0.4375,-0.65625 1.17187,-1.01563 0.73438,-0.35937 1.59375,-0.35937 1.32813,0 2.17188,0.76562 0.84375,0.75 1.14062,2.03125 l -1.82812,0.82813 q -0.10938,-0.42188 -0.29688,-0.78125 -0.1875,-0.35938 -0.48437,-0.59375 -0.28125,-0.25 -0.625,-0.25 -0.34375,0 -0.54688,0.20312 -0.20312,0.20313 -0.20312,0.51563 0,0.34375 0.34375,0.71875 0.34375,0.375 0.96875,0.89062 l 1,0.89063 q 0.45312,0.39062 0.875,0.82812 0.4375,0.4375 0.70312,0.96875 0.28125,0.53125 0.28125,1.23438 0,0.92187 -0.45312,1.57812 -0.4375,0.65625 -1.17188,1 -0.73437,0.32813 -1.60937,0.32813 z m 7.95502,0 q -1.1875,0 -2,-0.4375 -0.79688,-0.4375 -1.20313,-1.28125 -0.40625,-0.85938 -0.40625,-2.04688 v -3.625 q 0,-1.23437 0.40625,-2.0625 0.40625,-0.82812 1.21875,-1.26562 0.82813,-0.4375 1.98438,-0.4375 1.23437,0 2,0.45312 0.76562,0.4375 1.125,1.29688 0.375,0.85937 0.375,2.09375 v 1.875 h -4.32813 v 2.09375 q 0,0.46875 0.0937,0.76562 0.10938,0.29688 0.29688,0.42188 0.1875,0.125 0.46875,0.125 0.25,0 0.4375,-0.125 0.20312,-0.125 0.29687,-0.375 0.0937,-0.26563 0.0937,-0.70313 v -1.01562 h 2.60938 v 0.89062 q 0,1.64063 -0.89063,2.5 -0.89062,0.85938 -2.57812,0.85938 z m -0.82813,-6.76563 h 1.6875 v -1.07812 q 0,-0.45313 -0.0937,-0.73438 -0.0937,-0.29687 -0.29687,-0.42187 -0.1875,-0.125 -0.48438,-0.125 -0.28125,0 -0.45312,0.14062 -0.17188,0.125 -0.26563,0.45313 -0.0937,0.32812 -0.0937,0.92187 z m 9.25376,6.6875 q -1.125,0 -1.76563,-0.34375 -0.625,-0.34375 -0.875,-1 -0.23437,-0.65625 -0.23437,-1.57812 v -6.125 h -1.0625 v -1.84375 h 1.0625 v -3.26561 h 2.84375 v 3.26561 h 1.57812 v 1.84375 h -1.57812 v 5.85937 q 0,0.5 0.25,0.71875 0.26562,0.21875 0.70312,0.21875 0.23438,0 0.4375,-0.0312 0.20313,-0.0312 0.375,-0.0469 v 2.20312 q -0.26562,0.0312 -0.75,0.0781 -0.48437,0.0469 -0.98437,0.0469 z"
       fill-rule="nonzero"
       id="path4068" />
    <path
       fill="#ffffff"
       d="m 226.31749,281.95624 q 0,-1.46875 0.39062,-2.82813 0.40625,-1.35937 1.1875,-2.45312 0.78125,-1.10938 1.60938,-1.5625 l 0.25,0.78125 q -0.95313,0.73437 -1.5625,2.23437 -0.59375,1.5 -0.65625,3.34375 l -0.0156,0.5625 q 0,2.51563 0.92188,4.35938 0.5625,1.10937 1.3125,1.73437 l -0.25,0.73438 q -0.85938,-0.48438 -1.64063,-1.625 -1.54687,-2.20313 -1.54687,-5.28125 z m 7.43051,2.98437 q 0.64063,0 1.125,-0.39062 0.48438,-0.39063 0.53125,-0.96875 h 1.14063 q -0.0312,0.60937 -0.42188,1.15625 -0.375,0.54687 -1.01562,0.875 -0.64063,0.3125 -1.35938,0.3125 -1.4375,0 -2.29687,-0.95313 -0.84375,-0.96875 -0.84375,-2.625 v -0.20312 q 0,-1.03125 0.375,-1.82813 0.39062,-0.79687 1.09375,-1.23437 0.70312,-0.45313 1.67187,-0.45313 1.17188,0 1.95313,0.71875 0.79687,0.70313 0.84375,1.82813 h -1.14063 q -0.0469,-0.67188 -0.51562,-1.10938 -0.46875,-0.45312 -1.14063,-0.45312 -0.92187,0 -1.4375,0.67187 -0.5,0.65625 -0.5,1.90625 v 0.21875 q 0,1.21875 0.5,1.875 0.51563,0.65625 1.4375,0.65625 z m 3.83582,-2.71875 q 0,-1.04687 0.40625,-1.875 0.40625,-0.82812 1.125,-1.26562 0.73437,-0.45313 1.65625,-0.45313 1.4375,0 2.32812,1 0.89063,0.98438 0.89063,2.64063 v 0.0937 q 0,1.01562 -0.39063,1.84375 -0.39062,0.8125 -1.125,1.26562 -0.73437,0.45313 -1.6875,0.45313 -1.42187,0 -2.3125,-0.98438 -0.89062,-1 -0.89062,-2.64062 z m 1.20312,0.14063 q 0,1.17187 0.54688,1.875 0.54687,0.70312 1.45312,0.70312 0.92188,0 1.45313,-0.71875 0.54687,-0.71875 0.54687,-2 0,-1.17187 -0.54687,-1.89062 -0.54688,-0.71875 -1.46875,-0.71875 -0.89063,0 -1.4375,0.71875 -0.54688,0.70312 -0.54688,2.03125 z m 8.02307,3.4375 h -1.20312 v -10 h 1.20312 z m 3.23442,0 h -1.20312 v -10 h 1.20312 z m 4.8438,0.125 q -1.42188,0 -2.32813,-0.9375 -0.89062,-0.9375 -0.89062,-2.51563 v -0.21875 q 0,-1.04687 0.39062,-1.85937 0.40625,-0.82813 1.125,-1.29688 0.71875,-0.46875 1.5625,-0.46875 1.37499,0 2.12499,0.90625 0.76562,0.90625 0.76562,2.59375 v 0.5 h -4.76561 q 0.0156,1.03125 0.59375,1.67188 0.59375,0.64062 1.48438,0.64062 0.64062,0 1.07811,-0.25 0.45312,-0.26562 0.78125,-0.6875 l 0.73437,0.5625 q -0.875,1.35938 -2.65623,1.35938 z m -0.14063,-6.3125 q -0.73437,0 -1.23437,0.53125 -0.48438,0.53125 -0.60938,1.48437 h 3.53124 v -0.0781 q -0.0469,-0.92188 -0.49999,-1.42188 -0.4375,-0.51562 -1.1875,-0.51562 z m 7.10793,5.32812 q 0.64063,0 1.125,-0.39062 0.48438,-0.39063 0.53125,-0.96875 h 1.14063 q -0.0312,0.60937 -0.42188,1.15625 -0.375,0.54687 -1.01562,0.875 -0.64063,0.3125 -1.35938,0.3125 -1.4375,0 -2.29687,-0.95313 -0.84375,-0.96875 -0.84375,-2.625 v -0.20312 q 0,-1.03125 0.375,-1.82813 0.39062,-0.79687 1.09375,-1.23437 0.70312,-0.45313 1.67187,-0.45313 1.17188,0 1.95313,0.71875 0.79687,0.70313 0.84375,1.82813 h -1.14063 q -0.0469,-0.67188 -0.51562,-1.10938 -0.46875,-0.45312 -1.14063,-0.45312 -0.92187,0 -1.4375,0.67187 -0.5,0.65625 -0.5,1.90625 v 0.21875 q 0,1.21875 0.5,1.875 0.51563,0.65625 1.4375,0.65625 z m 5.78894,-7.89062 v 1.70312 h 1.3125 v 0.9375 h -1.3125 v 4.35938 q 0,0.42187 0.17188,0.64062 0.17187,0.21875 0.59375,0.21875 0.21875,0 0.57812,-0.0781 v 0.96875 q -0.46875,0.125 -0.92187,0.125 -0.8125,0 -1.21875,-0.48438 -0.40625,-0.48437 -0.40625,-1.39062 v -4.35938 h -1.28125 v -0.9375 h 1.28125 v -1.70312 z m 5.63501,8.875 q -1.42187,0 -2.32812,-0.9375 -0.89063,-0.9375 -0.89063,-2.51563 v -0.21875 q 0,-1.04687 0.39063,-1.85937 0.40625,-0.82813 1.125,-1.29688 0.71875,-0.46875 1.5625,-0.46875 1.375,0 2.125,0.90625 0.76562,0.90625 0.76562,2.59375 v 0.5 h -4.76562 q 0.0156,1.03125 0.59375,1.67188 0.59375,0.64062 1.48437,0.64062 0.64063,0 1.07813,-0.25 0.45312,-0.26562 0.78125,-0.6875 l 0.73437,0.5625 q -0.875,1.35938 -2.65625,1.35938 z m -0.14062,-6.3125 q -0.73438,0 -1.23438,0.53125 -0.48437,0.53125 -0.60937,1.48437 h 3.53125 v -0.0781 q -0.0469,-0.92188 -0.5,-1.42188 -0.4375,-0.51562 -1.1875,-0.51562 z m 3.99856,2.60937 q 0,-1.625 0.76563,-2.60937 0.76562,-0.98438 2,-0.98438 1.25,0 1.96875,0.84375 v -3.67187 h 1.20312 v 10 h -1.10937 l -0.0625,-0.75 q -0.71875,0.875 -2,0.875 -1.23438,0 -2,-1 -0.76563,-1 -0.76563,-2.60938 z m 1.20313,0.14063 q 0,1.1875 0.48437,1.875 0.5,0.67187 1.375,0.67187 1.14063,0 1.67188,-1.03125 v -3.23437 q -0.54688,-1 -1.65625,-1 -0.89063,0 -1.39063,0.6875 -0.48437,0.6875 -0.48437,2.03125 z m 9.37597,-0.34375 q 0,1.45312 -0.39062,2.78125 -0.375,1.32812 -1.15625,2.45312 -0.78125,1.125 -1.64063,1.60938 l -0.25,-0.73438 q 1,-0.76562 1.60938,-2.375 0.60937,-1.625 0.625,-3.60937 v -0.20313 q 0,-1.35937 -0.29688,-2.53125 -0.28125,-1.1875 -0.79687,-2.10937 -0.5,-0.9375 -1.14063,-1.45313 l 0.25,-0.73437 q 0.85938,0.46875 1.64063,1.59375 0.78125,1.10937 1.15625,2.45312 0.39062,1.32813 0.39062,2.85938 z"
       fill-rule="nonzero"
       id="path4070" />
    <path
       fill="#017ffd"
       d="m 514.82153,238.23622 h 172.94489 v 63.52757 H 514.82153 Z"
       fill-rule="evenodd"
       id="path4072" />
    <path
       stroke="#595959"
       stroke-width="1"
       stroke-linejoin="round"
       stroke-linecap="butt"
       d="m 514.82153,238.23622 h 172.94489 v 63.52757 H 514.82153 Z"
       fill-rule="evenodd"
       id="path4074" />
    <path
       fill="#ffffff"
       d="m 573.8812,268.91998 v -15.10936 h 3.6875 q 1.92188,0 3,0.5 1.07813,0.48437 1.51563,1.54687 0.45312,1.04686 0.45312,2.68749 v 5.5 q 0,1.6875 -0.45312,2.76562 -0.4375,1.07813 -1.5,1.59375 -1.04688,0.51563 -2.9375,0.51563 z m 3.07813,-2.14063 h 0.65625 q 0.85937,0 1.21875,-0.26562 0.35937,-0.28125 0.45312,-0.8125 0.0937,-0.53125 0.0937,-1.3125 v -6.23438 q 0,-0.78125 -0.125,-1.25 -0.10937,-0.48437 -0.48437,-0.70312 -0.35938,-0.23436 -1.1875,-0.23436 h -0.625 z m 9.58062,2.32813 q -0.76562,0 -1.3125,-0.39063 -0.54687,-0.39062 -0.82812,-0.98437 -0.28125,-0.60938 -0.28125,-1.23438 0,-1.01562 0.39062,-1.70312 0.39063,-0.6875 1.03125,-1.15625 0.64063,-0.46875 1.42188,-0.79688 0.78125,-0.34375 1.5625,-0.625 v -1 q 0,-0.35937 -0.0625,-0.60937 -0.0469,-0.26563 -0.20313,-0.40625 -0.15625,-0.14063 -0.46875,-0.14063 -0.29687,0 -0.45312,0.125 -0.15625,0.10938 -0.21875,0.34375 -0.0625,0.23438 -0.0937,0.51563 l -0.0469,0.75 -2.67187,-0.10938 q 0.0937,-1.90625 1,-2.8125 0.90625,-0.92187 2.73437,-0.92187 1.64063,0 2.42188,0.90625 0.78125,0.90625 0.78125,2.375 v 5.01562 q 0,0.64063 0.0312,1.14063 0.0312,0.48437 0.0781,0.875 0.0469,0.375 0.0781,0.65625 h -2.53125 q -0.0625,-0.40625 -0.14063,-0.89063 -0.0625,-0.48437 -0.10937,-0.65625 -0.1875,0.67188 -0.70313,1.20313 -0.51562,0.53125 -1.40625,0.53125 z m 1.03125,-2 q 0.20313,0 0.39063,-0.0937 0.1875,-0.0937 0.32812,-0.23438 0.14063,-0.15625 0.23438,-0.28125 v -2.96875 q -0.39063,0.23438 -0.73438,0.46875 -0.32812,0.23438 -0.57812,0.51563 -0.23438,0.28125 -0.375,0.625 -0.125,0.32812 -0.125,0.76562 0,0.54688 0.21875,0.875 0.23437,0.32813 0.64062,0.32813 z m 8.68164,1.92187 q -1.125,0 -1.76562,-0.34375 -0.625,-0.34375 -0.875,-1 -0.23438,-0.65625 -0.23438,-1.57812 v -6.125 h -1.0625 v -1.84375 h 1.0625 v -3.26561 h 2.84375 v 3.26561 h 1.57813 v 1.84375 h -1.57813 v 5.85937 q 0,0.5 0.25,0.71875 0.26563,0.21875 0.70313,0.21875 0.23437,0 0.4375,-0.0312 0.20312,-0.0312 0.375,-0.0469 v 2.20312 q -0.26563,0.0312 -0.75,0.0781 -0.48438,0.0469 -0.98438,0.0469 z m 5.32404,0.0781 q -0.76563,0 -1.3125,-0.39063 -0.54688,-0.39062 -0.82813,-0.98437 -0.28125,-0.60938 -0.28125,-1.23438 0,-1.01562 0.39063,-1.70312 0.39062,-0.6875 1.03125,-1.15625 0.64062,-0.46875 1.42187,-0.79688 0.78125,-0.34375 1.5625,-0.625 v -1 q 0,-0.35937 -0.0625,-0.60937 -0.0469,-0.26563 -0.20312,-0.40625 -0.15625,-0.14063 -0.46875,-0.14063 -0.29688,0 -0.45313,0.125 -0.15625,0.10938 -0.21875,0.34375 -0.0625,0.23438 -0.0937,0.51563 l -0.0469,0.75 -2.67188,-0.10938 q 0.0937,-1.90625 1,-2.8125 0.90625,-0.92187 2.73438,-0.92187 1.64062,0 2.42187,0.90625 0.78125,0.90625 0.78125,2.375 v 5.01562 q 0,0.64063 0.0312,1.14063 0.0312,0.48437 0.0781,0.875 0.0469,0.375 0.0781,0.65625 h -2.53125 q -0.0625,-0.40625 -0.14062,-0.89063 -0.0625,-0.48437 -0.10938,-0.65625 -0.1875,0.67188 -0.70312,1.20313 -0.51563,0.53125 -1.40625,0.53125 z m 1.03125,-2 q 0.20312,0 0.39062,-0.0937 0.1875,-0.0937 0.32813,-0.23438 0.14062,-0.15625 0.23437,-0.28125 v -2.96875 q -0.39062,0.23438 -0.73437,0.46875 -0.32813,0.23438 -0.57813,0.51563 -0.23437,0.28125 -0.375,0.625 -0.125,0.32812 -0.125,0.76562 0,0.54688 0.21875,0.875 0.23438,0.32813 0.64063,0.32813 z m 8.64392,2 q -1.40625,0 -2.3125,-0.67188 -0.90625,-0.6875 -1.40625,-2.10937 l 1.98437,-0.82813 q 0.28125,0.79688 0.67188,1.23438 0.39062,0.4375 0.90625,0.4375 0.39062,0 0.57812,-0.17188 0.20313,-0.1875 0.20313,-0.5 0,-0.45312 -0.29688,-0.79687 -0.29687,-0.35938 -1.0625,-1 l -1,-0.85938 q -0.79687,-0.67187 -1.26562,-1.32812 -0.46875,-0.67188 -0.46875,-1.65625 0,-0.875 0.4375,-1.53125 0.4375,-0.65625 1.17187,-1.01563 0.73438,-0.35937 1.59375,-0.35937 1.32813,0 2.17188,0.76562 0.84375,0.75 1.14062,2.03125 l -1.82812,0.82813 q -0.10938,-0.42188 -0.29688,-0.78125 -0.1875,-0.35938 -0.48437,-0.59375 -0.28125,-0.25 -0.625,-0.25 -0.34375,0 -0.54688,0.20312 -0.20312,0.20313 -0.20312,0.51563 0,0.34375 0.34375,0.71875 0.34375,0.375 0.96875,0.89062 l 1,0.89063 q 0.45312,0.39062 0.875,0.82812 0.4375,0.4375 0.70312,0.96875 0.28125,0.53125 0.28125,1.23438 0,0.92187 -0.45312,1.57812 -0.4375,0.65625 -1.17188,1 -0.73437,0.32813 -1.60937,0.32813 z m 7.95502,0 q -1.1875,0 -2,-0.4375 -0.79688,-0.4375 -1.20313,-1.28125 -0.40625,-0.85938 -0.40625,-2.04688 v -3.625 q 0,-1.23437 0.40625,-2.0625 0.40625,-0.82812 1.21875,-1.26562 0.82813,-0.4375 1.98438,-0.4375 1.23437,0 2,0.45312 0.76562,0.4375 1.125,1.29688 0.375,0.85937 0.375,2.09375 v 1.875 h -4.32813 v 2.09375 q 0,0.46875 0.0937,0.76562 0.10938,0.29688 0.29688,0.42188 0.1875,0.125 0.46875,0.125 0.25,0 0.4375,-0.125 0.20312,-0.125 0.29687,-0.375 0.0937,-0.26563 0.0937,-0.70313 v -1.01562 h 2.60938 v 0.89062 q 0,1.64063 -0.89063,2.5 -0.89062,0.85938 -2.57812,0.85938 z m -0.82813,-6.76563 h 1.6875 v -1.07812 q 0,-0.45313 -0.0937,-0.73438 -0.0937,-0.29687 -0.29687,-0.42187 -0.1875,-0.125 -0.48438,-0.125 -0.28125,0 -0.45312,0.14062 -0.17188,0.125 -0.26563,0.45313 -0.0937,0.32812 -0.0937,0.92187 z m 9.25372,6.6875 q -1.125,0 -1.76562,-0.34375 -0.625,-0.34375 -0.875,-1 -0.23438,-0.65625 -0.23438,-1.57812 v -6.125 h -1.0625 v -1.84375 h 1.0625 v -3.26561 h 2.84375 v 3.26561 h 1.57813 v 1.84375 h -1.57813 v 5.85937 q 0,0.5 0.25,0.71875 0.26563,0.21875 0.70313,0.21875 0.23437,0 0.4375,-0.0312 0.20312,-0.0312 0.375,-0.0469 v 2.20312 q -0.26563,0.0312 -0.75,0.0781 -0.48438,0.0469 -0.98438,0.0469 z"
       fill-rule="nonzero"
       id="path4076" />
    <path
       fill="#ffffff"
       d="m 562.3479,281.95624 q 0,-1.46875 0.39062,-2.82813 0.40625,-1.35937 1.1875,-2.45312 0.78125,-1.10938 1.60938,-1.5625 l 0.25,0.78125 q -0.95313,0.73437 -1.5625,2.23437 -0.59375,1.5 -0.65625,3.34375 l -0.0156,0.5625 q 0,2.51563 0.92188,4.35938 0.5625,1.10937 1.3125,1.73437 l -0.25,0.73438 q -0.85938,-0.48438 -1.64063,-1.625 -1.54687,-2.20313 -1.54687,-5.28125 z m 5.80554,-2.34375 q 0.8125,-0.98438 2.09375,-0.98438 2.23438,0 2.25,2.51563 v 4.65625 h -1.20312 v -4.65625 q -0.0156,-0.76563 -0.35938,-1.125 -0.32812,-0.375 -1.0625,-0.375 -0.57812,0 -1.03125,0.3125 -0.4375,0.3125 -0.6875,0.82812 v 5.01563 h -1.20312 v -10 h 1.20312 z m 10.49713,6.1875 q -0.10937,-0.20313 -0.17187,-0.73438 -0.84375,0.85938 -2.01563,0.85938 -1.03125,0 -1.70312,-0.57813 -0.67188,-0.59375 -0.67188,-1.5 0,-1.09375 0.82813,-1.70312 0.84375,-0.60938 2.35937,-0.60938 h 1.17188 v -0.5625 q 0,-0.625 -0.375,-1 -0.375,-0.375 -1.10938,-0.375 -0.64062,0 -1.07812,0.32813 -0.4375,0.32812 -0.4375,0.78125 h -1.20313 q 0,-0.51563 0.35938,-1 0.375,-0.5 1.01562,-0.78125 0.65625,-0.29688 1.42188,-0.29688 1.21875,0 1.90625,0.60938 0.6875,0.60937 0.71875,1.67187 v 3.25 q 0,0.96875 0.23437,1.53125 v 0.10938 z m -2,-0.92188 q 0.5625,0 1.0625,-0.28125 0.51563,-0.29687 0.73438,-0.76562 v -1.45313 h -0.9375 q -2.21875,0 -2.21875,1.29688 0,0.5625 0.375,0.89062 0.39062,0.3125 0.98437,0.3125 z m 8.29663,-5.04687 q -0.26562,-0.0312 -0.59375,-0.0312 -1.1875,0 -1.60937,1 v 5 h -1.20313 v -7.04688 h 1.17188 l 0.0312,0.8125 q 0.57812,-0.9375 1.67187,-0.9375 0.34375,0 0.53125,0.0937 z m 2.24433,-1.07813 0.0312,0.78125 q 0.76562,-0.90625 2.09375,-0.90625 1.46875,0 2,1.125 0.35937,-0.5 0.92187,-0.8125 0.5625,-0.3125 1.32813,-0.3125 2.3125,0 2.35937,2.45313 v 4.71875 h -1.20312 v -4.64063 q 0,-0.76562 -0.34375,-1.14062 -0.34375,-0.375 -1.17188,-0.375 -0.65625,0 -1.10937,0.40625 -0.4375,0.40625 -0.51563,1.07812 v 4.67188 h -1.20312 v -4.60938 q 0,-1.54687 -1.5,-1.54687 -1.1875,0 -1.625,1.01562 v 5.14063 h -1.20313 v -7.04688 z m 10.22851,3.46875 q 0,-1.04687 0.40625,-1.875 0.40625,-0.82812 1.125,-1.26562 0.73438,-0.45313 1.65625,-0.45313 1.4375,0 2.32813,1 0.89062,0.98438 0.89062,2.64063 v 0.0937 q 0,1.01562 -0.39062,1.84375 -0.39063,0.8125 -1.125,1.26562 -0.73438,0.45313 -1.6875,0.45313 -1.42188,0 -2.3125,-0.98438 -0.89063,-1 -0.89063,-2.64062 z m 1.20313,0.14063 q 0,1.17187 0.54687,1.875 0.54688,0.70312 1.45313,0.70312 0.92187,0 1.45312,-0.71875 0.54688,-0.71875 0.54688,-2 0,-1.17187 -0.54688,-1.89062 -0.54687,-0.71875 -1.46875,-0.71875 -0.89062,0 -1.4375,0.71875 -0.54687,0.70312 -0.54687,2.03125 z m 7.85119,-3.60938 0.0469,0.89063 q 0.79687,-1.01563 2.10937,-1.01563 2.23438,0 2.25,2.51563 v 4.65625 h -1.20312 v -4.65625 q -0.0156,-0.76563 -0.35938,-1.125 -0.32812,-0.375 -1.0625,-0.375 -0.57812,0 -1.03125,0.3125 -0.4375,0.3125 -0.6875,0.82812 v 5.01563 h -1.20312 v -7.04688 z m 7.52576,7.04688 H 612.797 v -7.04688 h 1.20312 z m -1.29687,-8.90625 q 0,-0.29688 0.17187,-0.5 0.1875,-0.20313 0.53125,-0.20313 0.35938,0 0.53125,0.20313 0.1875,0.20312 0.1875,0.5 0,0.29687 -0.1875,0.5 -0.17187,0.1875 -0.53125,0.1875 -0.34375,0 -0.53125,-0.1875 -0.17187,-0.20313 -0.17187,-0.5 z m 7.32818,7.03125 q 0,-0.48438 -0.375,-0.75 -0.35937,-0.26563 -1.28125,-0.45313 -0.90625,-0.20312 -1.45312,-0.46875 -0.53125,-0.28125 -0.79688,-0.65625 -0.25,-0.39062 -0.25,-0.90625 0,-0.85937 0.73438,-1.45312 0.73437,-0.60938 1.875,-0.60938 1.1875,0 1.9375,0.625 0.75,0.60938 0.75,1.57813 h -1.21875 q 0,-0.5 -0.42188,-0.85938 -0.42187,-0.35937 -1.04687,-0.35937 -0.65625,0 -1.03125,0.29687 -0.375,0.28125 -0.375,0.75 0,0.42188 0.34375,0.65625 0.34375,0.21875 1.25,0.42188 0.90625,0.20312 1.45312,0.48437 0.5625,0.26563 0.82813,0.67188 0.28125,0.39062 0.28125,0.95312 0,0.9375 -0.76563,1.51563 -0.75,0.5625 -1.95312,0.5625 -0.84375,0 -1.5,-0.29688 -0.64063,-0.29687 -1.01563,-0.82812 -0.35937,-0.54688 -0.35937,-1.17188 h 1.20312 q 0.0312,0.60938 0.48438,0.96875 0.45312,0.34375 1.1875,0.34375 0.6875,0 1.09375,-0.26562 0.42187,-0.28125 0.42187,-0.75 z m 5.68482,2 q -1.42188,0 -2.32813,-0.9375 -0.89062,-0.9375 -0.89062,-2.51563 v -0.21875 q 0,-1.04687 0.39062,-1.85937 0.40625,-0.82813 1.125,-1.29688 0.71875,-0.46875 1.5625,-0.46875 1.375,0 2.125,0.90625 0.76563,0.90625 0.76563,2.59375 v 0.5 h -4.76563 q 0.0156,1.03125 0.59375,1.67188 0.59375,0.64062 1.48438,0.64062 0.64062,0 1.07812,-0.25 0.45313,-0.26562 0.78125,-0.6875 l 0.73438,0.5625 q -0.875,1.35938 -2.65625,1.35938 z m -0.14063,-6.3125 q -0.73437,0 -1.23437,0.53125 -0.48438,0.53125 -0.60938,1.48437 h 3.53125 v -0.0781 q -0.0469,-0.92188 -0.5,-1.42188 -0.4375,-0.51562 -1.1875,-0.51562 z m 3.99854,2.60937 q 0,-1.625 0.76562,-2.60937 0.76563,-0.98438 2,-0.98438 1.25,0 1.96875,0.84375 v -3.67187 h 1.20313 v 10 h -1.10938 l -0.0625,-0.75 q -0.71875,0.875 -2,0.875 -1.23437,0 -2,-1 -0.76562,-1 -0.76562,-2.60938 z m 1.20312,0.14063 q 0,1.1875 0.48438,1.875 0.5,0.67187 1.375,0.67187 1.14062,0 1.67187,-1.03125 v -3.23437 q -0.54687,-1 -1.65625,-1 -0.89062,0 -1.39062,0.6875 -0.48438,0.6875 -0.48438,2.03125 z m 9.37598,-0.34375 q 0,1.45312 -0.39063,2.78125 -0.375,1.32812 -1.15625,2.45312 -0.78125,1.125 -1.64062,1.60938 l -0.25,-0.73438 q 1,-0.76562 1.60937,-2.375 0.60938,-1.625 0.625,-3.60937 v -0.20313 q 0,-1.35937 -0.29687,-2.53125 -0.28125,-1.1875 -0.79688,-2.10937 -0.5,-0.9375 -1.14062,-1.45313 l 0.25,-0.73437 q 0.85937,0.46875 1.64062,1.59375 0.78125,1.10937 1.15625,2.45312 0.39063,1.32813 0.39063,2.85938 z"
       fill-rule="nonzero"
       id="path4078" />
    <path
       fill="#000000"
       fill-opacity="0"
       d="M 343.5328,270 H 514.8084"
       fill-rule="evenodd"
       id="path4080" />
    <path
       stroke="#595959"
       stroke-width="1"
       stroke-linejoin="round"
       stroke-linecap="butt"
       d="M 349.5328,270 H 508.8084"
       fill-rule="evenodd"
       id="path4082" />
    <path
       fill="#595959"
       stroke="#595959"
       stroke-width="1"
       stroke-linecap="butt"
       d="M 349.5328,268.34827 344.99471,270 l 4.53809,1.65174 z"
       fill-rule="evenodd"
       id="path4084" />
    <path
       fill="#595959"
       stroke="#595959"
       stroke-width="1"
       stroke-linecap="butt"
       d="M 508.8084,271.65173 513.34649,270 508.8084,268.34826 Z"
       fill-rule="evenodd"
       id="path4086" />
    <path
       fill="#000000"
       fill-opacity="0"
       d="M 355.24014,244.07874 H 503.11416 V 278 H 355.24014 Z"
       fill-rule="evenodd"
       id="path4088" />
    <path
       fill="#000000"
       d="m 369.98282,264.59875 v -8.53125 h 2.42187 q 1.10938,0 1.95313,0.5 0.85937,0.48437 1.32812,1.39062 0.46875,0.90625 0.46875,2.09375 v 0.53125 q 0,1.21875 -0.46875,2.125 -0.45312,0.90625 -1.32812,1.39063 -0.85938,0.48437 -2,0.5 z m 1.125,-7.60938 v 6.6875 h 1.1875 q 1.29687,0 2.01562,-0.79687 0.73438,-0.8125 0.73438,-2.3125 v -0.5 q 0,-1.45313 -0.6875,-2.25 -0.67188,-0.8125 -1.9375,-0.82813 z m 10.49414,7.60938 q -0.0937,-0.1875 -0.15625,-0.67188 -0.75,0.79688 -1.79687,0.79688 -0.9375,0 -1.54688,-0.53125 -0.59375,-0.53125 -0.59375,-1.35938 0,-0.98437 0.75,-1.53125 0.75,-0.54687 2.125,-0.54687 h 1.04688 v -0.5 q 0,-0.5625 -0.34375,-0.89063 -0.32813,-0.34375 -1,-0.34375 -0.57813,0 -0.96875,0.29688 -0.39063,0.28125 -0.39063,0.70312 h -1.09375 q 0,-0.48437 0.32813,-0.92187 0.34375,-0.4375 0.92187,-0.6875 0.57813,-0.26563 1.26563,-0.26563 1.10937,0 1.71875,0.54688 0.625,0.54687 0.65625,1.5 v 2.92187 q 0,0.875 0.21875,1.39063 v 0.0937 z m -1.79687,-0.82813 q 0.51562,0 0.96875,-0.26562 0.45312,-0.26563 0.65625,-0.6875 v -1.29688 h -0.84375 q -2,0 -2,1.17188 0,0.5 0.34375,0.79687 0.34375,0.28125 0.875,0.28125 z m 5.88671,-7.04687 v 1.53125 h 1.17188 v 0.84375 h -1.17188 v 3.92187 q 0,0.39063 0.15625,0.57813 0.15625,0.1875 0.53125,0.1875 0.1875,0 0.51563,-0.0625 v 0.875 q -0.42188,0.125 -0.82813,0.125 -0.71875,0 -1.09375,-0.4375 -0.375,-0.45313 -0.375,-1.26563 v -3.92187 H 383.4418 V 258.255 h 1.15625 v -1.53125 z m 6.35743,7.875 q -0.0937,-0.1875 -0.15625,-0.67188 -0.75,0.79688 -1.79688,0.79688 -0.9375,0 -1.54687,-0.53125 -0.59375,-0.53125 -0.59375,-1.35938 0,-0.98437 0.75,-1.53125 0.75,-0.54687 2.125,-0.54687 h 1.04687 v -0.5 q 0,-0.5625 -0.34375,-0.89063 -0.32812,-0.34375 -1,-0.34375 -0.57812,0 -0.96875,0.29688 -0.39062,0.28125 -0.39062,0.70312 h -1.09375 q 0,-0.48437 0.32812,-0.92187 0.34375,-0.4375 0.92188,-0.6875 0.57812,-0.26563 1.26562,-0.26563 1.10938,0 1.71875,0.54688 0.625,0.54687 0.65625,1.5 v 2.92187 q 0,0.875 0.21875,1.39063 v 0.0937 z m -1.79688,-0.82813 q 0.51563,0 0.96875,-0.26562 0.45313,-0.26563 0.65625,-0.6875 v -1.29688 h -0.84375 q -2,0 -2,1.17188 0,0.5 0.34375,0.79687 0.34375,0.28125 0.875,0.28125 z m 8.10547,-0.85937 q 0,-0.4375 -0.34375,-0.67188 -0.32812,-0.25 -1.15625,-0.42187 -0.8125,-0.17188 -1.29687,-0.42188 -0.48438,-0.25 -0.71875,-0.57812 -0.21875,-0.34375 -0.21875,-0.8125 0,-0.78125 0.65625,-1.3125 0.65625,-0.54688 1.6875,-0.54688 1.07812,0 1.73437,0.5625 0.67188,0.54688 0.67188,1.40625 h -1.07813 q 0,-0.4375 -0.39062,-0.75 -0.375,-0.32812 -0.9375,-0.32812 -0.59375,0 -0.9375,0.26562 -0.32813,0.25 -0.32813,0.65625 0,0.39063 0.3125,0.59375 0.3125,0.20313 1.125,0.39063 0.8125,0.17187 1.3125,0.42187 0.5,0.25 0.73438,0.60938 0.25,0.35937 0.25,0.85937 0,0.85938 -0.6875,1.375 -0.67188,0.51563 -1.75,0.51563 -0.76563,0 -1.35938,-0.26563 -0.57812,-0.28125 -0.90625,-0.76562 -0.32812,-0.48438 -0.32812,-1.04688 h 1.07812 q 0.0312,0.54688 0.4375,0.875 0.40625,0.3125 1.07813,0.3125 0.60937,0 0.98437,-0.25 0.375,-0.25 0.375,-0.67187 z m 5.125,1.8125 q -1.29687,0 -2.10937,-0.84375 -0.79688,-0.85938 -0.79688,-2.28125 v -0.1875 q 0,-0.95313 0.35938,-1.6875 0.35937,-0.75 1,-1.15625 0.65625,-0.42188 1.40625,-0.42188 1.23437,0 1.92187,0.8125 0.6875,0.8125 0.6875,2.32813 v 0.45312 h -4.29687 q 0.0312,0.9375 0.54687,1.51563 0.53125,0.57812 1.34375,0.57812 0.5625,0 0.95313,-0.23437 0.40625,-0.23438 0.71875,-0.625 l 0.65625,0.51562 q -0.79688,1.23438 -2.39063,1.23438 z m -0.14062,-5.6875 q -0.65625,0 -1.10938,0.48437 -0.4375,0.46875 -0.53125,1.32813 h 3.17188 v -0.0781 q -0.0469,-0.82812 -0.45313,-1.28125 -0.39062,-0.45312 -1.07812,-0.45312 z m 5.34179,-2.3125 v 1.53125 h 1.17188 v 0.84375 h -1.17188 v 3.92187 q 0,0.39063 0.15625,0.57813 0.15625,0.1875 0.53125,0.1875 0.1875,0 0.51563,-0.0625 v 0.875 q -0.42188,0.125 -0.82813,0.125 -0.71875,0 -1.09375,-0.4375 -0.375,-0.45313 -0.375,-1.26563 v -3.92187 h -1.15625 V 258.255 h 1.15625 v -1.53125 z m 9.16992,7.875 h -1.125 v -3.9375 h -4.3125 v 3.9375 h -1.125 v -8.53125 h 1.125 v 3.67187 h 4.3125 v -3.67187 h 1.125 z m 5.74219,0 q -0.0937,-0.1875 -0.15625,-0.67188 -0.75,0.79688 -1.79687,0.79688 -0.9375,0 -1.54688,-0.53125 -0.59375,-0.53125 -0.59375,-1.35938 0,-0.98437 0.75,-1.53125 0.75,-0.54687 2.125,-0.54687 h 1.04688 v -0.5 q 0,-0.5625 -0.34375,-0.89063 -0.32813,-0.34375 -1,-0.34375 -0.57813,0 -0.96875,0.29688 -0.39063,0.28125 -0.39063,0.70312 h -1.09375 q 0,-0.48437 0.32813,-0.92187 0.34375,-0.4375 0.92187,-0.6875 0.57813,-0.26563 1.26563,-0.26563 1.10937,0 1.71875,0.54688 0.625,0.54687 0.65625,1.5 v 2.92187 q 0,0.875 0.21875,1.39063 v 0.0937 z m -1.79687,-0.82813 q 0.51562,0 0.96875,-0.26562 0.45312,-0.26563 0.65625,-0.6875 v -1.29688 h -0.84375 q -2,0 -2,1.17188 0,0.5 0.34375,0.79687 0.34375,0.28125 0.875,0.28125 z m 7.48047,-4.54687 q -0.25,-0.0312 -0.53125,-0.0312 -1.07813,0 -1.45313,0.90625 v 4.5 h -1.07812 v -6.3438 h 1.04687 l 0.0156,0.73437 q 0.53125,-0.84375 1.51562,-0.84375 0.3125,0 0.48438,0.0781 z m 2.01367,-0.96875 0.0312,0.70312 q 0.6875,-0.8125 1.875,-0.8125 1.32812,0 1.8125,1.01563 0.3125,-0.45313 0.8125,-0.73438 0.51562,-0.28125 1.20312,-0.28125 2.09375,0 2.125,2.20313 v 4.25 h -1.07812 v -4.1875 q 0,-0.67188 -0.3125,-1 -0.3125,-0.34375 -1.04688,-0.34375 -0.60937,0 -1.01562,0.35937 -0.39063,0.35938 -0.45313,0.96875 v 4.20313 h -1.07812 v -4.15625 q 0,-1.375 -1.35938,-1.375 -1.0625,0 -1.45312,0.90625 v 4.625 h -1.09375 V 258.255 Z m 9.20508,3.10937 q 0,-0.92187 0.35937,-1.67187 0.375,-0.75 1.03125,-1.14063 0.65625,-0.40625 1.48438,-0.40625 1.29687,0 2.09375,0.89063 0.8125,0.89062 0.8125,2.39062 v 0.0781 q 0,0.92187 -0.35938,1.65625 -0.35937,0.73437 -1.01562,1.15625 -0.65625,0.40625 -1.51563,0.40625 -1.28125,0 -2.09375,-0.89063 -0.79687,-0.90625 -0.79687,-2.39062 z m 1.09375,0.14063 q 0,1.04687 0.48437,1.6875 0.5,0.64062 1.3125,0.64062 0.82813,0 1.3125,-0.64062 0.48438,-0.65625 0.48438,-1.82813 0,-1.03125 -0.5,-1.67187 -0.48438,-0.65625 -1.3125,-0.65625 -0.79688,0 -1.29688,0.64062 -0.48437,0.625 -0.48437,1.82813 z m 7.0625,-3.25 0.0312,0.79687 q 0.73437,-0.90625 1.90625,-0.90625 2.01562,0 2.03125,2.26563 v 4.1875 h -1.09375 v -4.20313 q 0,-0.67187 -0.3125,-1 -0.29688,-0.32812 -0.95313,-0.32812 -0.53125,0 -0.9375,0.28125 -0.39062,0.28125 -0.60937,0.73437 v 4.51563 h -1.07813 V 258.255 Z m 6.77734,6.34375 h -1.07813 V 258.255 h 1.07813 z m -1.17188,-8.01563 q 0,-0.26562 0.15625,-0.45312 0.17188,-0.18752 0.48438,-0.18752 0.3125,0 0.46875,0.18752 0.17187,0.1875 0.17187,0.45312 0,0.25 -0.17187,0.4375 -0.15625,0.17188 -0.46875,0.17188 -0.3125,0 -0.48438,-0.17188 -0.15625,-0.1875 -0.15625,-0.4375 z m 6.59961,6.32813 q 0,-0.4375 -0.34375,-0.67188 -0.32812,-0.25 -1.15625,-0.42187 -0.8125,-0.17188 -1.29687,-0.42188 -0.48438,-0.25 -0.71875,-0.57812 -0.21875,-0.34375 -0.21875,-0.8125 0,-0.78125 0.65625,-1.3125 0.65625,-0.54688 1.6875,-0.54688 1.07812,0 1.73437,0.5625 0.67188,0.54688 0.67188,1.40625 h -1.07813 q 0,-0.4375 -0.39062,-0.75 -0.375,-0.32812 -0.9375,-0.32812 -0.59375,0 -0.9375,0.26562 -0.32813,0.25 -0.32813,0.65625 0,0.39063 0.3125,0.59375 0.3125,0.20313 1.125,0.39063 0.8125,0.17187 1.3125,0.42187 0.5,0.25 0.73438,0.60938 0.25,0.35937 0.25,0.85937 0,0.85938 -0.6875,1.375 -0.67188,0.51563 -1.75,0.51563 -0.76563,0 -1.35938,-0.26563 -0.57812,-0.28125 -0.90625,-0.76562 -0.32812,-0.48438 -0.32812,-1.04688 h 1.07812 q 0.0312,0.54688 0.4375,0.875 0.40625,0.3125 1.07813,0.3125 0.60937,0 0.98437,-0.25 0.375,-0.25 0.375,-0.67187 z m 6.40625,1.6875 q -0.0937,-0.1875 -0.15625,-0.67188 -0.75,0.79688 -1.79687,0.79688 -0.9375,0 -1.54688,-0.53125 -0.59375,-0.53125 -0.59375,-1.35938 0,-0.98437 0.75,-1.53125 0.75,-0.54687 2.125,-0.54687 h 1.04688 v -0.5 q 0,-0.5625 -0.34375,-0.89063 -0.32813,-0.34375 -1,-0.34375 -0.57813,0 -0.96875,0.29688 -0.39063,0.28125 -0.39063,0.70312 h -1.09375 q 0,-0.48437 0.32813,-0.92187 0.34375,-0.4375 0.92187,-0.6875 0.57813,-0.26563 1.26563,-0.26563 1.10937,0 1.71875,0.54688 0.625,0.54687 0.65625,1.5 v 2.92187 q 0,0.875 0.21875,1.39063 v 0.0937 z m -1.79687,-0.82813 q 0.51562,0 0.96875,-0.26562 0.45312,-0.26563 0.65625,-0.6875 v -1.29688 h -0.84375 q -2,0 -2,1.17188 0,0.5 0.34375,0.79687 0.34375,0.28125 0.875,0.28125 z m 5.88672,-7.04687 v 1.53125 h 1.17187 v 0.84375 h -1.17187 v 3.92187 q 0,0.39063 0.15625,0.57813 0.15625,0.1875 0.53125,0.1875 0.1875,0 0.51562,-0.0625 v 0.875 q -0.42187,0.125 -0.82812,0.125 -0.71875,0 -1.09375,-0.4375 -0.375,-0.45313 -0.375,-1.26563 v -3.92187 h -1.15625 V 258.255 h 1.15625 v -1.53125 z m 3.62304,7.875 h -1.07812 V 258.255 h 1.07812 z m -1.17187,-8.01563 q 0,-0.26562 0.15625,-0.45312 0.17187,-0.18752 0.48437,-0.18752 0.3125,0 0.46875,0.18752 0.17188,0.1875 0.17188,0.45312 0,0.25 -0.17188,0.4375 -0.15625,0.17188 -0.46875,0.17188 -0.3125,0 -0.48437,-0.17188 -0.15625,-0.1875 -0.15625,-0.4375 z m 2.61523,4.78125 q 0,-0.92187 0.35938,-1.67187 0.375,-0.75 1.03125,-1.14063 0.65625,-0.40625 1.48437,-0.40625 1.29688,0 2.09375,0.89063 0.8125,0.89062 0.8125,2.39062 v 0.0781 q 0,0.92187 -0.35937,1.65625 -0.35938,0.73437 -1.01563,1.15625 -0.65625,0.40625 -1.51562,0.40625 -1.28125,0 -2.09375,-0.89063 -0.79688,-0.90625 -0.79688,-2.39062 z m 1.09375,0.14063 q 0,1.04687 0.48438,1.6875 0.5,0.64062 1.3125,0.64062 0.82812,0 1.3125,-0.64062 0.48437,-0.65625 0.48437,-1.82813 0,-1.03125 -0.5,-1.67187 -0.48437,-0.65625 -1.3125,-0.65625 -0.79687,0 -1.29687,0.64062 -0.48438,0.625 -0.48438,1.82813 z m 7.0625,-3.25 0.0312,0.79687 q 0.73438,-0.90625 1.90625,-0.90625 2.01563,0 2.03125,2.26563 v 4.1875 h -1.09375 v -4.20313 q 0,-0.67187 -0.3125,-1 -0.29687,-0.32812 -0.95312,-0.32812 -0.53125,0 -0.9375,0.28125 -0.39063,0.28125 -0.60938,0.73437 v 4.51563 H 483.5629 V 258.255 Z"
       fill-rule="nonzero"
       id="path4090" />
    <path
       fill="#000000"
       fill-opacity="0"
       d="M 601.29395,238.23622 V 192.22047"
       fill-rule="evenodd"
       id="path4092" />
    <path
       stroke="#595959"
       stroke-width="1"
       stroke-linejoin="round"
       stroke-linecap="butt"
       d="M 601.29395,238.23622 V 198.22047"
       fill-rule="evenodd"
       id="path4094" />
    <path
       fill="#595959"
       stroke="#595959"
       stroke-width="1"
       stroke-linecap="butt"
       d="m 602.9457,198.22047 -1.65173,-4.5381 -1.65174,4.5381 z"
       fill-rule="evenodd"
       id="path4096" />
    <path
       fill="#000000"
       fill-opacity="0"
       d="M 257.06036,238.23622 V 192.22047"
       fill-rule="evenodd"
       id="path4098" />
    <path
       stroke="#595959"
       stroke-width="1"
       stroke-linejoin="round"
       stroke-linecap="butt"
       d="M 257.06036,238.23622 V 198.22047"
       fill-rule="evenodd"
       id="path4100" />
    <path
       fill="#595959"
       stroke="#595959"
       stroke-width="1"
       stroke-linecap="butt"
       d="m 258.7121,198.22047 -1.65173,-4.5381 -1.65174,4.5381 z"
       fill-rule="evenodd"
       id="path4102" />
    <path
       fill="#017ffd"
       d="M 342.69815,21.64567 H 515.64307 V 85.173227 H 342.69815 Z"
       fill-rule="evenodd"
       id="path4104" />
    <path
       stroke="#595959"
       stroke-width="1"
       stroke-linejoin="round"
       stroke-linecap="butt"
       d="M 342.69815,21.64567 H 515.64307 V 85.173227 H 342.69815 Z"
       fill-rule="evenodd"
       id="path4106" />
    <path
       fill="#ffffff"
       d="M 398.81018,60.329445 V 45.22007 h 4.79687 q 1.35938,0 2.21875,0.515625 0.85938,0.515625 1.26563,1.484375 0.42187,0.96875 0.42187,2.34375 0,1.625 -0.54687,2.546875 -0.54688,0.90625 -1.5,1.296875 -0.95313,0.375 -2.1875,0.375 h -1.39063 v 6.546875 z m 3.07812,-8.71875 h 1.07813 q 0.67187,0 1.03125,-0.203125 0.375,-0.21875 0.5,-0.6875 0.125,-0.46875 0.125,-1.1875 0,-0.703125 -0.10938,-1.15625 -0.0937,-0.46875 -0.45312,-0.734375 -0.34375,-0.265625 -1.10938,-0.265625 h -1.0625 z m 6.9675,8.71875 v -10.78125 h 2.82813 v 1.734375 q 0.53125,-0.953125 1.0625,-1.40625 0.53125,-0.453125 1.26562,-0.453125 0.125,0 0.23438,0.01563 0.10937,0 0.1875,0.03125 v 2.84375 q -0.20313,-0.09375 -0.46875,-0.15625 -0.25,-0.07813 -0.53125,-0.07813 -0.51563,0 -0.95313,0.28125 -0.42187,0.265625 -0.79687,0.765625 v 7.203125 z m 10.29343,0.1875 q -1.15625,0 -1.98437,-0.421875 -0.82813,-0.421875 -1.25,-1.21875 -0.40625,-0.796875 -0.40625,-2 v -3.875 q 0,-1.203125 0.40625,-2 0.42187,-0.796875 1.25,-1.21875 0.82812,-0.421875 1.98437,-0.421875 1.15625,0 1.96875,0.421875 0.82813,0.421875 1.25,1.21875 0.4375,0.796875 0.4375,2 v 3.875 q 0,1.203125 -0.4375,2 -0.42187,0.796875 -1.25,1.21875 -0.8125,0.421875 -1.96875,0.421875 z m 0.0156,-1.90625 q 0.34375,0 0.53125,-0.1875 0.1875,-0.203125 0.25,-0.546875 0.0625,-0.34375 0.0625,-0.796875 V 52.81382 q 0,-0.46875 -0.0625,-0.796875 -0.0625,-0.34375 -0.25,-0.546875 -0.1875,-0.203125 -0.53125,-0.203125 -0.35938,0 -0.54688,0.203125 -0.1875,0.203125 -0.25,0.546875 -0.0625,0.328125 -0.0625,0.796875 v 4.265625 q 0,0.453125 0.0625,0.796875 0.0625,0.34375 0.25,0.546875 0.1875,0.1875 0.54688,0.1875 z m 6.75585,1.71875 -2.17187,-10.78125 h 2.71875 l 1,7.25 0.92187,-7.25 h 2.71875 l -2.1875,10.78125 z m 6.33002,0 v -10.78125 h 2.82813 v 10.78125 z m -0.0156,-12.5625 v -2.09375 h 2.84375 v 2.09375 z m 7.15405,12.75 q -1.23438,0 -1.90625,-0.875 -0.65625,-0.875 -0.65625,-2.6875 V 53.00132 q 0,-1.046875 0.26562,-1.859375 0.28125,-0.828125 0.82813,-1.296875 0.5625,-0.484375 1.45312,-0.484375 0.57813,0 1.09375,0.25 0.51563,0.234375 0.95313,0.609375 v -5 h 2.8125 v 15.109375 h -2.8125 V 59.53257 q -0.46875,0.4375 -0.98438,0.71875 -0.51562,0.265625 -1.04687,0.265625 z m 1.14062,-1.859375 q 0.1875,0 0.40625,-0.07813 0.23438,-0.09375 0.48438,-0.25 v -6.85937 q -0.20313,-0.109375 -0.4375,-0.1875 -0.21875,-0.09375 -0.4375,-0.09375 -0.48438,0 -0.6875,0.40625 -0.1875,0.40625 -0.1875,0.984375 v 4.5625 q 0,0.421875 0.0625,0.765625 0.0781,0.34375 0.26562,0.546875 0.1875,0.203125 0.53125,0.203125 z m 9.01658,1.859375 q -1.1875,0 -2,-0.4375 -0.79688,-0.4375 -1.20313,-1.28125 -0.40625,-0.859375 -0.40625,-2.046875 v -3.625 q 0,-1.234375 0.40625,-2.0625 0.40625,-0.828125 1.21875,-1.265625 0.82813,-0.4375 1.98438,-0.4375 1.23437,0 2,0.453125 0.76562,0.4375 1.125,1.296875 0.375,0.859375 0.375,2.09375 v 1.875 h -4.32813 v 2.09375 q 0,0.46875 0.0937,0.765625 0.10938,0.296875 0.29688,0.421875 0.1875,0.125 0.46875,0.125 0.25,0 0.4375,-0.125 0.20312,-0.125 0.29687,-0.375 0.0937,-0.265625 0.0937,-0.703125 v -1.015625 h 2.60938 v 0.890625 q 0,1.640625 -0.89063,2.5 -0.89062,0.859375 -2.57812,0.859375 z m -0.82813,-6.765625 h 1.6875 v -1.078125 q 0,-0.453125 -0.0937,-0.734375 -0.0937,-0.296875 -0.29687,-0.421875 -0.1875,-0.125 -0.48438,-0.125 -0.28125,0 -0.45312,0.140625 -0.17188,0.125 -0.26563,0.453125 -0.0937,0.328125 -0.0937,0.921875 z m 6.05063,6.578125 v -10.78125 h 2.82812 v 1.734375 q 0.53125,-0.953125 1.0625,-1.40625 0.53125,-0.453125 1.26563,-0.453125 0.125,0 0.23437,0.01563 0.10938,0 0.1875,0.03125 v 2.84375 q -0.20312,-0.09375 -0.46875,-0.15625 -0.25,-0.07813 -0.53125,-0.07813 -0.51562,0 -0.95312,0.28125 -0.42188,0.265625 -0.79688,0.765625 v 7.203125 z"
       fill-rule="nonzero"
       id="path4108" />
    <path
       fill="#000000"
       fill-opacity="0"
       d="M 265.89502,127.063 429.17059,85.173226"
       fill-rule="evenodd"
       id="path4110" />
    <path
       stroke="#595959"
       stroke-width="1"
       stroke-linejoin="round"
       stroke-linecap="butt"
       d="M 265.89502,127.063 423.35886,86.664291"
       fill-rule="evenodd"
       id="path4112" />
    <path
       fill="#595959"
       stroke="#595959"
       stroke-width="1"
       stroke-linecap="butt"
       d="m 423.7693,88.264206 3.98526,-2.727676 -4.80618,-0.472153 z"
       fill-rule="evenodd"
       id="path4114" />
    <path
       fill="#000000"
       fill-opacity="0"
       d="M 601.29395,128.70604 429.16797,85.178475"
       fill-rule="evenodd"
       id="path4116" />
    <path
       stroke="#595959"
       stroke-width="1"
       stroke-linejoin="round"
       stroke-linecap="butt"
       d="M 601.29395,128.70604 434.98487,86.64946"
       fill-rule="evenodd"
       id="path4118" />
    <path
       fill="#595959"
       stroke="#595959"
       stroke-width="1"
       stroke-linecap="butt"
       d="m 435.3898,85.04814 -4.80454,0.488739 3.99466,2.713905 z"
       fill-rule="evenodd"
       id="path4120" />
    <path
       fill="#017ffd"
       d="M 170.58792,341.17584 H 343.53281 V 404.7034 H 170.58792 Z"
       fill-rule="evenodd"
       id="path4122" />
    <path
       stroke="#595959"
       stroke-width="1"
       stroke-linejoin="round"
       stroke-linecap="butt"
       d="M 170.58792,341.17584 H 343.53281 V 404.7034 H 170.58792 Z"
       fill-rule="evenodd"
       id="path4124" />
    <path
       fill="#ffffff"
       d="m 229.6521,371.85962 -2.875,-15.10938 h 2.67187 l 1.79688,10.4375 1.67187,-10.4375 h 2.78125 l -2.875,15.10938 z m 9.4547,0.1875 q -0.76563,0 -1.3125,-0.39063 -0.54688,-0.39062 -0.82813,-0.98437 -0.28125,-0.60938 -0.28125,-1.23438 0,-1.01562 0.39063,-1.70312 0.39062,-0.6875 1.03125,-1.15625 0.64062,-0.46875 1.42187,-0.79688 0.78125,-0.34375 1.5625,-0.625 v -1 q 0,-0.35937 -0.0625,-0.60937 -0.0469,-0.26563 -0.20312,-0.40625 -0.15625,-0.14063 -0.46875,-0.14063 -0.29688,0 -0.45313,0.125 -0.15625,0.10938 -0.21875,0.34375 -0.0625,0.23438 -0.0937,0.51563 l -0.0469,0.75 -2.67188,-0.10938 q 0.0937,-1.90625 1,-2.8125 0.90625,-0.92187 2.73438,-0.92187 1.64062,0 2.42187,0.90625 0.78125,0.90625 0.78125,2.375 v 5.01562 q 0,0.64063 0.0312,1.14063 0.0312,0.48437 0.0781,0.875 0.0469,0.375 0.0781,0.65625 h -2.53125 q -0.0625,-0.40625 -0.14062,-0.89063 -0.0625,-0.48437 -0.10938,-0.65625 -0.1875,0.67188 -0.70312,1.20313 -0.51563,0.53125 -1.40625,0.53125 z m 1.03125,-2 q 0.20312,0 0.39062,-0.0937 0.1875,-0.0937 0.32813,-0.23438 0.14062,-0.15625 0.23437,-0.28125 v -2.96875 q -0.39062,0.23438 -0.73437,0.46875 -0.32813,0.23438 -0.57813,0.51563 -0.23437,0.28125 -0.375,0.625 -0.125,0.32812 -0.125,0.76562 0,0.54688 0.21875,0.875 0.23438,0.32813 0.64063,0.32813 z m 5.53453,1.8125 v -10.78125 h 2.82812 v 1.73437 q 0.53125,-0.95312 1.0625,-1.40625 0.53125,-0.45312 1.26563,-0.45312 0.125,0 0.23437,0.0156 0.10938,0 0.1875,0.0312 v 2.84375 q -0.20312,-0.0937 -0.46875,-0.15625 -0.25,-0.0781 -0.53125,-0.0781 -0.51562,0 -0.95312,0.28125 -0.42188,0.26562 -0.79688,0.76562 v 7.20313 z m 6.90281,0 v -10.78125 h 2.82813 v 10.78125 z m -0.0156,-12.5625 v -2.09375 h 2.84375 v 2.09375 z m 6.91966,12.75 q -0.76562,0 -1.3125,-0.39063 -0.54687,-0.39062 -0.82812,-0.98437 -0.28125,-0.60938 -0.28125,-1.23438 0,-1.01562 0.39062,-1.70312 0.39063,-0.6875 1.03125,-1.15625 0.64063,-0.46875 1.42188,-0.79688 0.78125,-0.34375 1.5625,-0.625 v -1 q 0,-0.35937 -0.0625,-0.60937 -0.0469,-0.26563 -0.20313,-0.40625 -0.15625,-0.14063 -0.46875,-0.14063 -0.29687,0 -0.45312,0.125 -0.15625,0.10938 -0.21875,0.34375 -0.0625,0.23438 -0.0937,0.51563 l -0.0469,0.75 -2.67187,-0.10938 q 0.0937,-1.90625 1,-2.8125 0.90625,-0.92187 2.73437,-0.92187 1.64063,0 2.42188,0.90625 0.78125,0.90625 0.78125,2.375 v 5.01562 q 0,0.64063 0.0312,1.14063 0.0312,0.48437 0.0781,0.875 0.0469,0.375 0.0781,0.65625 h -2.53125 q -0.0625,-0.40625 -0.14063,-0.89063 -0.0625,-0.48437 -0.10937,-0.65625 -0.1875,0.67188 -0.70313,1.20313 -0.51562,0.53125 -1.40625,0.53125 z m 1.03125,-2 q 0.20313,0 0.39063,-0.0937 0.1875,-0.0937 0.32812,-0.23438 0.14063,-0.15625 0.23438,-0.28125 v -2.96875 q -0.39063,0.23438 -0.73438,0.46875 -0.32812,0.23438 -0.57812,0.51563 -0.23438,0.28125 -0.375,0.625 -0.125,0.32812 -0.125,0.76562 0,0.54688 0.21875,0.875 0.23437,0.32813 0.64062,0.32813 z m 10.53455,2 q -0.59375,0 -1.15625,-0.28125 -0.54688,-0.28125 -1.0625,-0.73438 v 0.82813 h -2.8125 v -15.10938 h 2.8125 v 5.125 q 0.53125,-0.46875 1.10937,-0.71875 0.57813,-0.26562 1.1875,-0.26562 0.65625,0 1.09375,0.29687 0.45313,0.28125 0.73438,0.76563 0.28125,0.48437 0.39062,1.07812 0.10938,0.59375 0.10938,1.21875 v 4.21875 q 0,1.04688 -0.26563,1.84375 -0.25,0.79688 -0.78125,1.26563 -0.53125,0.46875 -1.35937,0.46875 z m -1.25,-1.89063 q 0.34375,0 0.53125,-0.20312 0.1875,-0.21875 0.25,-0.5625 0.0625,-0.35938 0.0625,-0.79688 v -4.51562 q 0,-0.39063 -0.0781,-0.70313 -0.0625,-0.32812 -0.25,-0.51562 -0.17187,-0.20313 -0.51562,-0.20313 -0.25,0 -0.5,0.125 -0.23438,0.125 -0.46875,0.29688 v 6.75 q 0.23437,0.14062 0.46875,0.23437 0.25,0.0937 0.5,0.0937 z m 5.54129,1.70313 v -15.10938 h 2.82812 v 15.10938 z m 8.19086,0.1875 q -1.1875,0 -2,-0.4375 -0.79688,-0.4375 -1.20313,-1.28125 -0.40625,-0.85938 -0.40625,-2.04688 v -3.625 q 0,-1.23437 0.40625,-2.0625 0.40625,-0.82812 1.21875,-1.26562 0.82813,-0.4375 1.98438,-0.4375 1.23437,0 2,0.45312 0.76562,0.4375 1.125,1.29688 0.375,0.85937 0.375,2.09375 v 1.875 h -4.32813 v 2.09375 q 0,0.46875 0.0937,0.76562 0.10938,0.29688 0.29688,0.42188 0.1875,0.125 0.46875,0.125 0.25,0 0.4375,-0.125 0.20312,-0.125 0.29687,-0.375 0.0937,-0.26563 0.0937,-0.70313 v -1.01562 h 2.60938 v 0.89062 q 0,1.64063 -0.89063,2.5 -0.89062,0.85938 -2.57812,0.85938 z m -0.82813,-6.76563 h 1.6875 v -1.07812 q 0,-0.45313 -0.0937,-0.73438 -0.0937,-0.29687 -0.29687,-0.42187 -0.1875,-0.125 -0.48438,-0.125 -0.28125,0 -0.45312,0.14062 -0.17188,0.125 -0.26563,0.45313 -0.0937,0.32812 -0.0937,0.92187 z"
       fill-rule="nonzero"
       id="path4126" />
    <path
       fill="#ffffff"
       d="m 226.31749,384.89587 q 0,-1.46875 0.39062,-2.82813 0.40625,-1.35937 1.1875,-2.45312 0.78125,-1.10938 1.60938,-1.5625 l 0.25,0.78125 q -0.95313,0.73437 -1.5625,2.23437 -0.59375,1.5 -0.65625,3.34375 l -0.0156,0.5625 q 0,2.51563 0.92188,4.35938 0.5625,1.10937 1.3125,1.73437 l -0.25,0.73438 q -0.85938,-0.48438 -1.64063,-1.625 -1.54687,-2.20313 -1.54687,-5.28125 z m 7.43051,2.98437 q 0.64063,0 1.125,-0.39062 0.48438,-0.39063 0.53125,-0.96875 h 1.14063 q -0.0312,0.60937 -0.42188,1.15625 -0.375,0.54687 -1.01562,0.875 -0.64063,0.3125 -1.35938,0.3125 -1.4375,0 -2.29687,-0.95313 -0.84375,-0.96875 -0.84375,-2.625 v -0.20312 q 0,-1.03125 0.375,-1.82813 0.39062,-0.79687 1.09375,-1.23437 0.70312,-0.45313 1.67187,-0.45313 1.17188,0 1.95313,0.71875 0.79687,0.70313 0.84375,1.82813 h -1.14063 q -0.0469,-0.67188 -0.51562,-1.10938 -0.46875,-0.45312 -1.14063,-0.45312 -0.92187,0 -1.4375,0.67187 -0.5,0.65625 -0.5,1.90625 v 0.21875 q 0,1.21875 0.5,1.875 0.51563,0.65625 1.4375,0.65625 z m 3.83582,-2.71875 q 0,-1.04687 0.40625,-1.875 0.40625,-0.82812 1.125,-1.26562 0.73437,-0.45313 1.65625,-0.45313 1.4375,0 2.32812,1 0.89063,0.98438 0.89063,2.64063 v 0.0937 q 0,1.01562 -0.39063,1.84375 -0.39062,0.8125 -1.125,1.26562 -0.73437,0.45313 -1.6875,0.45313 -1.42187,0 -2.3125,-0.98438 -0.89062,-1 -0.89062,-2.64062 z m 1.20312,0.14063 q 0,1.17187 0.54688,1.875 0.54687,0.70312 1.45312,0.70312 0.92188,0 1.45313,-0.71875 0.54687,-0.71875 0.54687,-2 0,-1.17187 -0.54687,-1.89062 -0.54688,-0.71875 -1.46875,-0.71875 -0.89063,0 -1.4375,0.71875 -0.54688,0.70312 -0.54688,2.03125 z m 8.02307,3.4375 h -1.20312 v -10 h 1.20312 z m 3.23442,0 h -1.20312 v -10 h 1.20312 z m 4.8438,0.125 q -1.42188,0 -2.32813,-0.9375 -0.89062,-0.9375 -0.89062,-2.51563 v -0.21875 q 0,-1.04687 0.39062,-1.85937 0.40625,-0.82813 1.125,-1.29688 0.71875,-0.46875 1.5625,-0.46875 1.37499,0 2.12499,0.90625 0.76562,0.90625 0.76562,2.59375 v 0.5 h -4.76561 q 0.0156,1.03125 0.59375,1.67188 0.59375,0.64062 1.48438,0.64062 0.64062,0 1.07811,-0.25 0.45312,-0.26562 0.78125,-0.6875 l 0.73437,0.5625 q -0.875,1.35938 -2.65623,1.35938 z m -0.14063,-6.3125 q -0.73437,0 -1.23437,0.53125 -0.48438,0.53125 -0.60938,1.48437 h 3.53124 v -0.0781 q -0.0469,-0.92188 -0.49999,-1.42188 -0.4375,-0.51562 -1.1875,-0.51562 z m 7.10793,5.32812 q 0.64063,0 1.125,-0.39062 0.48438,-0.39063 0.53125,-0.96875 h 1.14063 q -0.0312,0.60937 -0.42188,1.15625 -0.375,0.54687 -1.01562,0.875 -0.64063,0.3125 -1.35938,0.3125 -1.4375,0 -2.29687,-0.95313 -0.84375,-0.96875 -0.84375,-2.625 v -0.20312 q 0,-1.03125 0.375,-1.82813 0.39062,-0.79687 1.09375,-1.23437 0.70312,-0.45313 1.67187,-0.45313 1.17188,0 1.95313,0.71875 0.79687,0.70313 0.84375,1.82813 h -1.14063 q -0.0469,-0.67188 -0.51562,-1.10938 -0.46875,-0.45312 -1.14063,-0.45312 -0.92187,0 -1.4375,0.67187 -0.5,0.65625 -0.5,1.90625 v 0.21875 q 0,1.21875 0.5,1.875 0.51563,0.65625 1.4375,0.65625 z m 5.78894,-7.89062 v 1.70312 h 1.3125 v 0.9375 h -1.3125 v 4.35938 q 0,0.42187 0.17188,0.64062 0.17187,0.21875 0.59375,0.21875 0.21875,0 0.57812,-0.0781 v 0.96875 q -0.46875,0.125 -0.92187,0.125 -0.8125,0 -1.21875,-0.48438 -0.40625,-0.48437 -0.40625,-1.39062 v -4.35938 h -1.28125 v -0.9375 h 1.28125 v -1.70312 z m 5.63501,8.875 q -1.42187,0 -2.32812,-0.9375 -0.89063,-0.9375 -0.89063,-2.51563 v -0.21875 q 0,-1.04687 0.39063,-1.85937 0.40625,-0.82813 1.125,-1.29688 0.71875,-0.46875 1.5625,-0.46875 1.375,0 2.125,0.90625 0.76562,0.90625 0.76562,2.59375 v 0.5 h -4.76562 q 0.0156,1.03125 0.59375,1.67188 0.59375,0.64062 1.48437,0.64062 0.64063,0 1.07813,-0.25 0.45312,-0.26562 0.78125,-0.6875 l 0.73437,0.5625 q -0.875,1.35938 -2.65625,1.35938 z m -0.14062,-6.3125 q -0.73438,0 -1.23438,0.53125 -0.48437,0.53125 -0.60937,1.48437 h 3.53125 v -0.0781 q -0.0469,-0.92188 -0.5,-1.42188 -0.4375,-0.51562 -1.1875,-0.51562 z m 3.99856,2.60937 q 0,-1.625 0.76563,-2.60937 0.76562,-0.98438 2,-0.98438 1.25,0 1.96875,0.84375 v -3.67187 h 1.20312 v 10 h -1.10937 l -0.0625,-0.75 q -0.71875,0.875 -2,0.875 -1.23438,0 -2,-1 -0.76563,-1 -0.76563,-2.60938 z m 1.20313,0.14063 q 0,1.1875 0.48437,1.875 0.5,0.67187 1.375,0.67187 1.14063,0 1.67188,-1.03125 v -3.23437 q -0.54688,-1 -1.65625,-1 -0.89063,0 -1.39063,0.6875 -0.48437,0.6875 -0.48437,2.03125 z m 9.37597,-0.34375 q 0,1.45312 -0.39062,2.78125 -0.375,1.32812 -1.15625,2.45312 -0.78125,1.125 -1.64063,1.60938 l -0.25,-0.73438 q 1,-0.76562 1.60938,-2.375 0.60937,-1.625 0.625,-3.60937 v -0.20313 q 0,-1.35937 -0.29688,-2.53125 -0.28125,-1.1875 -0.79687,-2.10937 -0.5,-0.9375 -1.14063,-1.45313 l 0.25,-0.73437 q 0.85938,0.46875 1.64063,1.59375 0.78125,1.10937 1.15625,2.45312 0.39062,1.32813 0.39062,2.85938 z"
       fill-rule="nonzero"
       id="path4128" />
    <path
       fill="#000000"
       fill-opacity="0"
       d="M 257.06036,341.17584 V 301.77429"
       fill-rule="evenodd"
       id="path4130" />
    <path
       stroke="#595959"
       stroke-width="1"
       stroke-linejoin="round"
       stroke-linecap="butt"
       d="M 257.06036,341.17584 V 307.77429"
       fill-rule="evenodd"
       id="path4132" />
    <path
       fill="#595959"
       stroke="#595959"
       stroke-width="1"
       stroke-linecap="butt"
       d="m 258.7121,307.7743 -1.65173,-4.53812 -1.65174,4.53812 z"
       fill-rule="evenodd"
       id="path4134" />
    <path
       fill="#017ffd"
       d="M 514.82153,341.17584 H 687.76642 V 404.7034 H 514.82153 Z"
       fill-rule="evenodd"
       id="path4136" />
    <path
       stroke="#595959"
       stroke-width="1"
       stroke-linejoin="round"
       stroke-linecap="butt"
       d="M 514.82153,341.17584 H 687.76642 V 404.7034 H 514.82153 Z"
       fill-rule="evenodd"
       id="path4138" />
    <path
       fill="#ffffff"
       d="m 573.8857,371.85962 -2.875,-15.10938 h 2.67188 l 1.79687,10.4375 1.67188,-10.4375 h 2.78125 l -2.875,15.10938 z m 9.45471,0.1875 q -0.76562,0 -1.3125,-0.39063 -0.54687,-0.39062 -0.82812,-0.98437 -0.28125,-0.60938 -0.28125,-1.23438 0,-1.01562 0.39062,-1.70312 0.39063,-0.6875 1.03125,-1.15625 0.64063,-0.46875 1.42188,-0.79688 0.78125,-0.34375 1.5625,-0.625 v -1 q 0,-0.35937 -0.0625,-0.60937 -0.0469,-0.26563 -0.20313,-0.40625 -0.15625,-0.14063 -0.46875,-0.14063 -0.29687,0 -0.45312,0.125 -0.15625,0.10938 -0.21875,0.34375 -0.0625,0.23438 -0.0937,0.51563 l -0.0469,0.75 -2.67187,-0.10938 q 0.0937,-1.90625 1,-2.8125 0.90625,-0.92187 2.73437,-0.92187 1.64063,0 2.42188,0.90625 0.78125,0.90625 0.78125,2.375 v 5.01562 q 0,0.64063 0.0312,1.14063 0.0312,0.48437 0.0781,0.875 0.0469,0.375 0.0781,0.65625 h -2.53125 q -0.0625,-0.40625 -0.14063,-0.89063 -0.0625,-0.48437 -0.10937,-0.65625 -0.1875,0.67188 -0.70313,1.20313 -0.51562,0.53125 -1.40625,0.53125 z m 1.03125,-2 q 0.20313,0 0.39063,-0.0937 0.1875,-0.0937 0.32812,-0.23438 0.14063,-0.15625 0.23438,-0.28125 v -2.96875 q -0.39063,0.23438 -0.73438,0.46875 -0.32812,0.23438 -0.57812,0.51563 -0.23438,0.28125 -0.375,0.625 -0.125,0.32812 -0.125,0.76562 0,0.54688 0.21875,0.875 0.23437,0.32813 0.64062,0.32813 z m 5.53455,1.8125 v -10.78125 h 2.82812 v 1.73437 q 0.53125,-0.95312 1.0625,-1.40625 0.53125,-0.45312 1.26563,-0.45312 0.125,0 0.23437,0.0156 0.10938,0 0.1875,0.0312 v 2.84375 q -0.20312,-0.0937 -0.46875,-0.15625 -0.25,-0.0781 -0.53125,-0.0781 -0.51562,0 -0.95312,0.28125 -0.42188,0.26562 -0.79688,0.76562 v 7.20313 z m 6.90283,0 v -10.78125 h 2.82812 v 10.78125 z m -0.0156,-12.5625 v -2.09375 h 2.84375 v 2.09375 z m 6.91962,12.75 q -0.76562,0 -1.3125,-0.39063 -0.54687,-0.39062 -0.82812,-0.98437 -0.28125,-0.60938 -0.28125,-1.23438 0,-1.01562 0.39062,-1.70312 0.39063,-0.6875 1.03125,-1.15625 0.64063,-0.46875 1.42188,-0.79688 0.78125,-0.34375 1.5625,-0.625 v -1 q 0,-0.35937 -0.0625,-0.60937 -0.0469,-0.26563 -0.20313,-0.40625 -0.15625,-0.14063 -0.46875,-0.14063 -0.29687,0 -0.45312,0.125 -0.15625,0.10938 -0.21875,0.34375 -0.0625,0.23438 -0.0937,0.51563 l -0.0469,0.75 -2.67187,-0.10938 q 0.0937,-1.90625 1,-2.8125 0.90625,-0.92187 2.73437,-0.92187 1.64063,0 2.42188,0.90625 0.78125,0.90625 0.78125,2.375 v 5.01562 q 0,0.64063 0.0312,1.14063 0.0312,0.48437 0.0781,0.875 0.0469,0.375 0.0781,0.65625 h -2.53125 q -0.0625,-0.40625 -0.14063,-0.89063 -0.0625,-0.48437 -0.10937,-0.65625 -0.1875,0.67188 -0.70313,1.20313 -0.51562,0.53125 -1.40625,0.53125 z m 1.03125,-2 q 0.20313,0 0.39063,-0.0937 0.1875,-0.0937 0.32812,-0.23438 0.14063,-0.15625 0.23438,-0.28125 v -2.96875 q -0.39063,0.23438 -0.73438,0.46875 -0.32812,0.23438 -0.57812,0.51563 -0.23438,0.28125 -0.375,0.625 -0.125,0.32812 -0.125,0.76562 0,0.54688 0.21875,0.875 0.23437,0.32813 0.64062,0.32813 z m 10.53455,2 q -0.59375,0 -1.15625,-0.28125 -0.54688,-0.28125 -1.0625,-0.73438 v 0.82813 h -2.8125 v -15.10938 h 2.8125 v 5.125 q 0.53125,-0.46875 1.10937,-0.71875 0.57813,-0.26562 1.1875,-0.26562 0.65625,0 1.09375,0.29687 0.45313,0.28125 0.73438,0.76563 0.28125,0.48437 0.39062,1.07812 0.10938,0.59375 0.10938,1.21875 v 4.21875 q 0,1.04688 -0.26563,1.84375 -0.25,0.79688 -0.78125,1.26563 -0.53125,0.46875 -1.35937,0.46875 z m -1.25,-1.89063 q 0.34375,0 0.53125,-0.20312 0.1875,-0.21875 0.25,-0.5625 0.0625,-0.35938 0.0625,-0.79688 v -4.51562 q 0,-0.39063 -0.0781,-0.70313 -0.0625,-0.32812 -0.25,-0.51562 -0.17187,-0.20313 -0.51562,-0.20313 -0.25,0 -0.5,0.125 -0.23438,0.125 -0.46875,0.29688 v 6.75 q 0.23437,0.14062 0.46875,0.23437 0.25,0.0937 0.5,0.0937 z m 5.54132,1.70313 v -15.10938 h 2.82812 v 15.10938 z m 8.19086,0.1875 q -1.1875,0 -2,-0.4375 -0.79688,-0.4375 -1.20313,-1.28125 -0.40625,-0.85938 -0.40625,-2.04688 v -3.625 q 0,-1.23437 0.40625,-2.0625 0.40625,-0.82812 1.21875,-1.26562 0.82813,-0.4375 1.98438,-0.4375 1.23437,0 2,0.45312 0.76562,0.4375 1.125,1.29688 0.375,0.85937 0.375,2.09375 v 1.875 h -4.32813 v 2.09375 q 0,0.46875 0.0937,0.76562 0.10938,0.29688 0.29688,0.42188 0.1875,0.125 0.46875,0.125 0.25,0 0.4375,-0.125 0.20312,-0.125 0.29687,-0.375 0.0937,-0.26563 0.0937,-0.70313 v -1.01562 h 2.60938 v 0.89062 q 0,1.64063 -0.89063,2.5 -0.89062,0.85938 -2.57812,0.85938 z m -0.82813,-6.76563 h 1.6875 v -1.07812 q 0,-0.45313 -0.0937,-0.73438 -0.0937,-0.29687 -0.29687,-0.42187 -0.1875,-0.125 -0.48438,-0.125 -0.28125,0 -0.45312,0.14062 -0.17188,0.125 -0.26563,0.45313 -0.0937,0.32812 -0.0937,0.92187 z"
       fill-rule="nonzero"
       id="path4140" />
    <path
       fill="#ffffff"
       d="m 562.3479,384.89587 q 0,-1.46875 0.39062,-2.82813 0.40625,-1.35937 1.1875,-2.45312 0.78125,-1.10938 1.60938,-1.5625 l 0.25,0.78125 q -0.95313,0.73437 -1.5625,2.23437 -0.59375,1.5 -0.65625,3.34375 l -0.0156,0.5625 q 0,2.51563 0.92188,4.35938 0.5625,1.10937 1.3125,1.73437 l -0.25,0.73438 q -0.85938,-0.48438 -1.64063,-1.625 -1.54687,-2.20313 -1.54687,-5.28125 z m 5.80554,-2.34375 q 0.8125,-0.98438 2.09375,-0.98438 2.23438,0 2.25,2.51563 v 4.65625 h -1.20312 v -4.65625 q -0.0156,-0.76563 -0.35938,-1.125 -0.32812,-0.375 -1.0625,-0.375 -0.57812,0 -1.03125,0.3125 -0.4375,0.3125 -0.6875,0.82812 v 5.01563 h -1.20312 v -10 h 1.20312 z m 10.49713,6.1875 q -0.10937,-0.20313 -0.17187,-0.73438 -0.84375,0.85938 -2.01563,0.85938 -1.03125,0 -1.70312,-0.57813 -0.67188,-0.59375 -0.67188,-1.5 0,-1.09375 0.82813,-1.70312 0.84375,-0.60938 2.35937,-0.60938 h 1.17188 v -0.5625 q 0,-0.625 -0.375,-1 -0.375,-0.375 -1.10938,-0.375 -0.64062,0 -1.07812,0.32813 -0.4375,0.32812 -0.4375,0.78125 h -1.20313 q 0,-0.51563 0.35938,-1 0.375,-0.5 1.01562,-0.78125 0.65625,-0.29688 1.42188,-0.29688 1.21875,0 1.90625,0.60938 0.6875,0.60937 0.71875,1.67187 v 3.25 q 0,0.96875 0.23437,1.53125 v 0.10938 z m -2,-0.92188 q 0.5625,0 1.0625,-0.28125 0.51563,-0.29687 0.73438,-0.76562 v -1.45313 h -0.9375 q -2.21875,0 -2.21875,1.29688 0,0.5625 0.375,0.89062 0.39062,0.3125 0.98437,0.3125 z m 8.29663,-5.04687 q -0.26562,-0.0312 -0.59375,-0.0312 -1.1875,0 -1.60937,1 v 5 h -1.20313 v -7.04688 h 1.17188 l 0.0312,0.8125 q 0.57812,-0.9375 1.67187,-0.9375 0.34375,0 0.53125,0.0937 z m 2.24433,-1.07813 0.0312,0.78125 q 0.76562,-0.90625 2.09375,-0.90625 1.46875,0 2,1.125 0.35937,-0.5 0.92187,-0.8125 0.5625,-0.3125 1.32813,-0.3125 2.3125,0 2.35937,2.45313 v 4.71875 h -1.20312 v -4.64063 q 0,-0.76562 -0.34375,-1.14062 -0.34375,-0.375 -1.17188,-0.375 -0.65625,0 -1.10937,0.40625 -0.4375,0.40625 -0.51563,1.07812 v 4.67188 h -1.20312 v -4.60938 q 0,-1.54687 -1.5,-1.54687 -1.1875,0 -1.625,1.01562 v 5.14063 h -1.20313 v -7.04688 z m 10.22851,3.46875 q 0,-1.04687 0.40625,-1.875 0.40625,-0.82812 1.125,-1.26562 0.73438,-0.45313 1.65625,-0.45313 1.4375,0 2.32813,1 0.89062,0.98438 0.89062,2.64063 v 0.0937 q 0,1.01562 -0.39062,1.84375 -0.39063,0.8125 -1.125,1.26562 -0.73438,0.45313 -1.6875,0.45313 -1.42188,0 -2.3125,-0.98438 -0.89063,-1 -0.89063,-2.64062 z m 1.20313,0.14063 q 0,1.17187 0.54687,1.875 0.54688,0.70312 1.45313,0.70312 0.92187,0 1.45312,-0.71875 0.54688,-0.71875 0.54688,-2 0,-1.17187 -0.54688,-1.89062 -0.54687,-0.71875 -1.46875,-0.71875 -0.89062,0 -1.4375,0.71875 -0.54687,0.70312 -0.54687,2.03125 z m 7.85119,-3.60938 0.0469,0.89063 q 0.79687,-1.01563 2.10937,-1.01563 2.23438,0 2.25,2.51563 v 4.65625 h -1.20312 v -4.65625 q -0.0156,-0.76563 -0.35938,-1.125 -0.32812,-0.375 -1.0625,-0.375 -0.57812,0 -1.03125,0.3125 -0.4375,0.3125 -0.6875,0.82812 v 5.01563 h -1.20312 v -7.04688 z m 7.52576,7.04688 H 612.797 v -7.04688 h 1.20312 z m -1.29687,-8.90625 q 0,-0.29688 0.17187,-0.5 0.1875,-0.20313 0.53125,-0.20313 0.35938,0 0.53125,0.20313 0.1875,0.20312 0.1875,0.5 0,0.29687 -0.1875,0.5 -0.17187,0.1875 -0.53125,0.1875 -0.34375,0 -0.53125,-0.1875 -0.17187,-0.20313 -0.17187,-0.5 z m 7.32818,7.03125 q 0,-0.48438 -0.375,-0.75 -0.35937,-0.26563 -1.28125,-0.45313 -0.90625,-0.20312 -1.45312,-0.46875 -0.53125,-0.28125 -0.79688,-0.65625 -0.25,-0.39062 -0.25,-0.90625 0,-0.85937 0.73438,-1.45312 0.73437,-0.60938 1.875,-0.60938 1.1875,0 1.9375,0.625 0.75,0.60938 0.75,1.57813 h -1.21875 q 0,-0.5 -0.42188,-0.85938 -0.42187,-0.35937 -1.04687,-0.35937 -0.65625,0 -1.03125,0.29687 -0.375,0.28125 -0.375,0.75 0,0.42188 0.34375,0.65625 0.34375,0.21875 1.25,0.42188 0.90625,0.20312 1.45312,0.48437 0.5625,0.26563 0.82813,0.67188 0.28125,0.39062 0.28125,0.95312 0,0.9375 -0.76563,1.51563 -0.75,0.5625 -1.95312,0.5625 -0.84375,0 -1.5,-0.29688 -0.64063,-0.29687 -1.01563,-0.82812 -0.35937,-0.54688 -0.35937,-1.17188 h 1.20312 q 0.0312,0.60938 0.48438,0.96875 0.45312,0.34375 1.1875,0.34375 0.6875,0 1.09375,-0.26562 0.42187,-0.28125 0.42187,-0.75 z m 5.68482,2 q -1.42188,0 -2.32813,-0.9375 -0.89062,-0.9375 -0.89062,-2.51563 v -0.21875 q 0,-1.04687 0.39062,-1.85937 0.40625,-0.82813 1.125,-1.29688 0.71875,-0.46875 1.5625,-0.46875 1.375,0 2.125,0.90625 0.76563,0.90625 0.76563,2.59375 v 0.5 h -4.76563 q 0.0156,1.03125 0.59375,1.67188 0.59375,0.64062 1.48438,0.64062 0.64062,0 1.07812,-0.25 0.45313,-0.26562 0.78125,-0.6875 l 0.73438,0.5625 q -0.875,1.35938 -2.65625,1.35938 z m -0.14063,-6.3125 q -0.73437,0 -1.23437,0.53125 -0.48438,0.53125 -0.60938,1.48437 h 3.53125 v -0.0781 q -0.0469,-0.92188 -0.5,-1.42188 -0.4375,-0.51562 -1.1875,-0.51562 z m 3.99854,2.60937 q 0,-1.625 0.76562,-2.60937 0.76563,-0.98438 2,-0.98438 1.25,0 1.96875,0.84375 v -3.67187 h 1.20313 v 10 h -1.10938 l -0.0625,-0.75 q -0.71875,0.875 -2,0.875 -1.23437,0 -2,-1 -0.76562,-1 -0.76562,-2.60938 z m 1.20312,0.14063 q 0,1.1875 0.48438,1.875 0.5,0.67187 1.375,0.67187 1.14062,0 1.67187,-1.03125 v -3.23437 q -0.54687,-1 -1.65625,-1 -0.89062,0 -1.39062,0.6875 -0.48438,0.6875 -0.48438,2.03125 z m 9.37598,-0.34375 q 0,1.45312 -0.39063,2.78125 -0.375,1.32812 -1.15625,2.45312 -0.78125,1.125 -1.64062,1.60938 l -0.25,-0.73438 q 1,-0.76562 1.60937,-2.375 0.60938,-1.625 0.625,-3.60937 v -0.20313 q 0,-1.35937 -0.29687,-2.53125 -0.28125,-1.1875 -0.79688,-2.10937 -0.5,-0.9375 -1.14062,-1.45313 l 0.25,-0.73437 q 0.85937,0.46875 1.64062,1.59375 0.78125,1.10937 1.15625,2.45312 0.39063,1.32813 0.39063,2.85938 z"
       fill-rule="nonzero"
       id="path4142" />
    <path
       fill="#000000"
       fill-opacity="0"
       d="M 601.29395,341.17584 V 301.77429"
       fill-rule="evenodd"
       id="path4144" />
    <path
       stroke="#595959"
       stroke-width="1"
       stroke-linejoin="round"
       stroke-linecap="butt"
       d="M 601.29395,341.17584 V 307.77429"
       fill-rule="evenodd"
       id="path4146" />
    <path
       fill="#595959"
       stroke="#595959"
       stroke-width="1"
       stroke-linecap="butt"
       d="m 602.9457,307.7743 -1.65173,-4.53812 -1.65174,4.53812 z"
       fill-rule="evenodd"
       id="path4148" />
    <path
       fill="#000000"
       fill-opacity="0"
       d="M 343.5328,372.93964 517.64306,371.7743"
       fill-rule="evenodd"
       id="path4150" />
    <path
       stroke="#595959"
       stroke-width="1"
       stroke-linejoin="round"
       stroke-linecap="butt"
       d="m 349.53268,372.89948 162.11047,-1.08505"
       fill-rule="evenodd"
       id="path4152" />
    <path
       fill="#595959"
       stroke="#595959"
       stroke-width="1"
       stroke-linecap="butt"
       d="m 349.5216,371.24777 -4.52692,1.68207 4.54905,1.62134 z"
       fill-rule="evenodd"
       id="path4154" />
    <path
       fill="#595959"
       stroke="#595959"
       stroke-width="1"
       stroke-linecap="butt"
       d="m 511.65424,373.46613 4.52692,-1.68207 -4.54905,-1.62131 z"
       fill-rule="evenodd"
       id="path4156" />
    <path
       fill="#000000"
       fill-opacity="0"
       d="m 359.7638,341.17584 h 147.874 v 33.92126 h -147.874 z"
       fill-rule="evenodd"
       id="path4158" />
    <path
       fill="#000000"
       d="m 376.2916,360.19586 2.4375,-7.03125 h 1.23438 l -3.17188,8.53125 h -0.98437 l -3.15625,-8.53125 h 1.21875 z m 8.28711,1.5 q -0.0937,-0.1875 -0.15625,-0.67188 -0.75,0.79688 -1.79688,0.79688 -0.9375,0 -1.54687,-0.53125 -0.59375,-0.53125 -0.59375,-1.35938 0,-0.98437 0.75,-1.53125 0.75,-0.54687 2.125,-0.54687 h 1.04687 v -0.5 q 0,-0.5625 -0.34375,-0.89063 -0.32812,-0.34375 -1,-0.34375 -0.57812,0 -0.96875,0.29688 -0.39062,0.28125 -0.39062,0.70312 h -1.09375 q 0,-0.48437 0.32812,-0.92187 0.34375,-0.4375 0.92188,-0.6875 0.57812,-0.26563 1.26562,-0.26563 1.10938,0 1.71875,0.54688 0.625,0.54687 0.65625,1.5 v 2.92187 q 0,0.875 0.21875,1.39063 v 0.0937 z m -1.79688,-0.82813 q 0.51563,0 0.96875,-0.26562 0.45313,-0.26563 0.65625,-0.6875 v -1.29688 h -0.84375 q -2,0 -2,1.17188 0,0.5 0.34375,0.79687 0.34375,0.28125 0.875,0.28125 z m 7.48047,-4.54687 q -0.25,-0.0312 -0.53125,-0.0312 -1.07812,0 -1.45312,0.90625 v 4.5 h -1.07813 v -6.34375 h 1.04688 l 0.0156,0.73437 q 0.53125,-0.84375 1.51563,-0.84375 0.3125,0 0.48437,0.0781 z m 2.16992,5.375 h -1.07812 v -6.34375 h 1.07812 z m -1.17187,-8.01563 q 0,-0.26562 0.15625,-0.45312 0.17187,-0.1875 0.48437,-0.1875 0.3125,0 0.46875,0.1875 0.17188,0.1875 0.17188,0.45312 0,0.25 -0.17188,0.4375 -0.15625,0.17188 -0.46875,0.17188 -0.3125,0 -0.48437,-0.17188 -0.15625,-0.1875 -0.15625,-0.4375 z m 6.81836,8.01563 q -0.0937,-0.1875 -0.15625,-0.67188 -0.75,0.79688 -1.79688,0.79688 -0.9375,0 -1.54687,-0.53125 -0.59375,-0.53125 -0.59375,-1.35938 0,-0.98437 0.75,-1.53125 0.75,-0.54687 2.125,-0.54687 h 1.04687 v -0.5 q 0,-0.5625 -0.34375,-0.89063 -0.32812,-0.34375 -1,-0.34375 -0.57812,0 -0.96875,0.29688 -0.39062,0.28125 -0.39062,0.70312 h -1.09375 q 0,-0.48437 0.32812,-0.92187 0.34375,-0.4375 0.92188,-0.6875 0.57812,-0.26563 1.26562,-0.26563 1.10938,0 1.71875,0.54688 0.625,0.54687 0.65625,1.5 v 2.92187 q 0,0.875 0.21875,1.39063 v 0.0937 z m -1.79688,-0.82813 q 0.51563,0 0.96875,-0.26562 0.45313,-0.26563 0.65625,-0.6875 v -1.29688 h -0.84375 q -2,0 -2,1.17188 0,0.5 0.34375,0.79687 0.34375,0.28125 0.875,0.28125 z m 9.77735,-2.26562 q 0,1.45312 -0.67188,2.34375 -0.65625,0.875 -1.78125,0.875 -1.20312,0 -1.85937,-0.85938 l -0.0625,0.73438 h -0.98438 v -9 h 1.07813 v 3.35937 q 0.65625,-0.8125 1.8125,-0.8125 1.15625,0 1.8125,0.875 0.65625,0.85938 0.65625,2.39063 z m -1.07813,-0.125 q 0,-1.10938 -0.4375,-1.70313 -0.42187,-0.60937 -1.21875,-0.60937 -1.07812,0 -1.54687,0.98437 v 2.75 q 0.5,1 1.54687,1 0.78125,0 1.21875,-0.60937 0.4375,-0.60938 0.4375,-1.8125 z m 3.62305,3.21875 h -1.07812 v -9 h 1.07812 z m 4.36523,0.125 q -1.29687,0 -2.10937,-0.84375 -0.79688,-0.85938 -0.79688,-2.28125 v -0.1875 q 0,-0.95313 0.35938,-1.6875 0.35937,-0.75 1,-1.15625 0.65625,-0.42188 1.40625,-0.42188 1.23437,0 1.92187,0.8125 0.6875,0.8125 0.6875,2.32813 v 0.45312 h -4.29687 q 0.0312,0.9375 0.54687,1.51563 0.53125,0.57812 1.34375,0.57812 0.5625,0 0.95313,-0.23437 0.40625,-0.23438 0.71875,-0.625 l 0.65625,0.51562 q -0.79688,1.23438 -2.39063,1.23438 z m -0.14062,-5.6875 q -0.65625,0 -1.10938,0.48437 -0.4375,0.46875 -0.53125,1.32813 h 3.17188 v -0.0781 q -0.0469,-0.82812 -0.45313,-1.28125 -0.39062,-0.45312 -1.07812,-0.45312 z m 10.5918,5.5625 h -1.125 v -3.9375 h -4.3125 v 3.9375 h -1.125 v -8.53125 h 1.125 v 3.67187 h 4.3125 v -3.67187 h 1.125 z m 5.74218,0 q -0.0937,-0.1875 -0.15625,-0.67188 -0.75,0.79688 -1.79687,0.79688 -0.9375,0 -1.54688,-0.53125 -0.59375,-0.53125 -0.59375,-1.35938 0,-0.98437 0.75,-1.53125 0.75,-0.54687 2.125,-0.54687 h 1.04688 v -0.5 q 0,-0.5625 -0.34375,-0.89063 -0.32813,-0.34375 -1,-0.34375 -0.57813,0 -0.96875,0.29688 -0.39063,0.28125 -0.39063,0.70312 h -1.09375 q 0,-0.48437 0.32813,-0.92187 0.34375,-0.4375 0.92187,-0.6875 0.57813,-0.26563 1.26563,-0.26563 1.10937,0 1.71875,0.54688 0.625,0.54687 0.65625,1.5 v 2.92187 q 0,0.875 0.21875,1.39063 v 0.0937 z m -1.79687,-0.82813 q 0.51562,0 0.96875,-0.26562 0.45312,-0.26563 0.65625,-0.6875 v -1.29688 h -0.84375 q -2,0 -2,1.17188 0,0.5 0.34375,0.79687 0.34375,0.28125 0.875,0.28125 z m 7.48047,-4.54687 q -0.25,-0.0312 -0.53125,-0.0312 -1.07813,0 -1.45313,0.90625 v 4.5 h -1.07812 v -6.34375 h 1.04687 l 0.0156,0.73437 q 0.53125,-0.84375 1.51562,-0.84375 0.3125,0 0.48438,0.0781 z m 2.01367,-0.96875 0.0312,0.70312 q 0.6875,-0.8125 1.875,-0.8125 1.32812,0 1.8125,1.01563 0.3125,-0.45313 0.8125,-0.73438 0.51562,-0.28125 1.20312,-0.28125 2.09375,0 2.125,2.20313 v 4.25 h -1.07812 v -4.1875 q 0,-0.67188 -0.3125,-1 -0.3125,-0.34375 -1.04688,-0.34375 -0.60937,0 -1.01562,0.35937 -0.39063,0.35938 -0.45313,0.96875 v 4.20313 h -1.07812 v -4.15625 q 0,-1.375 -1.35938,-1.375 -1.0625,0 -1.45312,0.90625 v 4.625 h -1.09375 v -6.34375 z m 9.20508,3.10937 q 0,-0.92187 0.35937,-1.67187 0.375,-0.75 1.03125,-1.14063 0.65625,-0.40625 1.48438,-0.40625 1.29687,0 2.09375,0.89063 0.8125,0.89062 0.8125,2.39062 v 0.0781 q 0,0.92187 -0.35938,1.65625 -0.35937,0.73437 -1.01562,1.15625 -0.65625,0.40625 -1.51563,0.40625 -1.28125,0 -2.09375,-0.89063 -0.79687,-0.90625 -0.79687,-2.39062 z m 1.09375,0.14063 q 0,1.04687 0.48437,1.6875 0.5,0.64062 1.3125,0.64062 0.82813,0 1.3125,-0.64062 0.48438,-0.65625 0.48438,-1.82813 0,-1.03125 -0.5,-1.67187 -0.48438,-0.65625 -1.3125,-0.65625 -0.79688,0 -1.29688,0.64062 -0.48437,0.625 -0.48437,1.82813 z m 7.0625,-3.25 0.0312,0.79687 q 0.73437,-0.90625 1.90625,-0.90625 2.01562,0 2.03125,2.26563 v 4.1875 h -1.09375 v -4.20313 q 0,-0.67187 -0.3125,-1 -0.29688,-0.32812 -0.95313,-0.32812 -0.53125,0 -0.9375,0.28125 -0.39062,0.28125 -0.60937,0.73437 v 4.51563 h -1.07813 v -6.34375 z m 6.77734,6.34375 h -1.07812 v -6.34375 h 1.07812 z m -1.17187,-8.01563 q 0,-0.26562 0.15625,-0.45312 0.17187,-0.1875 0.48437,-0.1875 0.3125,0 0.46875,0.1875 0.17188,0.1875 0.17188,0.45312 0,0.25 -0.17188,0.4375 -0.15625,0.17188 -0.46875,0.17188 -0.3125,0 -0.48437,-0.17188 -0.15625,-0.1875 -0.15625,-0.4375 z m 6.59961,6.32813 q 0,-0.4375 -0.34375,-0.67188 -0.32813,-0.25 -1.15625,-0.42187 -0.8125,-0.17188 -1.29688,-0.42188 -0.48437,-0.25 -0.71875,-0.57812 -0.21875,-0.34375 -0.21875,-0.8125 0,-0.78125 0.65625,-1.3125 0.65625,-0.54688 1.6875,-0.54688 1.07813,0 1.73438,0.5625 0.67187,0.54688 0.67187,1.40625 h -1.07812 q 0,-0.4375 -0.39063,-0.75 -0.375,-0.32812 -0.9375,-0.32812 -0.59375,0 -0.9375,0.26562 -0.32812,0.25 -0.32812,0.65625 0,0.39063 0.3125,0.59375 0.3125,0.20313 1.125,0.39063 0.8125,0.17187 1.3125,0.42187 0.5,0.25 0.73437,0.60938 0.25,0.35937 0.25,0.85937 0,0.85938 -0.6875,1.375 -0.67187,0.51563 -1.75,0.51563 -0.76562,0 -1.35937,-0.26563 -0.57813,-0.28125 -0.90625,-0.76562 -0.32813,-0.48438 -0.32813,-1.04688 h 1.07813 q 0.0312,0.54688 0.4375,0.875 0.40625,0.3125 1.07812,0.3125 0.60938,0 0.98438,-0.25 0.375,-0.25 0.375,-0.67187 z m 6.40625,1.6875 q -0.0937,-0.1875 -0.15625,-0.67188 -0.75,0.79688 -1.79688,0.79688 -0.9375,0 -1.54687,-0.53125 -0.59375,-0.53125 -0.59375,-1.35938 0,-0.98437 0.75,-1.53125 0.75,-0.54687 2.125,-0.54687 h 1.04687 v -0.5 q 0,-0.5625 -0.34375,-0.89063 -0.32812,-0.34375 -1,-0.34375 -0.57812,0 -0.96875,0.29688 -0.39062,0.28125 -0.39062,0.70312 h -1.09375 q 0,-0.48437 0.32812,-0.92187 0.34375,-0.4375 0.92188,-0.6875 0.57812,-0.26563 1.26562,-0.26563 1.10938,0 1.71875,0.54688 0.625,0.54687 0.65625,1.5 v 2.92187 q 0,0.875 0.21875,1.39063 v 0.0937 z m -1.79688,-0.82813 q 0.51563,0 0.96875,-0.26562 0.45313,-0.26563 0.65625,-0.6875 v -1.29688 h -0.84375 q -2,0 -2,1.17188 0,0.5 0.34375,0.79687 0.34375,0.28125 0.875,0.28125 z m 5.88672,-7.04687 v 1.53125 h 1.17187 v 0.84375 h -1.17187 v 3.92187 q 0,0.39063 0.15625,0.57813 0.15625,0.1875 0.53125,0.1875 0.1875,0 0.51562,-0.0625 v 0.875 q -0.42187,0.125 -0.82812,0.125 -0.71875,0 -1.09375,-0.4375 -0.375,-0.45313 -0.375,-1.26563 v -3.92187 h -1.15625 v -0.84375 h 1.15625 v -1.53125 z m 3.62305,7.875 h -1.07813 v -6.34375 h 1.07813 z m -1.17188,-8.01563 q 0,-0.26562 0.15625,-0.45312 0.17188,-0.1875 0.48438,-0.1875 0.3125,0 0.46875,0.1875 0.17187,0.1875 0.17187,0.45312 0,0.25 -0.17187,0.4375 -0.15625,0.17188 -0.46875,0.17188 -0.3125,0 -0.48438,-0.17188 -0.15625,-0.1875 -0.15625,-0.4375 z m 2.61524,4.78125 q 0,-0.92187 0.35937,-1.67187 0.375,-0.75 1.03125,-1.14063 0.65625,-0.40625 1.48438,-0.40625 1.29687,0 2.09375,0.89063 0.81253,0.89062 0.81253,2.39062 v 0.0781 q 0,0.92187 -0.35941,1.65625 -0.35937,0.73437 -1.01562,1.15625 -0.65625,0.40625 -1.51563,0.40625 -1.28125,0 -2.09375,-0.89063 -0.79687,-0.90625 -0.79687,-2.39062 z m 1.09375,0.14063 q 0,1.04687 0.48437,1.6875 0.5,0.64062 1.3125,0.64062 0.82813,0 1.3125,-0.64062 0.48438,-0.65625 0.48438,-1.82813 0,-1.03125 -0.5,-1.67187 -0.48438,-0.65625 -1.3125,-0.65625 -0.79688,0 -1.29688,0.64062 -0.48437,0.625 -0.48437,1.82813 z m 7.06253,-3.25 0.0312,0.79687 q 0.73437,-0.90625 1.90625,-0.90625 2.01562,0 2.03125,2.26563 v 4.1875 h -1.09375 v -4.20313 q 0,-0.67187 -0.3125,-1 -0.29688,-0.32812 -0.95313,-0.32812 -0.53125,0 -0.9375,0.28125 -0.39062,0.28125 -0.60937,0.73437 v 4.51563 h -1.07813 v -6.34375 z"
       fill-rule="nonzero"
       id="path4160" />
  </g>
</svg>
