<svg viewBox="0 0 1920 854" xmlns="http://www.w3.org/2000/svg" xmlns:xlink="http://www.w3.org/1999/xlink"><clipPath id="a"><path d="m242.65 298.07c-5.05 3.52-2.63 13.38 3.6 14.64 3.05.54 5.72-1.45 6.49-4.86 1.21-5.43-3-10.72-7.17-10.72a5 5 0 0 0 -2.92.94"/></clipPath><linearGradient id="b" gradientTransform="matrix(32.16 0 0 -32.16 -27006.86 17211.38)" gradientUnits="userSpaceOnUse" x1="843.6" x2="850.32" y1="525.76" y2="525.76"><stop offset="0" stop-color="#009bc0"/><stop offset="1" stop-color="#004f8c"/></linearGradient><clipPath id="c"><path d="m193.18 194.51c-7.22 5.05-1 18.37 12.26 20.53 5.3.62 9.36-1.51 10.33-5.47 1.95-7.89-8.58-16.67-17.09-16.67a9.4 9.4 0 0 0 -5.5 1.61"/></clipPath><linearGradient id="d" gradientTransform="matrix(43.59 0 0 -43.59 -36956.4 23189.86)" x1="847.2" x2="853.92" xlink:href="#b" y1="527.26" y2="527.26"/><clipPath id="e"><path d="m156.33 200.92c-6.81 6.39-1.31 18.71 11.65 19.84 6.64.45 11.92-3.38 12.26-8.93.49-7.85-7.93-14-15.7-14a11.8 11.8 0 0 0 -8.21 3"/></clipPath><linearGradient id="f" gradientTransform="matrix(38.96 0 0 -38.96 -32927.41000000001 20760.36)" x1="845.2" x2="851.92" xlink:href="#b" y1="527.54" y2="527.54"/><clipPath id="g"><path d="m276.49 277.1c-8.23 4-5.72 24.38 6 28.56 3.74 1 7-.92 8.61-5.14 3.73-10-4-24.08-11.74-24.08a6.38 6.38 0 0 0 -2.85.66"/></clipPath><linearGradient id="h" gradientTransform="matrix(30.47 0 0 -30.47 -25544.25 16327.3)" x1="842.54" x2="849.26" xlink:href="#b" y1="526.23" y2="526.23"/><clipPath id="i"><path d="m262 236.78c-7.95 4.45-1.09 22.37 9.8 25.58 3.64 1 6.6-.57 7.73-4 2.89-8.85-6.87-22.31-14.6-22.31a6 6 0 0 0 -2.93.75"/></clipPath><linearGradient id="j" gradientTransform="matrix(38.58 0 0 -38.58 -32591.43 20568.4)" x1="846.18" x2="852.9" xlink:href="#b" y1="526.69" y2="526.69"/><clipPath id="k"><path d="m230.92 207.5c-7.09 5 1.25 20 12.39 22.35 4.67.85 7.95-1.08 8.57-5.07 1.31-8.44-9-18.52-16.79-18.52a7.13 7.13 0 0 0 -4.17 1.24"/></clipPath><linearGradient id="l" gradientTransform="matrix(44.32 0 0 -44.32 -37582.61 23571.1)" x1="847.77" x2="854.49" xlink:href="#b" y1="526.94" y2="526.94"/><clipPath id="m"><path d="m176.47 156.74c-8.34 5.64.75 22.83 20.92 26 7.11.84 12.3-1.43 13.23-5.79 2.08-9.75-15.38-22-27.45-22a11.8 11.8 0 0 0 -6.7 1.79"/></clipPath><linearGradient id="n" gradientTransform="matrix(50.29 0 0 -50.29 -42779.26 26693.35)" x1="848.75" x2="855.47" xlink:href="#b" y1="527.42" y2="527.42"/><clipPath id="o"><path d="m124.34 166.35c-9.11 9-1.58 24 17 24.9 10.07.34 18.22-5.25 18.56-12.7.47-10.14-11-17.34-21.89-17.34a19.19 19.19 0 0 0 -13.7 5.14"/></clipPath><linearGradient id="p" gradientTransform="matrix(39.29 0 0 -39.29 -33218.76 20928.25)" x1="844.65" x2="851.37" xlink:href="#b" y1="528.23" y2="528.23"/><clipPath id="q"><path d="m279.88 215.72c-8.53 3.49 2.74 33.24 18.45 40.08 1.48.61 5.13 1.63 6.81-1.87 4.92-10.12-13.22-38.55-23.45-38.56a4.82 4.82 0 0 0 -1.81.35"/></clipPath><linearGradient id="r" gradientTransform="matrix(44.51 0 0 -44.51 -37748.47 23675.63)" x1="848.24" x2="854.96" xlink:href="#b" y1="526.58" y2="526.58"/><clipPath id="s"><path d="m230.47 173.15c-8.43 4.33 6.15 27.16 23.27 31.63 4.56 1.09 7.69.06 8.55-2.84 2.87-9.5-17.93-29.43-28.84-29.44a6.53 6.53 0 0 0 -3 .65"/></clipPath><linearGradient id="t" gradientTransform="matrix(60.95 0 0 -60.95 -52039.91 32282.39)" x1="851.42" x2="858.14" xlink:href="#b" y1="526.55" y2="526.55"/><clipPath id="u"><path d="m203.56 230.88c-4.29 3.1-1.46 11.14 5.87 12.36 3.11.37 5.67-1.24 6.22-3.91 1-4.8-4.12-9.51-8.71-9.51a5.65 5.65 0 0 0 -3.38 1.06"/></clipPath><linearGradient id="v" gradientTransform="matrix(39.17 0 0 -39.17 -33109.54 20877.02)" x1="845.97" x2="852.69" xlink:href="#b" y1="526.93" y2="526.93"/><clipPath id="w"><path d="m183.24 234.14c-4.29 3.38-1.51 11.38 5.77 12.26 3.52.32 6.4-1.85 6.72-5.09.43-4.65-4.17-8.5-8.51-8.5a6.36 6.36 0 0 0 -4 1.33"/></clipPath><linearGradient id="x" gradientTransform="matrix(37.6 0 0 -37.6 -31747.26 20055.57)" x1="845.17" x2="851.89" xlink:href="#b" y1="526.98" y2="526.98"/><clipPath id="y"><path d="m247.56 276.82c-4.63 2.83-2.87 12.73 4 14.5 2.76.54 5.17-1.17 5.86-4.15 1.29-5.4-3.07-11.08-7.37-11.08a4.73 4.73 0 0 0 -2.52.73"/></clipPath><linearGradient id="z" gradientTransform="matrix(33.43 0 0 -33.43 -28112.69 17874.1)" x1="844.05" x2="850.77" xlink:href="#b" y1="526.23" y2="526.23"/><clipPath id="A"><path d="m240.65 255.15c-4.32 2.79-1.89 12.1 5 13.62a4.61 4.61 0 0 0 5.58-3.55c1.29-5.17-3.53-10.83-8-10.83a4.8 4.8 0 0 0 -2.63.76"/></clipPath><linearGradient id="B" gradientTransform="matrix(36.42 0 0 -36.42 -30714.35 19438.49)" x1="845.26" x2="851.98" xlink:href="#b" y1="526.56" y2="526.56"/><clipPath id="C"><path d="m224.6 238.47c-4.69 3.09-.91 11.75 5.62 12.86 2.95.45 5.28-1 5.8-3.69.95-4.84-4.17-10-8.63-10a5 5 0 0 0 -2.79.81"/></clipPath><linearGradient id="D" gradientTransform="matrix(39.25 0 0 -39.25 -33172.95 20917.39)" x1="846.23" x2="852.95" xlink:href="#b" y1="526.75" y2="526.75"/><clipPath id="E"><path d="m307.34 279.09c-10.1 3.72-7.44 39.43 6.88 47.56 3.57 1.66 6.78.06 8.79-4.39 6.56-14.49-3.3-43.53-13.69-43.53a5.53 5.53 0 0 0 -2 .36"/></clipPath><linearGradient id="F" gradientTransform="matrix(23.72 0 0 -23.72 -19674.07 12790.29)" x1="837.28" x2="844" xlink:href="#b" y1="526.44" y2="526.44"/><clipPath id="G"><path d="m227.9 312.05c-5.24 3.3-4.07 13.18 3.23 14.6 3.33.55 6.34-1.71 7.12-5.36 1.16-5.36-2.84-10.2-7.16-10.2a5.86 5.86 0 0 0 -3.19 1"/></clipPath><linearGradient id="H" gradientTransform="matrix(32.18 0 0 -32.18 -27025.51 17225.14)" x1="843.74" x2="850.46" xlink:href="#b" y1="525.38" y2="525.38"/><clipPath id="I"><path d="m199.73 350.36c-9.63 6.92-8.1 24.24 5.18 26.58 7.18.87 14-4.82 15.17-12.68 1.4-9.23-5.38-16.37-12.93-16.37a12.54 12.54 0 0 0 -7.42 2.47"/></clipPath><linearGradient id="J" gradientTransform="matrix(31.32 0 0 -31.32 -26279.96 16783.68)" x1="843.73" x2="850.45" xlink:href="#b" y1="524.23" y2="524.23"/><clipPath id="K"><path d="m239.7 343.82c-9.5 5.82-9.4 24.68 2.88 27.52 6 1.22 12.08-3.63 13.81-11 2.3-9.79-3.73-18.17-11.06-18.17a10.79 10.79 0 0 0 -5.63 1.68"/></clipPath><linearGradient id="L" gradientTransform="matrix(29.06 0 0 -29.06 -24308.77 15594.26)" x1="842.29" x2="849.01" xlink:href="#b" y1="524.41" y2="524.41"/><clipPath id="M"><path d="m267.91 317.55c-9.68 5.79-7.39 25.47 3.3 28.44 5 1.22 9.66-2.35 11.42-8.67 2.92-10.48-3.19-21-10.46-21a8.21 8.21 0 0 0 -4.26 1.25"/></clipPath><linearGradient id="N" gradientTransform="matrix(28.06 0 0 -28.06 -23448.03 15070.71)" x1="841.34" x2="848.06" xlink:href="#b" y1="525.2" y2="525.2"/><clipPath id="O"><path d="m129.36 224.37c-8.92 7.79-2.5 21.62 10.22 22.07 7.25.08 13.16-4.66 13.77-11 .8-8.33-6.93-14.44-14.79-14.44a13.81 13.81 0 0 0 -9.2 3.41"/></clipPath><linearGradient id="P" gradientTransform="matrix(35.78 0 0 -35.78 -30166.75 19099.71)" x1="843.78" x2="850.5" xlink:href="#b" y1="527.28" y2="527.28"/><clipPath id="Q"><path d="m118.5 262.44c-8.43 8.25-3.89 23.88 10.25 24.69a14.31 14.31 0 0 0 14.42-14.44 14.51 14.51 0 0 0 -14.64-14.41 14.18 14.18 0 0 0 -10 4.16"/></clipPath><linearGradient id="R" gradientTransform="matrix(33.41 0 0 -33.41 -28104.21 17863.31)" x1="842.89" x2="849.61" xlink:href="#b" y1="526.52" y2="526.52"/><clipPath id="S"><path d="m130.32 304.1c-9 8.09-4.79 25.29 9.36 26a14.36 14.36 0 0 0 14.47-13.36 14.9 14.9 0 0 0 -14.68-16.27 13.53 13.53 0 0 0 -9.15 3.58"/></clipPath><linearGradient id="T" gradientTransform="matrix(32.84 0 0 -32.84 -27602.54 17569.95)" x1="843.37" x2="850.09" xlink:href="#b" y1="525.45" y2="525.45"/><clipPath id="U"><path d="m160.22 336.13c-10.09 8.32-5.17 25.24 7.62 26.23 7.48.39 13.95-5.42 14.74-13.23a14.3 14.3 0 0 0 -13.84-16.13 13.27 13.27 0 0 0 -8.52 3.17"/></clipPath><linearGradient id="V" gradientTransform="matrix(32.24 0 0 -32.24 -27083.19 17264.17)" x1="843.78" x2="850.5" xlink:href="#b" y1="524.62" y2="524.62"/><clipPath id="W"><path d="m188.51 395.33c-14.46 10.41-14.53 37.22 3.85 40.54 10.75 1.29 22.34-8.71 24.8-21.41 2.59-13.35-6.17-23.18-16.87-23.18a20.13 20.13 0 0 0 -11.78 4.05"/></clipPath><linearGradient id="X" gradientTransform="matrix(29.06 0 0 -29.06 -24308.13 15603.87)" x1="842.8" x2="849.52" xlink:href="#b" y1="522.75" y2="522.75"/><clipPath id="Y"><path d="m249.61 385.36c-16.07 9.45-18.47 38-3.57 42.48 8.91 2.31 20.31-7.46 23.87-20.51 3.77-13.71-2.64-24.41-12.14-24.41a16.21 16.21 0 0 0 -8.16 2.44"/></clipPath><linearGradient id="Z" gradientTransform="matrix(25.71 0 0 -25.71 -21397.24 13847.48)" x1="840.28" x2="847" xlink:href="#b" y1="522.84" y2="522.84"/><clipPath id="aa"><path d="m296.2 343.82c-14.69 5.94-17.51 40.7-3.78 46.51 5.55 2.08 11.88-2.22 15.78-10.71 7.54-16.4 2.06-36.52-8.44-36.53a9.68 9.68 0 0 0 -3.56.73"/></clipPath><linearGradient id="ab" gradientTransform="matrix(22.29 0 0 -22.29 -18430.59 12051.84)" x1="836.47" x2="843.19" xlink:href="#b" y1="524.14" y2="524.14"/><clipPath id="ac"><path d="m80.16 201c-12.36 12.87-3.56 30.68 15 30.26 13.15-.58 23.55-10.46 22.72-21.57-.76-10.21-10-16.2-19.91-16.2a24.57 24.57 0 0 0 -17.81 7.51"/></clipPath><linearGradient id="ad" gradientTransform="matrix(34.09 0 0 -34.09 -28705.75 18212.52)" x1="842.02" x2="848.74" xlink:href="#b" y1="527.97" y2="527.97"/><clipPath id="ae"><path d="m60.87 258.73c-13.63 14.36-6.87 39.39 15.62 39.21 12.64-.75 23-12 23.05-25.13 0-13.41-10.22-21.83-21.4-21.83a23.68 23.68 0 0 0 -17.27 7.75"/></clipPath><linearGradient id="af" gradientTransform="matrix(31.66 0 0 -31.66 -26587 16946.52)" x1="841.17" x2="847.89" xlink:href="#b" y1="526.61" y2="526.61"/><clipPath id="ag"><path d="m79.7 325.46c-13.3 13.87-5.44 41.27 16.63 41.21 12.15-.35 22-11.82 21.63-25-.45-14-11.29-23.09-22.59-23.1a21.49 21.49 0 0 0 -15.67 6.93"/></clipPath><linearGradient id="ah" gradientTransform="matrix(31.95 0 0 -31.95 -26835.83 17111.64)" x1="842.83" x2="849.55" xlink:href="#b" y1="524.77" y2="524.77"/><clipPath id="ai"><path d="m128.27 374.57c-14.41 13.21-6.37 39.75 12.28 40.57 11.64.18 21.78-10.54 22.17-23.42.39-13.45-9.88-22.66-20.79-22.66a20 20 0 0 0 -13.66 5.51"/></clipPath><linearGradient id="aj" gradientTransform="matrix(31.28 0 0 -31.28 -26238.74 16762.98)" x1="843.62" x2="850.34" xlink:href="#b" y1="523.44" y2="523.44"/><clipPath id="ak"><path d="m206.49 315.58c-5 3.69-3.56 13 3.79 14.25a7 7 0 0 0 7.62-6.05c.84-5.25-3.19-9.52-7.49-9.52a6.56 6.56 0 0 0 -3.92 1.32"/></clipPath><linearGradient id="al" gradientTransform="matrix(32.74 0 0 -32.74 -27511.23 17518.27)" x1="844" x2="850.72" xlink:href="#b" y1="525.28" y2="525.28"/><clipPath id="am"><path d="m168.41 247.66c-4.58 4.14-1 12 5.7 12.5a6.4 6.4 0 0 0 7.12-5.77c.4-4.74-4-8.42-8.33-8.42a6.58 6.58 0 0 0 -4.49 1.69"/></clipPath><linearGradient id="an" gradientTransform="matrix(36.19 0 0 -36.19 -30518.84 19317.14)" x1="844.58" x2="851.3" xlink:href="#b" y1="526.78" y2="526.78"/><clipPath id="ao"><path d="m163.74 267.71c-5 3.86-2.82 12.81 5 13.64a7 7 0 0 0 7.41-6.38 8.24 8.24 0 0 0 -8.14-8.7 6.81 6.81 0 0 0 -4.23 1.44"/></clipPath><linearGradient id="ap" gradientTransform="matrix(34.53 0 0 -34.53 -29077.98 18452.18)" x1="843.95" x2="850.67" xlink:href="#b" y1="526.41" y2="526.41"/><clipPath id="aq"><path d="m169.52 290.22c-4.71 4-2.54 13.12 4.89 13.85a7.18 7.18 0 0 0 7.57-6.69 8.19 8.19 0 0 0 -7.92-8.87 6.93 6.93 0 0 0 -4.54 1.71"/></clipPath><linearGradient id="ar" gradientTransform="matrix(33.42 0 0 -33.42 -28104.63 17869.85)" x1="843.68" x2="850.4" xlink:href="#b" y1="525.91" y2="525.91"/><clipPath id="as"><path d="m185.25 307.63c-4.94 3.91-3.09 13.24 4.35 14a7 7 0 0 0 7.61-6.11 8.16 8.16 0 0 0 -7.78-9.41 6.62 6.62 0 0 0 -4.18 1.48"/></clipPath><linearGradient id="at" gradientTransform="matrix(33.17 0 0 -33.17 -27889.88 17744.44)" x1="843.97" x2="850.69" xlink:href="#b" y1="525.47" y2="525.47"/><path d="m1234.56 146.98h616.52v418.78h-616.52z" fill="#fff"/><path d="m1246.42 158.46h592.81v395.21h-592.81z" fill="#164194"/><path d="m1530.19 244.57 12.51-9.13 12.51 9.13-4.76-14.76 12.7-9.13h-15.66l-4.79-14.95-4.79 14.96-15.66-.01 12.7 9.13z" fill="#fff100"/><path d="m1465.46 261.96 12.51-9.13 12.5 9.13-4.76-14.76 12.7-9.13h-15.66l-4.79-14.96-4.8 14.98-15.65-.02 12.7 9.13z" fill="#fff100"/><path d="m1430.6 270.58-4.79 14.98-15.66-.02 12.7 9.13-4.76 14.76 12.51-9.13 12.51 9.13-4.76-14.76 12.7-9.13h-15.66z" fill="#fff100"/><path d="m1413.22 364.96 12.5 9.12-4.75-14.76 12.7-9.13h-15.65l-4.8-14.95-4.79 14.99-15.66-.04 12.7 9.13-4.76 14.76z" fill="#fff100"/><path d="m1435.39 415.04-4.79-14.96-4.79 14.98-15.66-.02 12.7 9.13-4.76 14.76 12.51-9.14 12.51 9.14-4.76-14.76 12.7-9.13z" fill="#fff100"/><path d="m1482.85 462.5-4.79-14.94-4.79 14.95-15.66-.01 12.7 9.13-4.75 14.76 12.5-9.13 12.51 9.13-4.76-14.76 12.7-9.13z" fill="#fff100"/><path d="m1547.5 479.69-4.79-14.95-4.79 14.97-15.66-.02 12.7 9.13-4.75 14.77 12.51-9.13 12.5 9.13-4.76-14.77 12.7-9.13z" fill="#fff100"/><path d="m1612.15 462.5-4.78-14.94-4.8 14.95-15.65-.01 12.69 9.13-4.75 14.76 12.51-9.13 12.51 9.13-4.77-14.76 12.7-9.13z" fill="#fff100"/><path d="m1659.63 415.04-4.8-14.96-4.81 14.98-15.64-.02 12.7 9.13-4.76 14.76 12.51-9.14 12.5 9.14-4.76-14.76 12.7-9.13z" fill="#fff100"/><path d="m1692.47 350.01h-15.66l-4.81-14.95-4.78 14.97-15.66-.02 12.7 9.13-4.75 14.76 12.49-9.14 12.51 9.14-4.75-14.76z" fill="#fff100"/><path d="m1642.32 309.24 12.51-9.13 12.5 9.13-4.76-14.77 12.7-9.11h-15.64l-4.8-14.96-4.81 14.98-15.64-.02 12.7 9.11z" fill="#fff100"/><path d="m1607.55 223.13-4.79 14.97-15.66-.03 12.69 9.14-4.75 14.77 12.52-9.15 12.5 9.15-4.75-14.77 12.7-9.14h-15.68z" fill="#fff100"/><path d="m1381.77 666.23v-50.61h34.69v8.56h-24.46v12h21.12v8.56h-21.12v21.51z" fill="#164194"/><path d="m1448.94 666.23v-5.49a14.09 14.09 0 0 1 -5.26 4.62 14.75 14.75 0 0 1 -6.89 1.69 13.44 13.44 0 0 1 -6.62-1.62 9.55 9.55 0 0 1 -4.25-4.55 20.45 20.45 0 0 1 -1.31-8.12v-23.19h9.7v16.84c0 5.16.17 8.32.53 9.48a5.21 5.21 0 0 0 2 2.76 6 6 0 0 0 3.59 1 7.61 7.61 0 0 0 4.45-1.37 6.88 6.88 0 0 0 2.7-3.38q.72-2 .72-9.89v-15.44h9.7v36.66z" fill="#164194"/><path d="m1501.34 666.23h-9.7v-18.71q0-5.94-.62-7.68a5.42 5.42 0 0 0 -2-2.71 5.72 5.72 0 0 0 -3.37-1 7.79 7.79 0 0 0 -4.52 1.38 6.94 6.94 0 0 0 -2.74 3.66c-.5 1.52-.74 4.33-.74 8.42v16.61h-9.7v-36.63h9v5.43a15 15 0 0 1 17.94-5.05 9.68 9.68 0 0 1 4 3 10.51 10.51 0 0 1 1.9 4.07 30 30 0 0 1 .54 6.52z" fill="#164194"/><path d="m1544.8 666.23h-9v-5.39a14.48 14.48 0 0 1 -5.3 4.68 13.65 13.65 0 0 1 -6.16 1.53 13.94 13.94 0 0 1 -10.82-5.09q-4.52-5.09-4.51-14.2 0-9.32 4.39-14.17a14.29 14.29 0 0 1 11.08-4.85 13.73 13.73 0 0 1 10.63 5.11v-18.23h9.7zm-25.89-19.13q0 5.88 1.62 8.49a7.32 7.32 0 0 0 6.56 3.8 7.12 7.12 0 0 0 5.69-2.85q2.35-2.85 2.35-8.5 0-6.33-2.28-9.1a7.21 7.21 0 0 0 -5.83-2.78 7.31 7.31 0 0 0 -5.78 2.74q-2.32 2.76-2.33 8.2z" fill="#164194"/><path d="m1575.58 654.56 9.67 1.62a15.87 15.87 0 0 1 -5.89 8.1 17.29 17.29 0 0 1 -10.06 2.77q-9.55 0-14.15-6.24-3.63-5-3.62-12.64 0-9.1 4.76-14.27a15.69 15.69 0 0 1 12-5.16q8.19 0 12.91 5.4t4.53 16.55h-24.3a9.85 9.85 0 0 0 2.34 6.72 7.35 7.35 0 0 0 5.6 2.4 6 6 0 0 0 3.83-1.25 7.71 7.71 0 0 0 2.38-4zm.56-9.8a9.38 9.38 0 0 0 -2.18-6.41 7 7 0 0 0 -10.28.12 9 9 0 0 0 -2 6.29z" fill="#164194"/><path d="m1627.29 666.23h-9v-5.39a14.48 14.48 0 0 1 -5.3 4.68 13.61 13.61 0 0 1 -6.16 1.53 14 14 0 0 1 -10.83-5.05q-4.5-5.09-4.5-14.2 0-9.32 4.38-14.17a14.3 14.3 0 0 1 11.08-4.85 13.7 13.7 0 0 1 10.63 5.11v-18.27h9.7zm-25.89-19.13q0 5.88 1.63 8.49a7.31 7.31 0 0 0 6.55 3.8 7.14 7.14 0 0 0 5.7-2.85q2.34-2.85 2.34-8.5c0-4.22-.75-7.25-2.27-9.1a7.23 7.23 0 0 0 -5.84-2.78 7.32 7.32 0 0 0 -5.78 2.74q-2.32 2.76-2.33 8.2z" fill="#164194"/><path d="m1656.08 666.23v-50.61h9.7v18.23a13.7 13.7 0 0 1 10.63-5.11 14.32 14.32 0 0 1 11.08 4.85q4.38 4.85 4.38 13.93 0 9.39-4.47 14.46a14 14 0 0 1 -10.85 5.07 13.39 13.39 0 0 1 -6.2-1.57 14.74 14.74 0 0 1 -5.26-4.64v5.39zm9.63-19.13q0 5.7 1.79 8.43a7.69 7.69 0 0 0 6.7 3.86 6.86 6.86 0 0 0 5.47-2.74q2.26-2.74 2.26-8.65 0-6.29-2.28-9.06a7.21 7.21 0 0 0 -5.83-2.78 7.32 7.32 0 0 0 -5.8 2.71q-2.31 2.71-2.31 8.23z" fill="#164194"/><path d="m1695.08 629.57h10.32l8.77 26 8.56-26h10l-12.94 35.28-2.31 6.38a26 26 0 0 1 -2.44 4.9 10.58 10.58 0 0 1 -2.66 2.75 11.74 11.74 0 0 1 -3.69 1.64 19.22 19.22 0 0 1 -5 .58 25.78 25.78 0 0 1 -5.49-.58l-.86-7.6a21.33 21.33 0 0 0 4.1.45 6.1 6.1 0 0 0 5-2 13.93 13.93 0 0 0 2.49-5.06z" fill="#164194"/><path d="m1231.52 714.4v7.73h-6.63v14.77a37.85 37.85 0 0 0 .19 5.23 2.17 2.17 0 0 0 .86 1.23 2.79 2.79 0 0 0 1.65.48 12.66 12.66 0 0 0 3.9-.93l.82 7.52a19.2 19.2 0 0 1 -7.66 1.45 12.12 12.12 0 0 1 -4.73-.88 6.84 6.84 0 0 1 -3.09-2.28 9 9 0 0 1 -1.36-3.77 46.72 46.72 0 0 1 -.31-6.84v-16h-4.45v-7.71h4.45v-7.28l9.73-5.67v12.95z" fill="#164194"/><path d="m1247.92 700.45v18.61a14.53 14.53 0 0 1 17.25-4.25 9.87 9.87 0 0 1 4.06 3.18 11.4 11.4 0 0 1 1.86 4.28 37.68 37.68 0 0 1 .5 7.28v21.51h-9.69v-19.37q0-5.76-.56-7.32a4.83 4.83 0 0 0 -1.95-2.46 6.26 6.26 0 0 0 -3.5-.92 8.09 8.09 0 0 0 -4.32 1.17 6.81 6.81 0 0 0 -2.77 3.54 21.08 21.08 0 0 0 -.88 7v18.37h-9.7v-50.62z" fill="#164194"/><path d="m1302.66 739.39 9.66 1.62a15.9 15.9 0 0 1 -5.88 8.1 17.31 17.31 0 0 1 -10.06 2.77q-9.57 0-14.15-6.24-3.63-5-3.63-12.64 0-9.11 4.76-14.27a15.71 15.71 0 0 1 12.05-5.16q8.17 0 12.91 5.4t4.52 16.55h-24.3a9.81 9.81 0 0 0 2.35 6.72 7.35 7.35 0 0 0 5.59 2.4 5.92 5.92 0 0 0 3.83-1.25 7.65 7.65 0 0 0 2.35-4zm.55-9.8q-.11-4.22-2.17-6.41a6.67 6.67 0 0 0 -5-2.19 6.74 6.74 0 0 0 -5.25 2.31 9 9 0 0 0 -2 6.29z" fill="#164194"/><path d="m1340.46 751.06v-50.61h37.54v8.55h-27.31v11.22h25.41v8.53h-25.41v13.77h28.27v8.53z" fill="#164194"/><path d="m1411.66 751.06v-5.49a14.18 14.18 0 0 1 -5.26 4.62 14.75 14.75 0 0 1 -6.89 1.69 13.44 13.44 0 0 1 -6.62-1.62 9.6 9.6 0 0 1 -4.25-4.55 20.45 20.45 0 0 1 -1.31-8.12v-23.19h9.7v16.84q0 7.74.53 9.48a5.21 5.21 0 0 0 2 2.76 6 6 0 0 0 3.59 1 7.66 7.66 0 0 0 4.46-1.37 6.86 6.86 0 0 0 2.69-3.38q.72-2 .72-9.89v-15.44h9.7v36.66z" fill="#164194"/><path d="m1440 751.06h-9.7v-36.66h9v5.21a15.8 15.8 0 0 1 4.16-4.87 7.67 7.67 0 0 1 4.2-1.17 12.32 12.32 0 0 1 6.38 1.83l-3 8.46a8.51 8.51 0 0 0 -4.56-1.59 5.35 5.35 0 0 0 -3.45 1.12 7.7 7.7 0 0 0 -2.23 4.06q-.81 2.92-.81 12.28z" fill="#164194"/><path d="m1456 732.21a19.86 19.86 0 0 1 2.39-9.36 16.32 16.32 0 0 1 6.74-6.9 20 20 0 0 1 9.75-2.38 18.32 18.32 0 0 1 13.64 5.4 18.67 18.67 0 0 1 5.31 13.65 18.9 18.9 0 0 1 -5.36 13.79 18.15 18.15 0 0 1 -13.52 5.47 21.38 21.38 0 0 1 -9.61-2.27 15.6 15.6 0 0 1 -7-6.68 22.26 22.26 0 0 1 -2.34-10.72zm9.94.52c0 3.63.87 6.42 2.59 8.35a8.47 8.47 0 0 0 12.76 0q2.57-2.9 2.57-8.42t-2.57-8.29a8.47 8.47 0 0 0 -12.76 0c-1.74 1.94-2.61 4.72-2.61 8.36z" fill="#164194"/><path d="m1501.13 714.4h9v5.38a13.49 13.49 0 0 1 4.76-4.48 13.12 13.12 0 0 1 6.66-1.73 14 14 0 0 1 10.84 5q4.45 5 4.45 13.95 0 9.18-4.49 14.27a14 14 0 0 1 -10.87 5.09 12.47 12.47 0 0 1 -5.51-1.2 18.71 18.71 0 0 1 -5.19-4.15v18.47h-9.7zm9.6 17.71c0 4.11.81 7.16 2.45 9.13a7.5 7.5 0 0 0 6 3 7 7 0 0 0 5.63-2.71q2.23-2.72 2.24-8.89c0-3.84-.77-6.7-2.31-8.56a7.14 7.14 0 0 0 -5.73-2.8 7.47 7.47 0 0 0 -5.91 2.75q-2.37 2.69-2.37 8.08z" fill="#164194"/><path d="m1565.82 739.39 9.66 1.62a15.9 15.9 0 0 1 -5.88 8.1 17.34 17.34 0 0 1 -10.07 2.77q-9.55 0-14.15-6.24-3.62-5-3.62-12.64 0-9.11 4.76-14.27a15.69 15.69 0 0 1 12-5.16q8.17 0 12.91 5.4t4.52 16.55h-24.3a9.81 9.81 0 0 0 2.35 6.72 7.32 7.32 0 0 0 5.59 2.4 6 6 0 0 0 3.83-1.25 7.71 7.71 0 0 0 2.4-4zm.55-9.8q-.11-4.22-2.18-6.41a7 7 0 0 0 -10.28.12 9 9 0 0 0 -2 6.29z" fill="#164194"/><path d="m1591.15 725.58-8.8-1.59a13.73 13.73 0 0 1 5.11-7.87q3.61-2.55 10.77-2.55 6.48 0 9.66 1.54a9.57 9.57 0 0 1 4.47 3.9c.86 1.57 1.29 4.47 1.29 8.68l-.1 11.32a39.32 39.32 0 0 0 .47 7.13 20.85 20.85 0 0 0 1.74 4.92h-9.59c-.26-.65-.57-1.6-.94-2.87-.16-.58-.27-1-.34-1.14a17.62 17.62 0 0 1 -5.32 3.63 15.29 15.29 0 0 1 -6 1.2c-3.77 0-6.75-1-8.92-3.07a10.19 10.19 0 0 1 -3.26-7.76 10.39 10.39 0 0 1 1.48-5.54 9.66 9.66 0 0 1 4.16-3.73 32.13 32.13 0 0 1 7.72-2.26 52.27 52.27 0 0 0 9.42-2.39v-1q0-2.8-1.38-4t-5.21-1.19a6.94 6.94 0 0 0 -4 1 7.08 7.08 0 0 0 -2.43 3.64zm13 7.87a59.83 59.83 0 0 1 -5.9 1.49 17.33 17.33 0 0 0 -5.28 1.69 4 4 0 0 0 -1.9 3.41 4.75 4.75 0 0 0 1.52 3.53 5.33 5.33 0 0 0 3.86 1.48 8.43 8.43 0 0 0 5-1.73 6.07 6.07 0 0 0 2.31-3.21 19.3 19.3 0 0 0 .38-4.73z" fill="#164194"/><path d="m1656.56 751.06h-9.7v-18.71q0-5.94-.62-7.68a5.37 5.37 0 0 0 -2-2.71 5.71 5.71 0 0 0 -3.36-1 7.76 7.76 0 0 0 -4.52 1.38 6.91 6.91 0 0 0 -2.75 3.66c-.5 1.52-.74 4.33-.74 8.42v16.61h-9.7v-36.63h9v5.38q4.8-6.21 12.08-6.21a14.61 14.61 0 0 1 5.87 1.16 9.81 9.81 0 0 1 4 2.95 10.66 10.66 0 0 1 1.9 4.07 30.77 30.77 0 0 1 .53 6.52z" fill="#164194"/><path d="m1686 700.45h10.22v27.41a55.91 55.91 0 0 0 .38 8.46 8.11 8.11 0 0 0 3.12 5 10.85 10.85 0 0 0 6.75 1.89c2.9 0 5.08-.6 6.56-1.78a7 7 0 0 0 2.65-4.37 56.68 56.68 0 0 0 .45-8.59v-28h10.22v26.53q0 9.12-.83 12.88a14.32 14.32 0 0 1 -3 6.35 15.48 15.48 0 0 1 -6 4.12 25.75 25.75 0 0 1 -9.73 1.54q-7.26 0-11-1.68a15.53 15.53 0 0 1 -5.91-4.35 13.81 13.81 0 0 1 -2.87-5.6 61.29 61.29 0 0 1 -1-12.84z" fill="#164194"/><path d="m1770.43 751.06h-9.7v-18.71q0-5.94-.62-7.68a5.37 5.37 0 0 0 -2-2.71 5.71 5.71 0 0 0 -3.36-1 7.76 7.76 0 0 0 -4.52 1.38 6.91 6.91 0 0 0 -2.75 3.66c-.5 1.52-.74 4.33-.74 8.42v16.61h-9.74v-36.63h9v5.38q4.8-6.21 12.08-6.21a14.61 14.61 0 0 1 5.87 1.16 9.81 9.81 0 0 1 4 2.95 10.66 10.66 0 0 1 1.9 4.07 30.77 30.77 0 0 1 .53 6.52z" fill="#164194"/><path d="m1780.27 709.43v-9h9.7v9zm0 41.63v-36.66h9.7v36.66z" fill="#164194"/><path d="m1797.66 732.21a19.86 19.86 0 0 1 2.39-9.36 16.32 16.32 0 0 1 6.74-6.9 20 20 0 0 1 9.75-2.38 18.31 18.31 0 0 1 13.64 5.4 18.68 18.68 0 0 1 5.32 13.65 18.86 18.86 0 0 1 -5.37 13.79 18.14 18.14 0 0 1 -13.51 5.47 21.39 21.39 0 0 1 -9.62-2.27 15.6 15.6 0 0 1 -7-6.68 22.26 22.26 0 0 1 -2.34-10.72zm9.95.52c0 3.63.86 6.42 2.58 8.35a8.47 8.47 0 0 0 12.76 0q2.57-2.9 2.57-8.42t-2.57-8.29a8.47 8.47 0 0 0 -12.76 0c-1.72 1.94-2.58 4.72-2.58 8.36z" fill="#164194"/><path d="m1876.43 751.06h-9.7v-18.71q0-5.94-.62-7.68a5.37 5.37 0 0 0 -2-2.71 5.71 5.71 0 0 0 -3.36-1 7.76 7.76 0 0 0 -4.52 1.38 6.91 6.91 0 0 0 -2.75 3.66c-.5 1.52-.74 4.33-.74 8.42v16.61h-9.74v-36.63h9v5.38q4.8-6.21 12.08-6.21a14.61 14.61 0 0 1 5.87 1.16 9.81 9.81 0 0 1 4 2.95 10.66 10.66 0 0 1 1.9 4.07 30.77 30.77 0 0 1 .53 6.52z" fill="#164194"/><path d="m1080 42v812" fill="none" stroke="#164194" stroke-miterlimit="10" stroke-width="16"/><path d="m1000 161.24a67.41 67.41 0 0 0 -67.21-67.24h-857.32a67.41 67.41 0 0 0 -67.21 67.24v256.09a67.4 67.4 0 0 0 67.21 67.21h216.31v261.13a67.4 67.4 0 0 0 67.22 67.21h573.8a67.4 67.4 0 0 0 67.2-67.21z" fill="#fff"/><path d="m405.6 701.63a27 27 0 0 1 -3.48 2.13 20.11 20.11 0 0 1 -3.15 1.33 17.91 17.91 0 0 1 -3 .66 23.17 23.17 0 0 1 -3 .2 16.06 16.06 0 0 1 -6.24-1.18 13.43 13.43 0 0 1 -4.93-3.45 16 16 0 0 1 -3.23-5.59 22.87 22.87 0 0 1 -1.16-7.63 21.42 21.42 0 0 1 1.29-7.71 17.15 17.15 0 0 1 3.53-5.77 15.11 15.11 0 0 1 5.25-3.6 16.66 16.66 0 0 1 6.45-1.24c1 0 1.92 0 2.83.13a16.74 16.74 0 0 1 5.54 1.51 22.6 22.6 0 0 1 3 1.71l-1.55 4.31a19.83 19.83 0 0 0 -2.6-1.78 13.14 13.14 0 0 0 -2.46-1.1 12.13 12.13 0 0 0 -2.39-.55 17.21 17.21 0 0 0 -2.38-.17 12.18 12.18 0 0 0 -4.93 1 10.29 10.29 0 0 0 -3.74 2.72 12.54 12.54 0 0 0 -2.36 4.31 17.86 17.86 0 0 0 -.83 5.66 20.85 20.85 0 0 0 .78 5.94 13.23 13.23 0 0 0 2.24 4.49 9.71 9.71 0 0 0 3.54 2.84 10.58 10.58 0 0 0 4.63 1 18.24 18.24 0 0 0 2-.11 13 13 0 0 0 1.88-.37 15 15 0 0 0 1.9-.69 19.5 19.5 0 0 0 2.06-1.11v-8h-8.39v-4h12.9z" fill="#58585b"/><path d="m414.7 693.73a11.55 11.55 0 0 0 .66 3.66 7 7 0 0 0 1.64 2.61 6.38 6.38 0 0 0 2.39 1.52 8.84 8.84 0 0 0 3 .51 20.29 20.29 0 0 0 4.55-.53 15.22 15.22 0 0 0 4.43-1.87l.49 3.95a23.27 23.27 0 0 1 -2.5 1.1 22.74 22.74 0 0 1 -2.44.75 20.68 20.68 0 0 1 -2.48.41 22.45 22.45 0 0 1 -2.65.14 12.15 12.15 0 0 1 -4.38-.8 10.64 10.64 0 0 1 -3.67-2.37 11.62 11.62 0 0 1 -2.52-3.9 14.42 14.42 0 0 1 -.92-5.39 16.84 16.84 0 0 1 .8-5.38 11.7 11.7 0 0 1 2.29-4.12 9.8 9.8 0 0 1 3.61-2.63 12 12 0 0 1 4.79-.92 11.76 11.76 0 0 1 3.47.46 8.8 8.8 0 0 1 2.62 1.3 8 8 0 0 1 1.84 1.93 10.25 10.25 0 0 1 1.19 2.36 14.53 14.53 0 0 1 .63 2.66 19.2 19.2 0 0 1 .19 2.71v.94.93zm6.71-9.7a6.09 6.09 0 0 0 -4.31 1.54 8.18 8.18 0 0 0 -2.21 4.81h12.51a7.94 7.94 0 0 0 -.44-2.73 5.62 5.62 0 0 0 -1.25-2 5 5 0 0 0 -1.91-1.22 6.85 6.85 0 0 0 -2.39-.41" fill="#58585b"/><path d="m453.87 705.35v-13.18a18.92 18.92 0 0 0 -.3-3.71 6.37 6.37 0 0 0 -.89-2.31 3 3 0 0 0 -1.48-1.15 6 6 0 0 0 -2.13-.34 5.57 5.57 0 0 0 -2.52.61 9.18 9.18 0 0 0 -2.27 1.58 12 12 0 0 0 -1.81 2.19 10 10 0 0 0 -1.18 2.45v13.89h-4.43v-14.76a38.94 38.94 0 0 0 -.39-6 26 26 0 0 0 -.81-3.71h4.34a8.56 8.56 0 0 1 .29 1c.1.41.18.84.27 1.28s.14.89.21 1.31l.19 1.09a15.31 15.31 0 0 1 4.6-3.94 10.35 10.35 0 0 1 4.86-1.21 7.12 7.12 0 0 1 5.87 2.5c1.36 1.67 2 4.15 2 7.44v15z" fill="#58585b"/><path d="m467.16 693.73a11.55 11.55 0 0 0 .66 3.66 7 7 0 0 0 1.61 2.58 6.38 6.38 0 0 0 2.39 1.52 8.84 8.84 0 0 0 3 .51 20.29 20.29 0 0 0 4.55-.53 15.34 15.34 0 0 0 4.43-1.87l.48 3.95a23.14 23.14 0 0 1 -2.49 1.1 22.22 22.22 0 0 1 -2.45.75 20.36 20.36 0 0 1 -2.48.41 22.39 22.39 0 0 1 -2.64.14 12.21 12.21 0 0 1 -4.39-.8 10.69 10.69 0 0 1 -3.66-2.37 11.62 11.62 0 0 1 -2.52-3.9 14.42 14.42 0 0 1 -.93-5.39 17.12 17.12 0 0 1 .8-5.38 11.87 11.87 0 0 1 2.3-4.12 9.8 9.8 0 0 1 3.61-2.63 12 12 0 0 1 4.79-.92 11.76 11.76 0 0 1 3.47.46 8.8 8.8 0 0 1 2.62 1.3 8 8 0 0 1 1.84 1.93 10.67 10.67 0 0 1 1.19 2.36 14.53 14.53 0 0 1 .63 2.66 19.2 19.2 0 0 1 .19 2.71v.94.93zm6.71-9.7a6.09 6.09 0 0 0 -4.31 1.54 8.18 8.18 0 0 0 -2.21 4.81h12.51a7.7 7.7 0 0 0 -.45-2.73 5.46 5.46 0 0 0 -1.24-2 5 5 0 0 0 -1.91-1.22 6.85 6.85 0 0 0 -2.39-.41" fill="#58585b"/><path d="m486.33 681.51h4.79v-7.78h4.43v7.78h7.78v3.49h-7.78v11a22.22 22.22 0 0 0 .17 3 5.44 5.44 0 0 0 .55 1.84 2 2 0 0 0 1 .89 3.63 3.63 0 0 0 1.39.25 7.21 7.21 0 0 0 2.33-.46 17.93 17.93 0 0 0 2.87-1.35v3.83a11.07 11.07 0 0 1 -3.16 1.49 9.88 9.88 0 0 1 -5.42.1 5.2 5.2 0 0 1 -2.14-1.13 5.6 5.6 0 0 1 -1.45-2.17 9.62 9.62 0 0 1 -.52-3.44v-13.85h-4.79z" fill="#58585b"/><path d="m508.25 673.13a3.74 3.74 0 0 1 .21-1.26 3.08 3.08 0 0 1 .62-1 2.86 2.86 0 0 1 .94-.7 3.05 3.05 0 0 1 1.22-.24 3.24 3.24 0 0 1 1.25.24 3 3 0 0 1 1 .7 3.56 3.56 0 0 1 .66 1 3.52 3.52 0 0 1 .23 1.26 3.48 3.48 0 0 1 -.23 1.26 3.38 3.38 0 0 1 -.66 1 2.84 2.84 0 0 1 -1 .7 3.07 3.07 0 0 1 -1.25.26 2.9 2.9 0 0 1 -1.22-.26 2.73 2.73 0 0 1 -.94-.7 2.94 2.94 0 0 1 -.62-1 3.7 3.7 0 0 1 -.21-1.26m5.27 20.87v2.72s.06 2.1.1 3.17.08 2.09.14 3.07.13 1.78.2 2.42h-4.9v-12.72c0-1.17 0-2.32 0-3.46s0-2.2-.06-3.22-.06-2-.11-2.82-.1-1.62-.18-2.24h4.79z" fill="#58585b"/><path d="m539.14 703.31a15.17 15.17 0 0 1 -1.81 1.19 11.26 11.26 0 0 1 -1.88.82 12.17 12.17 0 0 1 -2.1.47 18.87 18.87 0 0 1 -2.47.16 11.9 11.9 0 0 1 -4.53-.85 10.81 10.81 0 0 1 -3.69-2.46 11.66 11.66 0 0 1 -2.49-3.88 13.65 13.65 0 0 1 -.91-5.14 14.82 14.82 0 0 1 .87-5.11 12.9 12.9 0 0 1 2.5-4.19 11.47 11.47 0 0 1 3.92-2.84 12.34 12.34 0 0 1 5.17-1 13.66 13.66 0 0 1 4.13.56 11.67 11.67 0 0 1 3 1.47l-.84 4.31a13.09 13.09 0 0 0 -3.24-1.79 9.75 9.75 0 0 0 -3.46-.6 7.43 7.43 0 0 0 -3 .6 7.13 7.13 0 0 0 -2.39 1.77 8 8 0 0 0 -1.59 2.82 11.55 11.55 0 0 0 -.58 3.79 10.94 10.94 0 0 0 .53 3.53 8.1 8.1 0 0 0 1.5 2.71 6.69 6.69 0 0 0 2.38 1.76 7.69 7.69 0 0 0 3.14.63 10 10 0 0 0 3.95-.75 12.37 12.37 0 0 0 3.35-2.13z" fill="#58585b"/><path d="m581.18 670.37v4.43a20.17 20.17 0 0 0 -2.84-.39c-.93 0-1.94-.08-3-.08h-5.76v20.59q0 3.55.09 6.27a23.7 23.7 0 0 0 .4 4.16h-5.52a24.72 24.72 0 0 0 .4-4.16c.06-1.81.08-3.9.08-6.27v-20.59h-5.63c-1.07 0-2.08 0-3 .08a20.24 20.24 0 0 0 -2.86.39v-4.43z" fill="#58585b"/><path d="m603.7 705.35q-.16-.4-.36-1c-.12-.37-.25-.76-.37-1.17s-.24-.85-.33-1.31a12.84 12.84 0 0 1 -.26-1.35 17.34 17.34 0 0 1 -4.49 4 9.41 9.41 0 0 1 -4.89 1.48q-7.66 0-7.67-10.3v-7.07c0-.77 0-1.46 0-2.09s0-1.22-.05-1.8-.08-1.18-.15-1.79-.15-1.27-.26-2h4.91v13.3a25.15 25.15 0 0 0 .2 3.5 7.58 7.58 0 0 0 .68 2.43 3.33 3.33 0 0 0 1.26 1.4 3.73 3.73 0 0 0 1.93.45 4.72 4.72 0 0 0 2.25-.63 11.14 11.14 0 0 0 2.29-1.62 16.34 16.34 0 0 0 2-2.16 11.34 11.34 0 0 0 1.37-2.29v-6.71c0-.78 0-1.49 0-2.12s0-1.23-.06-1.81-.08-1.16-.14-1.75-.15-1.25-.26-2h4.9v13.66a42 42 0 0 0 .4 6.12 23.5 23.5 0 0 0 1.16 4.66z" fill="#58585b"/><path d="m631.6 705.35h-4.43v-13.65a31.32 31.32 0 0 0 -.17-3.61 6.71 6.71 0 0 0 -.56-2.16 2.08 2.08 0 0 0 -1.07-1 4.68 4.68 0 0 0 -1.67-.26 4.59 4.59 0 0 0 -1.77.36 6.68 6.68 0 0 0 -1.7 1 8.83 8.83 0 0 0 -1.48 1.56 9.82 9.82 0 0 0 -1.16 2v15.81h-4.43v-14.78a37.45 37.45 0 0 0 -.41-6 31.46 31.46 0 0 0 -.8-3.71h4.32a13.71 13.71 0 0 1 .46 1.82c.12.68.23 1.32.31 1.9a16.46 16.46 0 0 1 2.1-2.09 10 10 0 0 1 2-1.28 8.81 8.81 0 0 1 2-.65 12.21 12.21 0 0 1 2-.17 6.48 6.48 0 0 1 2.13.33 5.9 5.9 0 0 1 1.69.89 5.67 5.67 0 0 1 1.26 1.28 6.61 6.61 0 0 1 .82 1.52 15.61 15.61 0 0 1 2.18-2 10.48 10.48 0 0 1 2.06-1.22 9.17 9.17 0 0 1 2-.63 11.39 11.39 0 0 1 1.91-.17 7.17 7.17 0 0 1 3.06.58 4.75 4.75 0 0 1 2 1.74 7.83 7.83 0 0 1 1.08 2.84 22 22 0 0 1 .32 3.94v15.81h-4.43v-13.18a32.42 32.42 0 0 0 -.17-3.78 7.28 7.28 0 0 0 -.56-2.3 2.23 2.23 0 0 0 -1.06-1.15 4.13 4.13 0 0 0 -1.68-.31 4.48 4.48 0 0 0 -1.75.37 6.91 6.91 0 0 0 -1.67 1 8.15 8.15 0 0 0 -1.47 1.56 10.93 10.93 0 0 0 -1.22 2z" fill="#58585b"/><path d="m650.21 693.25a15 15 0 0 1 .94-5.47 11.86 11.86 0 0 1 2.52-4 10.19 10.19 0 0 1 3.68-2.48 12 12 0 0 1 4.48-.84 11.85 11.85 0 0 1 4.52.84 9.45 9.45 0 0 1 3.52 2.48 11.59 11.59 0 0 1 2.29 4 17 17 0 0 1 .82 5.47 14.62 14.62 0 0 1 -1 5.46 11.33 11.33 0 0 1 -2.51 4 10.41 10.41 0 0 1 -3.69 2.43 12.16 12.16 0 0 1 -4.47.83 12 12 0 0 1 -4.52-.83 9.51 9.51 0 0 1 -3.52-2.43 10.93 10.93 0 0 1 -2.29-4 16.81 16.81 0 0 1 -.82-5.46m4.44 0a12.68 12.68 0 0 0 .5 3.74 8.15 8.15 0 0 0 1.42 2.79 6.08 6.08 0 0 0 2.19 1.73 6.44 6.44 0 0 0 2.83.6 6.21 6.21 0 0 0 2.72-.6 6.32 6.32 0 0 0 2.21-1.73 8.42 8.42 0 0 0 1.53-2.78 12 12 0 0 0 .54-3.74 13.24 13.24 0 0 0 -.5-3.77 8.66 8.66 0 0 0 -1.43-2.83 6.12 6.12 0 0 0 -2.2-1.77 6.43 6.43 0 0 0 -2.82-.61 6.19 6.19 0 0 0 -4.93 2.38 8.53 8.53 0 0 0 -1.47 2.83 11.92 11.92 0 0 0 -.54 3.77" fill="#58585b"/><path d="m696.52 705.35q-.16-.4-.36-1c-.12-.37-.25-.76-.36-1.17a12.53 12.53 0 0 1 -.34-1.31 12.84 12.84 0 0 1 -.26-1.35 17.34 17.34 0 0 1 -4.49 4 9.38 9.38 0 0 1 -4.85 1.37q-7.67 0-7.67-10.3v-7.07c0-.77 0-1.46 0-2.09s0-1.22 0-1.8-.08-1.18-.15-1.79-.15-1.27-.26-2h4.91v13.3a25.15 25.15 0 0 0 .2 3.5 7.84 7.84 0 0 0 .68 2.43 3.33 3.33 0 0 0 1.26 1.4 3.73 3.73 0 0 0 1.93.45 4.72 4.72 0 0 0 2.25-.63 11.14 11.14 0 0 0 2.29-1.62 16.34 16.34 0 0 0 2-2.16 11.9 11.9 0 0 0 1.38-2.29v-6.71c0-.78 0-1.49 0-2.12s0-1.23-.06-1.81-.08-1.16-.14-1.75-.15-1.25-.26-2h4.78v13.66a42 42 0 0 0 .4 6.12 23.5 23.5 0 0 0 1.16 4.66z" fill="#58585b"/><path d="m705.5 705.35v-14.73a38.79 38.79 0 0 0 -.4-6 27.83 27.83 0 0 0 -.8-3.71h4.31a8.56 8.56 0 0 1 .29 1c.1.41.18.84.26 1.28s.15.89.22 1.31l.18 1.09a14.16 14.16 0 0 1 1.89-2.21 14.63 14.63 0 0 1 2.06-1.61 9.35 9.35 0 0 1 2-1 5.79 5.79 0 0 1 1.8-.33 4.71 4.71 0 0 1 2.56.65 5.22 5.22 0 0 1 1.69 1.77 8.2 8.2 0 0 1 1 2.57 14.9 14.9 0 0 1 .3 3l-3.83.83a8.6 8.6 0 0 0 -.17-1.7 5.33 5.33 0 0 0 -.5-1.46 2.66 2.66 0 0 0 -.85-1 2 2 0 0 0 -1.23-.37 3.23 3.23 0 0 0 -1.7.58 9.19 9.19 0 0 0 -1.84 1.55 15.89 15.89 0 0 0 -1.66 2.15 9.93 9.93 0 0 0 -1.15 2.43v13.89z" fill="#58585b"/><path d="m742.86 694.92v3.36s0 2 0 2.93.06 1.69.11 2.4a15.65 15.65 0 0 0 .2 1.74h-5.17a26.83 26.83 0 0 0 .3-4.16c0-1.8 0-3.9 0-6.27v-16.92c0-1.12 0-2.16 0-3.13s0-1.83-.1-2.6a16.44 16.44 0 0 0 -.21-1.87l2.75-.11c.86 0 1.88-.06 3.07-.09s2.47 0 3.87 0a21.55 21.55 0 0 1 5.13.57 11.23 11.23 0 0 1 4 1.75 8.05 8.05 0 0 1 2.58 3 11.18 11.18 0 0 1 .23 8.31 9.35 9.35 0 0 1 -1.79 2.89 10.29 10.29 0 0 1 -2.52 2 13.43 13.43 0 0 1 -2.88 1.2l1.76 2.41 2.23 3c.79 1.06 1.58 2.14 2.39 3.24l2.26 3c.71.92 1.33 1.73 1.85 2.39l1.1 1.37h-6.1l-10.11-15h-4.87zm0-8.26h4.56c2.71 0 4.77-.55 6.17-1.67a5.63 5.63 0 0 0 2.09-4.67 7.47 7.47 0 0 0 -.47-2.73 4.77 4.77 0 0 0 -1.46-2 6.78 6.78 0 0 0 -2.56-1.22 14.76 14.76 0 0 0 -3.77-.43c-.85 0-1.66 0-2.44 0l-2.12.09z" fill="#58585b"/><path d="m768 673.13a3.74 3.74 0 0 1 .21-1.26 3.26 3.26 0 0 1 .62-1 2.86 2.86 0 0 1 .94-.7 3.05 3.05 0 0 1 1.22-.24 3.24 3.24 0 0 1 1.25.24 2.88 2.88 0 0 1 1 .7 3.56 3.56 0 0 1 .66 1 3.52 3.52 0 0 1 .23 1.26 3.48 3.48 0 0 1 -.23 1.26 3.38 3.38 0 0 1 -.66 1 2.75 2.75 0 0 1 -1 .7 3.07 3.07 0 0 1 -1.25.26 2.9 2.9 0 0 1 -1.22-.26 2.73 2.73 0 0 1 -.94-.7 3.1 3.1 0 0 1 -.62-1 3.7 3.7 0 0 1 -.21-1.26m5.29 20.87v2.72s.06 2.1.1 3.17.08 2.09.14 3.07.13 1.78.21 2.42h-4.91v-12.72c0-1.17 0-2.32 0-3.46s0-2.2-.06-3.22-.06-2-.11-2.82-.1-1.62-.18-2.24h4.79z" fill="#58585b"/><path d="m795.92 686.55c-.41-.25-.86-.49-1.37-.76s-1.06-.5-1.66-.74a14.9 14.9 0 0 0 -1.92-.55 9.77 9.77 0 0 0 -2.12-.23 7.31 7.31 0 0 0 -2.21.29 3.88 3.88 0 0 0 -1.44.73 2.55 2.55 0 0 0 -.78 1 2.79 2.79 0 0 0 -.24 1.09 2.85 2.85 0 0 0 .19 1.1 2.07 2.07 0 0 0 .8.89 7.59 7.59 0 0 0 1.74.79 28.5 28.5 0 0 0 3 .81 19.54 19.54 0 0 1 3.06.93 9.46 9.46 0 0 1 2.52 1.43 6.24 6.24 0 0 1 1.7 2.06 6.86 6.86 0 0 1 -.1 5.91 7.88 7.88 0 0 1 -2 2.44 9.61 9.61 0 0 1 -2.92 1.62 11 11 0 0 1 -3.62.59 18.28 18.28 0 0 1 -2.81-.22 15.5 15.5 0 0 1 -2.54-.6 14.43 14.43 0 0 1 -2.17-.88 11.37 11.37 0 0 1 -1.7-1l1.2-4.32a11.58 11.58 0 0 0 1.83 1.32 15.12 15.12 0 0 0 2.1 1 13.39 13.39 0 0 0 2.16.66 10.17 10.17 0 0 0 2.05.22 6.21 6.21 0 0 0 1.93-.28 5.28 5.28 0 0 0 1.51-.71 3.33 3.33 0 0 0 1-1 2.31 2.31 0 0 0 .37-1.21 3 3 0 0 0 -.28-1.26 3.25 3.25 0 0 0 -1-1.13 9.28 9.28 0 0 0 -2-1 25.72 25.72 0 0 0 -3.3-1 15.74 15.74 0 0 1 -3.55-1.25 7.73 7.73 0 0 1 -2.16-1.57 4.93 4.93 0 0 1 -1.07-1.87 7.85 7.85 0 0 1 -.29-2.14 5.58 5.58 0 0 1 .19-1.29 6.57 6.57 0 0 1 .6-1.55 7.73 7.73 0 0 1 1.1-1.57 6.9 6.9 0 0 1 1.71-1.4 10.36 10.36 0 0 1 2.42-1 12.42 12.42 0 0 1 3.21-.37 18.59 18.59 0 0 1 2.43.16 15.9 15.9 0 0 1 2.09.45 13.37 13.37 0 0 1 1.73.62c.53.23 1 .46 1.42.68z" fill="#58585b"/><path d="m802.26 705.35v-27.07q0-3.88 0-6.79a32.15 32.15 0 0 0 -.32-4.47h4.79v23.98l9.71-10h6l-11.87 10.72 12.59 13.72h-5.87l-10.55-12.46v12.46z" fill="#58585b"/><path d="m398.05 730.37c-.86-.48-1.65-.88-2.37-1.21a18.47 18.47 0 0 0 -2.13-.82 13.9 13.9 0 0 0 -2.06-.47 16.76 16.76 0 0 0 -2.18-.14 7.58 7.58 0 0 0 -2.62.43 6.91 6.91 0 0 0 -2.05 1.15 5.14 5.14 0 0 0 -1.33 1.66 4.24 4.24 0 0 0 -.47 1.91 5.56 5.56 0 0 0 .27 1.79 3.5 3.5 0 0 0 1.12 1.5 9.56 9.56 0 0 0 2.4 1.39 32.2 32.2 0 0 0 4.12 1.43 26.93 26.93 0 0 1 4.2 1.61 12.68 12.68 0 0 1 3.08 2.13 8.18 8.18 0 0 1 1.89 2.73 8.89 8.89 0 0 1 .65 3.48 10.05 10.05 0 0 1 -.95 4.39 10.23 10.23 0 0 1 -2.58 3.4 12 12 0 0 1 -3.82 2.21 13.93 13.93 0 0 1 -4.63.77 23 23 0 0 1 -6.45-.91 17.05 17.05 0 0 1 -2.67-1 10.86 10.86 0 0 1 -2.13-1.3l1.07-4.92a16 16 0 0 0 4.95 3 15.14 15.14 0 0 0 5.23.93 9.26 9.26 0 0 0 2.78-.41 7.42 7.42 0 0 0 2.37-1.18 5.86 5.86 0 0 0 1.65-1.92 5.58 5.58 0 0 0 .33-4.38 4 4 0 0 0 -1.21-1.67 10.74 10.74 0 0 0 -2.61-1.61 31.92 31.92 0 0 0 -4.5-1.64 22.45 22.45 0 0 1 -4.58-1.85 10.21 10.21 0 0 1 -2.78-2.19 6.76 6.76 0 0 1 -1.38-2.54 11.22 11.22 0 0 1 -.36-2.89 9.36 9.36 0 0 1 .62-3.24 9.62 9.62 0 0 1 2-3.13 10.91 10.91 0 0 1 3.51-2.38 12.42 12.42 0 0 1 5.12-1c.92 0 1.79 0 2.6.12a20.19 20.19 0 0 1 2.35.38 18 18 0 0 1 2.24.68 21.44 21.44 0 0 1 2.28 1z" fill="#58585b"/><path d="m417.82 759.11a40.1 40.1 0 0 1 -2.44 5.63 15.85 15.85 0 0 1 -2.44 3.45 6.73 6.73 0 0 1 -2.56 1.71 8.33 8.33 0 0 1 -2.86.48 9.25 9.25 0 0 1 -3.1-.53 10.62 10.62 0 0 1 -2.77-1.52l1.44-3.83a9.79 9.79 0 0 0 .89.63 7.3 7.3 0 0 0 1.11.58 10.18 10.18 0 0 0 1.21.42 4.72 4.72 0 0 0 1.22.17 4.13 4.13 0 0 0 1.42-.25 4.18 4.18 0 0 0 1.4-1 10.17 10.17 0 0 0 1.45-2 27.34 27.34 0 0 0 1.58-3.36l-6.68-16.55c-.46-1.09-1-2.32-1.57-3.67s-1.34-3-2.27-4.84h4.79l7.74 19.57c.31-.86.63-1.8 1-2.82s.73-2.06 1.12-3.13.76-2.17 1.15-3.26.74-2.14 1.1-3.15l2.51-7.21h4.74c-.41.92-.78 1.78-1.13 2.57l-.93 2.23c-.29.7-.54 1.35-.78 1.95s-.44 1.2-.63 1.76z" fill="#58585b"/><path d="m447.16 759.11v-13.18a19.06 19.06 0 0 0 -.3-3.71 6.24 6.24 0 0 0 -.88-2.3 3.07 3.07 0 0 0 -1.49-1.19 6.16 6.16 0 0 0 -2.12-.34 5.61 5.61 0 0 0 -2.53.61 9.4 9.4 0 0 0 -2.26 1.58 11.77 11.77 0 0 0 -1.82 2.2 10.5 10.5 0 0 0 -1.18 2.44v13.89h-4.42v-14.73a38.89 38.89 0 0 0 -.4-6 25.85 25.85 0 0 0 -.81-3.7h4.32a9.9 9.9 0 0 1 .29 1c.09.41.18.84.26 1.29s.15.88.21 1.31l.19 1.08a15.5 15.5 0 0 1 4.61-3.94 10.28 10.28 0 0 1 4.85-1.21 7.12 7.12 0 0 1 5.87 2.5c1.37 1.67 2 4.15 2 7.44v15z" fill="#58585b"/><path d="m478.42 746.42a48.71 48.71 0 0 0 .51 7.6 27.29 27.29 0 0 0 1.29 5.09h-4.32c-.17-.41-.38-1-.63-1.85s-.48-1.68-.68-2.58a12.71 12.71 0 0 1 -3.9 3.73 9.28 9.28 0 0 1 -4.85 1.3 9.06 9.06 0 0 1 -4-.83 8.61 8.61 0 0 1 -3-2.34 11 11 0 0 1 -1.93-3.67 16.19 16.19 0 0 1 -.67-4.78 18 18 0 0 1 .87-5.74 13.42 13.42 0 0 1 2.42-4.38 10.67 10.67 0 0 1 3.6-2.79 10.39 10.39 0 0 1 4.49-1 8.14 8.14 0 0 1 1.6.17 12.65 12.65 0 0 1 1.65.45 15.1 15.1 0 0 1 1.61.66c.53.25 1 .5 1.49.76v-6.71c0-1.93 0-3.62-.14-5.07a23.42 23.42 0 0 0 -.46-3.67h5zm-4.42-6.35c-.59-.32-1.14-.59-1.65-.82a12.14 12.14 0 0 0 -1.52-.55 9.53 9.53 0 0 0 -1.5-.32 12.36 12.36 0 0 0 -1.68-.11 5.83 5.83 0 0 0 -2.61.62 6.86 6.86 0 0 0 -2.21 1.8 8.89 8.89 0 0 0 -1.55 2.86 11.94 11.94 0 0 0 -.58 3.83 11.55 11.55 0 0 0 1.43 6.34 5.06 5.06 0 0 0 4.56 2.16 4.86 4.86 0 0 0 2.19-.55 9.18 9.18 0 0 0 2.07-1.44 12.76 12.76 0 0 0 1.76-2 13.48 13.48 0 0 0 1.29-2.34z" fill="#58585b"/><path d="m484.89 759.11v-14.73a37.67 37.67 0 0 0 -.4-6 27.61 27.61 0 0 0 -.8-3.7h4.31a7.8 7.8 0 0 1 .29 1c.1.41.18.84.26 1.29s.15.88.22 1.31l.19 1.08a13.6 13.6 0 0 1 1.88-2.21 14.63 14.63 0 0 1 2.06-1.61 9.29 9.29 0 0 1 2-1 5.55 5.55 0 0 1 1.8-.34 4.62 4.62 0 0 1 2.56.66 5.12 5.12 0 0 1 1.69 1.77 7.91 7.91 0 0 1 1 2.56 15 15 0 0 1 .31 3l-3.83.84a8.62 8.62 0 0 0 -.18-1.71 5.45 5.45 0 0 0 -.5-1.46 2.74 2.74 0 0 0 -.85-1 2.08 2.08 0 0 0 -1.23-.37 3.32 3.32 0 0 0 -1.7.58 9.9 9.9 0 0 0 -1.84 1.55 15.39 15.39 0 0 0 -1.66 2.16 10 10 0 0 0 -1.15 2.42v13.89z" fill="#58585b"/><path d="m503.38 747a14.89 14.89 0 0 1 .93-5.47 12 12 0 0 1 2.52-4 10.49 10.49 0 0 1 3.69-2.48 12 12 0 0 1 4.48-.84 11.76 11.76 0 0 1 4.51.84 9.64 9.64 0 0 1 3.53 2.48 11.37 11.37 0 0 1 2.28 4 16.61 16.61 0 0 1 .82 5.47 14.61 14.61 0 0 1 -.94 5.45 11.62 11.62 0 0 1 -2.51 4 10.66 10.66 0 0 1 -3.69 2.44 12.24 12.24 0 0 1 -4.48.82 11.91 11.91 0 0 1 -4.51-.82 9.61 9.61 0 0 1 -3.53-2.44 11.22 11.22 0 0 1 -2.29-4 16.8 16.8 0 0 1 -.81-5.45m4.43 0a13 13 0 0 0 .5 3.73 8.08 8.08 0 0 0 1.43 2.79 6.13 6.13 0 0 0 2.19 1.74 6.52 6.52 0 0 0 2.83.59 6.27 6.27 0 0 0 2.71-.59 6.47 6.47 0 0 0 2.21-1.74 8.15 8.15 0 0 0 1.48-2.79 12 12 0 0 0 .55-3.73 13 13 0 0 0 -.51-3.78 8.31 8.31 0 0 0 -1.42-2.82 6.2 6.2 0 0 0 -2.21-1.78 6.39 6.39 0 0 0 -2.81-.61 6.17 6.17 0 0 0 -2.73.61 6.38 6.38 0 0 0 -2.21 1.78 8.75 8.75 0 0 0 -1.47 2.82 12.28 12.28 0 0 0 -.54 3.78" fill="#58585b"/><path d="m550.28 759.11h-4.43v-13.65a29 29 0 0 0 -.18-3.61 6.35 6.35 0 0 0 -.55-2.15 2 2 0 0 0 -1.07-1 4.51 4.51 0 0 0 -1.68-.27 4.42 4.42 0 0 0 -1.76.37 6.36 6.36 0 0 0 -1.7 1 9.19 9.19 0 0 0 -1.48 1.56 10.67 10.67 0 0 0 -1.17 2v15.81h-4.42v-14.79a37.54 37.54 0 0 0 -.41-6 31.2 31.2 0 0 0 -.8-3.7h4.37a12.25 12.25 0 0 1 .45 1.81c.13.69.23 1.33.31 1.9a18.71 18.71 0 0 1 2.11-2.09 10.39 10.39 0 0 1 2-1.27 8.23 8.23 0 0 1 2-.66 12.12 12.12 0 0 1 2-.17 6.26 6.26 0 0 1 2.13.34 5.88 5.88 0 0 1 1.69.88 6.11 6.11 0 0 1 1.26 1.28 6.47 6.47 0 0 1 .82 1.53 15.7 15.7 0 0 1 2.17-2 11.63 11.63 0 0 1 2.06-1.23 9.17 9.17 0 0 1 2-.63 11.37 11.37 0 0 1 1.9-.17 7.19 7.19 0 0 1 3.07.58 4.7 4.7 0 0 1 2 1.75 7.76 7.76 0 0 1 1.08 2.84 21.76 21.76 0 0 1 .32 3.93v15.81h-4.43v-13.18a32.12 32.12 0 0 0 -.17-3.77 7.42 7.42 0 0 0 -.56-2.31 2.23 2.23 0 0 0 -1.06-1.15 4.13 4.13 0 0 0 -1.68-.31 4.63 4.63 0 0 0 -1.75.35 6.64 6.64 0 0 0 -1.67 1 8.11 8.11 0 0 0 -1.48 1.55 10.89 10.89 0 0 0 -1.21 2z" fill="#58585b"/><path d="m573.64 747.49a11.35 11.35 0 0 0 .65 3.67 7 7 0 0 0 1.61 2.58 6.51 6.51 0 0 0 2.39 1.52 8.84 8.84 0 0 0 3 .5 20.28 20.28 0 0 0 4.55-.52 15.53 15.53 0 0 0 4.43-1.88l.49 3.95a21.44 21.44 0 0 1 -2.5 1.1 19.44 19.44 0 0 1 -4.92 1.17 24.83 24.83 0 0 1 -2.64.13 12.17 12.17 0 0 1 -4.39-.8 10.73 10.73 0 0 1 -3.67-2.37 11.62 11.62 0 0 1 -2.52-3.9 14.59 14.59 0 0 1 -.92-5.39 16.78 16.78 0 0 1 .8-5.37 11.7 11.7 0 0 1 2.29-4.12 9.58 9.58 0 0 1 3.61-2.63 11.88 11.88 0 0 1 4.8-.93 12.08 12.08 0 0 1 3.46.46 8.8 8.8 0 0 1 2.62 1.3 8 8 0 0 1 1.84 1.93 10.32 10.32 0 0 1 1.19 2.37 14.23 14.23 0 0 1 .63 2.65 19.24 19.24 0 0 1 .19 2.72v.93.93zm6.7-9.69a6.13 6.13 0 0 0 -4.31 1.53 8.18 8.18 0 0 0 -2.21 4.81h12.51a7.88 7.88 0 0 0 -.44-2.72 5.58 5.58 0 0 0 -1.25-2 5 5 0 0 0 -1.91-1.21 6.63 6.63 0 0 0 -2.39-.41" fill="#58585b"/><path d="m611.24 740.31c-.4-.24-.85-.49-1.36-.75a17.41 17.41 0 0 0 -1.67-.74 14.89 14.89 0 0 0 -1.92-.56 9.7 9.7 0 0 0 -2.12-.23 7.36 7.36 0 0 0 -2.21.29 4.31 4.31 0 0 0 -1.44.73 2.73 2.73 0 0 0 -.78 1 3 3 0 0 0 -.23 1.09 3.11 3.11 0 0 0 .18 1.11 2 2 0 0 0 .8.88 7.46 7.46 0 0 0 1.75.8c.74.25 1.75.52 3 .81a18 18 0 0 1 3.07.93 9.26 9.26 0 0 1 2.51 1.42 6 6 0 0 1 2.33 4.95 6.44 6.44 0 0 1 -.72 3 7.8 7.8 0 0 1 -2 2.44 9.4 9.4 0 0 1 -2.92 1.63 11.11 11.11 0 0 1 -3.61.58 17.14 17.14 0 0 1 -2.82-.22 16.89 16.89 0 0 1 -2.54-.59 14.3 14.3 0 0 1 -2.16-.89 10.46 10.46 0 0 1 -1.71-1l1.2-4.32a11.88 11.88 0 0 0 1.83 1.32 14.57 14.57 0 0 0 2.1 1 12.3 12.3 0 0 0 2.17.66 9.43 9.43 0 0 0 2 .22 6.26 6.26 0 0 0 1.93-.27 5.49 5.49 0 0 0 1.5-.71 3.75 3.75 0 0 0 1-1 2.33 2.33 0 0 0 .36-1.22 3 3 0 0 0 -.28-1.25 3.16 3.16 0 0 0 -1-1.13 9.72 9.72 0 0 0 -2-1 27.77 27.77 0 0 0 -3.29-1 15.19 15.19 0 0 1 -3.49-1.29 7.68 7.68 0 0 1 -2.16-1.57 5.13 5.13 0 0 1 -1.07-1.87 8.23 8.23 0 0 1 -.28-2.13 5.66 5.66 0 0 1 .18-1.3 7.57 7.57 0 0 1 .6-1.55 8.47 8.47 0 0 1 1.1-1.57 6.83 6.83 0 0 1 1.71-1.39 9.86 9.86 0 0 1 2.43-1 12.26 12.26 0 0 1 3.2-.38 17.1 17.1 0 0 1 2.44.17 14.61 14.61 0 0 1 2.08.44 13.37 13.37 0 0 1 1.73.62c.53.24 1 .46 1.42.69z" fill="#58585b"/><path d="m628.48 746.81a30.17 30.17 0 0 1 .62-6.22 26.94 26.94 0 0 1 1.75-5.56 21.64 21.64 0 0 1 2.74-4.66 18.36 18.36 0 0 1 3.55-3.55l1.48 3a17 17 0 0 0 -3 3.36 19.06 19.06 0 0 0 -2 4 23.46 23.46 0 0 0 -1.11 4.55 35.43 35.43 0 0 0 -.34 5 33.9 33.9 0 0 0 .34 4.91 24.08 24.08 0 0 0 1.11 4.52 23.49 23.49 0 0 0 2 4.18 24.1 24.1 0 0 0 3 3.91l-1.88 2.85a29.76 29.76 0 0 1 -6.16-9.29 28.51 28.51 0 0 1 -2.1-11.08" fill="#58585b"/><path d="m659.87 742.48v3.15h-11.22v10.23h5.2 4.92a20.61 20.61 0 0 0 3.17-.25v3.55h-17.33a21.12 21.12 0 0 0 .26-3.42c0-1.49 0-3.21 0-5.15v-11.66c0-1.94 0-3.65 0-5.15a20.77 20.77 0 0 0 -.26-3.41h16.74v3.25h-12.7v8.86z" fill="#58585b"/><path d="m671.08 750.55v2.76s0 1.66 0 2.39 0 1.4.09 2a13.06 13.06 0 0 0 .16 1.44h-4.33a21.72 21.72 0 0 0 .27-3.41c0-1.49 0-3.21 0-5.15v-13.97c0-.92 0-1.77 0-2.57s0-1.51-.09-2.14a11.75 11.75 0 0 0 -.18-1.53l2.27-.1 2.52-.08h3.19a18.41 18.41 0 0 1 4.21.46 9.39 9.39 0 0 1 3.25 1.45 6.46 6.46 0 0 1 2.12 2.5 8.27 8.27 0 0 1 .76 3.66 8 8 0 0 1 -.57 3.17 7.66 7.66 0 0 1 -1.47 2.37 8.23 8.23 0 0 1 -2.08 1.65 11.39 11.39 0 0 1 -2.36 1l1.45 2c.56.79 1.18 1.62 1.82 2.48s1.31 1.76 2 2.66 1.29 1.73 1.87 2.49 1.08 1.42 1.51 2 .74.93.91 1.12h-5l-8.31-12.3h-4zm0-6.79h3.75a8 8 0 0 0 5.07-1.38 4.66 4.66 0 0 0 1.71-3.84 6.23 6.23 0 0 0 -.37-2.24 4.15 4.15 0 0 0 -1.21-1.63 5.87 5.87 0 0 0 -2.1-1 12.71 12.71 0 0 0 -3.1-.34q-1.05 0-2 0l-1.74.07z" fill="#58585b"/><path d="m695.88 736.43v22.68h-3.54a23.29 23.29 0 0 0 .26-3.41c0-1.49 0-3.21 0-5.15v-11.62c0-1.94 0-3.65 0-5.15a23.54 23.54 0 0 0 -.26-3.41h3.54l15.66 22.77v-22.77h3.54c-.06.39-.12.88-.16 1.45s-.07 1.24-.08 2 0 1.53 0 2.4 0 1.78 0 2.75v20.18h-3.25z" fill="#58585b"/><path d="m753.85 756.06a24 24 0 0 1 -2.86 1.75 17 17 0 0 1 -2.6 1.09 15.16 15.16 0 0 1 -2.48.55 18.55 18.55 0 0 1 -2.5.15 13.39 13.39 0 0 1 -5.13-1 11.08 11.08 0 0 1 -4-2.83 13.07 13.07 0 0 1 -2.66-4.6 18.87 18.87 0 0 1 -1-6.27 17.77 17.77 0 0 1 1.06-6.35 13.93 13.93 0 0 1 2.91-4.73 12.22 12.22 0 0 1 4.3-3 13.61 13.61 0 0 1 5.31-1 21.74 21.74 0 0 1 2.32.11 13.62 13.62 0 0 1 2.25.4 14.42 14.42 0 0 1 2.32.83 19.48 19.48 0 0 1 2.46 1.41l-1.27 3.54a17 17 0 0 0 -2.14-1.46 12.65 12.65 0 0 0 -2-.91 10.85 10.85 0 0 0 -2-.45 14.23 14.23 0 0 0 -2-.13 10.16 10.16 0 0 0 -4.05.79 8.45 8.45 0 0 0 -3.08 2.25 9.86 9.86 0 0 0 -1.93 3.53 14.7 14.7 0 0 0 -.69 4.65 17.13 17.13 0 0 0 .65 4.89 10.81 10.81 0 0 0 1.83 3.69 8.22 8.22 0 0 0 2.91 2.34 8.87 8.87 0 0 0 3.81.8 14.46 14.46 0 0 0 1.66-.09 10.34 10.34 0 0 0 1.55-.3 11.31 11.31 0 0 0 1.55-.58 13.54 13.54 0 0 0 1.7-.9v-6.6h-6.89v-3.25h10.63z" fill="#58585b"/><path d="m774.71 742.48v3.15h-11.23v10.23h5.2 4.92a20.76 20.76 0 0 0 3.18-.25v3.55h-17.34a22.09 22.09 0 0 0 .27-3.42c0-1.49 0-3.21 0-5.15v-11.66c0-1.94 0-3.65 0-5.15a21.72 21.72 0 0 0 -.27-3.41h16.74v3.25h-12.7v8.86z" fill="#58585b"/><path d="m785.43 736.43v22.68h-3.54a22.21 22.21 0 0 0 .25-3.41c0-1.49 0-3.21 0-5.15v-11.62c0-1.94 0-3.65 0-5.15a22.43 22.43 0 0 0 -.25-3.41h3.54l15.65 22.77v-22.77h3.54c-.06.39-.11.88-.15 1.45s-.07 1.24-.09 2 0 1.53 0 2.4 0 1.78 0 2.75v20.18h-3.25z" fill="#58585b"/><path d="m831.49 730.37v3.63a14.61 14.61 0 0 0 -2.34-.32c-.76-.05-1.59-.08-2.49-.08h-4.72v16.94c0 1.94 0 3.66.07 5.15a18.54 18.54 0 0 0 .33 3.41h-4.53a21.88 21.88 0 0 0 .32-3.41c0-1.49.07-3.21.07-5.15v-16.93h-4.63c-.88 0-1.7 0-2.48.08a14.61 14.61 0 0 0 -2.34.32v-3.64z" fill="#58585b"/><path d="m857.08 730.37a21.9 21.9 0 0 0 -.24 3.33c0 1.45-.06 3.19-.06 5.23v10.07a14.22 14.22 0 0 1 -.63 4.36 9 9 0 0 1 -1.91 3.35 8.58 8.58 0 0 1 -3.26 2.16 13 13 0 0 1 -4.63.76 13.19 13.19 0 0 1 -4.68-.76 8.47 8.47 0 0 1 -3.27-2.16 9 9 0 0 1 -1.95-3.35 13.91 13.91 0 0 1 -.64-4.36v-10.07c0-1.94 0-3.66 0-5.15a27 27 0 0 0 -.25-3.41h4v17.72a16.63 16.63 0 0 0 .33 3.47 7.12 7.12 0 0 0 1.11 2.64 5 5 0 0 0 2.09 1.67 7.77 7.77 0 0 0 3.25.59 7.54 7.54 0 0 0 3.19-.59 5.12 5.12 0 0 0 2.06-1.67 7.28 7.28 0 0 0 1.11-2.64 16.63 16.63 0 0 0 .33-3.47v-17.72z" fill="#58585b"/><path d="m867.51 750.55v2.76 2.39s.06 1.4.1 2a13.4 13.4 0 0 0 .15 1.44h-4.33a22 22 0 0 0 .26-3.41c0-1.49 0-3.21 0-5.15v-13.97c0-.92 0-1.77 0-2.57s0-1.51-.08-2.14a11.75 11.75 0 0 0 -.18-1.53l2.26-.1 2.52-.08h3.2a18.26 18.26 0 0 1 4.2.46 9.44 9.44 0 0 1 3.26 1.45 6.43 6.43 0 0 1 2.11 2.5 8.13 8.13 0 0 1 .76 3.66 8.23 8.23 0 0 1 -.56 3.17 7.85 7.85 0 0 1 -1.47 2.37 8.41 8.41 0 0 1 -2.08 1.65 11.47 11.47 0 0 1 -2.37 1c.4.53.88 1.19 1.45 2s1.19 1.62 1.83 2.48l2 2.66c.66.9 1.29 1.73 1.86 2.49l1.52 2c.43.55.73.93.9 1.12h-5l-8.3-12.3h-4zm0-6.79h3.74a8 8 0 0 0 5.07-1.38 4.67 4.67 0 0 0 1.72-3.84 6.22 6.22 0 0 0 -.38-2.24 4 4 0 0 0 -1.21-1.63 5.74 5.74 0 0 0 -2.09-1 12.8 12.8 0 0 0 -3.11-.34c-.7 0-1.36 0-2 0l-1.74.07z" fill="#58585b"/><path d="m901.65 730.37v2.85h-4.82v23.04h4.82v2.85h-13.29v-2.85h4.73v-23.04h-4.73v-2.85z" fill="#58585b"/><path d="m923.31 735.49c-.71-.4-1.37-.72-2-1a18.3 18.3 0 0 0 -1.75-.67 11.41 11.41 0 0 0 -1.69-.38 12.81 12.81 0 0 0 -1.79-.12 6.48 6.48 0 0 0 -2.16.35 5.83 5.83 0 0 0 -1.68 1 4.25 4.25 0 0 0 -1.09 1.36 3.44 3.44 0 0 0 -.38 1.58 4.17 4.17 0 0 0 .23 1.39 2.78 2.78 0 0 0 .92 1.25 8.53 8.53 0 0 0 2 1.15 28.33 28.33 0 0 0 3.38 1.17 20.33 20.33 0 0 1 3.46 1.32 10.37 10.37 0 0 1 2.53 1.75 6.59 6.59 0 0 1 1.55 2.24 7.36 7.36 0 0 1 .54 2.86 8.27 8.27 0 0 1 -.79 3.61 8.69 8.69 0 0 1 -2.12 2.8 9.85 9.85 0 0 1 -3.14 1.81 11.4 11.4 0 0 1 -3.8.64 19.07 19.07 0 0 1 -2.76-.2 16.54 16.54 0 0 1 -4.77-1.4 9.18 9.18 0 0 1 -1.75-1.09l.88-4a12.93 12.93 0 0 0 4.07 2.48 12.42 12.42 0 0 0 4.3.77 7.65 7.65 0 0 0 2.29-.34 6 6 0 0 0 1.94-1 4.81 4.81 0 0 0 1.36-1.58 4.33 4.33 0 0 0 .51-2.13 4.53 4.53 0 0 0 -.24-1.47 3.55 3.55 0 0 0 -1-1.37 9.61 9.61 0 0 0 -2.14-1.33 27.74 27.74 0 0 0 -3.71-1.34 18.83 18.83 0 0 1 -3.75-1.52 8.42 8.42 0 0 1 -2.29-1.8 5.43 5.43 0 0 1 -1.13-2.09 8.65 8.65 0 0 1 -.31-2.37 7.55 7.55 0 0 1 .52-2.66 7.65 7.65 0 0 1 1.65-2.58 8.83 8.83 0 0 1 2.87-2 10.53 10.53 0 0 1 4.22-.78 20.19 20.19 0 0 1 2.13.11 14.78 14.78 0 0 1 3.77.86 17.34 17.34 0 0 1 1.87.81z" fill="#58585b"/><path d="m940.52 746.81a28.7 28.7 0 0 1 -2.1 11.08 29.79 29.79 0 0 1 -6.17 9.29l-1.87-2.85a27.37 27.37 0 0 0 2.87-3.91 24.37 24.37 0 0 0 3.16-8.7 32.56 32.56 0 0 0 0-9.79 24.2 24.2 0 0 0 -1.17-4.56 20.84 20.84 0 0 0 -2-4.08 17.72 17.72 0 0 0 -2.87-3.42l1.48-3a18.94 18.94 0 0 1 3.55 3.55 22.46 22.46 0 0 1 2.73 4.66 27.58 27.58 0 0 1 1.76 5.56 30.87 30.87 0 0 1 .62 6.22" fill="#58585b"/><path d="m335.43 612.22a4.56 4.56 0 1 0 0 9.1 4.55 4.55 0 1 0 0-9.1" fill="#009ab1"/><path d="m349.13 624.45a4.42 4.42 0 0 0 -6.26-6.25 4.11 4.11 0 0 0 0 6.25 4.34 4.34 0 0 0 6.26 0" fill="#009ab1"/><path d="m335.43 627.28a4.78 4.78 0 0 0 -4.78 4.61 4.92 4.92 0 0 0 4.78 4.79 4.78 4.78 0 0 0 4.61-4.79 4.64 4.64 0 0 0 -4.61-4.61" fill="#009ab1"/><path d="m350.63 627.28a4.77 4.77 0 0 0 -4.77 4.61 4.91 4.91 0 0 0 4.77 4.79 4.78 4.78 0 0 0 4.48-4.79 4.63 4.63 0 0 0 -4.48-4.61" fill="#009ab1"/><path d="m342.88 639.51a4.44 4.44 0 0 0 0 6.56 4.34 4.34 0 0 0 6.26 0 4.72 4.72 0 0 0 0-6.56 4.6 4.6 0 0 0 -6.26 0" fill="#009ab1"/><path d="m324.84 631.89a4.65 4.65 0 0 0 -4.62-4.61 4.74 4.74 0 0 0 -4.62 4.61 4.89 4.89 0 0 0 4.62 4.79 4.79 4.79 0 0 0 4.62-4.79" fill="#009ab1"/><path d="m327.82 624.45a4.58 4.58 0 0 0 0-6.25 4.68 4.68 0 0 0 -6.58 0 4.34 4.34 0 0 0 0 6.25 4.72 4.72 0 0 0 6.58 0" fill="#009ab1"/><path d="m335.43 642.49a4.56 4.56 0 1 0 0 9.1 4.55 4.55 0 1 0 0-9.1" fill="#009ab1"/><path d="m321.26 639.51a4.65 4.65 0 0 0 6.58 6.56 4.65 4.65 0 1 0 -6.58-6.56" fill="#009ab1"/><path d="m380.4 644.5a.19.19 0 0 0 .21-.21l-.06-27-3.5-.1c0-1.06 0-2.25.05-3.26h8.65c5.13 7.5 12 17.87 17.19 25.94h.31c-.05-7.49-.1-15-.21-22.53l-4.45-.06c0-1.1.05-2.25.05-3.3h6.65c1.78 0 3.78-.05 5.24-.05.05 1.06 0 2.2 0 3.25l-2.83.16c-.1 0-.16.05-.16.26l-.2 30.08a12.72 12.72 0 0 1 -4.3.73c-4.61-6.07-11.32-15.3-17.76-25h-.37c0 7.12-.05 14.09-.05 21.17l4.66.1v3.36c-2.15 0-4.77-.06-7.18-.06-1.74 0-3.51.06-5 .06 0-1.06 0-2.25.05-3.31z" fill="#009ab1"/><path d="m414.47 637.79c0-7.08 4.78-12.78 12-12.78a8.05 8.05 0 0 1 6.55 2.72 11.29 11.29 0 0 1 2.31 7.34 5.34 5.34 0 0 1 -2.26 2.4c-2.3.16-8.6.16-12.47.16a7.46 7.46 0 0 0 1.57 5.19c1.41 1.52 3 1.73 4.82 1.73a22.1 22.1 0 0 0 7.08-1.58 25 25 0 0 1 .78 3.21 24.4 24.4 0 0 1 -9.11 2.3c-6.87 0-11.28-4-11.28-10.64zm11.22-9.54a3.91 3.91 0 0 0 -3.3 1.52 7.56 7.56 0 0 0 -1.67 4.72c2.51 0 6 0 8.43-.16a.53.53 0 0 0 .58-.58 8 8 0 0 0 -1.05-3.93 3.48 3.48 0 0 0 -2.93-1.57z" fill="#009ab1"/><path d="m447.45 648.48a5.51 5.51 0 0 1 -4-1.47c-1.56-1.31-1.62-2.52-1.62-4.09 0-2.77.06-6.23.06-7.28 0-1.36.05-5.45.05-6.39h-3.62a33.48 33.48 0 0 1 .11-3.35c1.09 0 2.3-.16 3.35-.22a.38.38 0 0 0 .36-.36c.06-1.47.16-3.25.26-4.67a33.45 33.45 0 0 1 5.45-2.2c.06 0 .11.06.11.16 0 1.52-.05 5.19-.11 7.07h8.18c0 1.14-.1 2.51-.16 3.66-2.36 0-5.34 0-8.06 0v5.24c-.06 2.14-.06 4.72-.06 7.23a2.76 2.76 0 0 0 3 2.83 24.39 24.39 0 0 0 5.29-.79 30.25 30.25 0 0 1 .47 3.19 27.73 27.73 0 0 1 -9 1.53z" fill="#009ab1"/><path d="m492.26 628.83c-.69 2.14-1.68 5.14-3.09 9.38-1.21 3.56-2.26 6.39-3.62 10.16-1.15.06-2.73.11-5.08.11-1.47-4.45-2.94-8.9-4.35-13.94h-.31c-1.47 3.93-4 10.06-5.67 13.83-1.2.06-3 .11-4.82.11-1.31-4.51-2.15-7.65-3-10.9-.95-3.61-1.63-6.34-2.2-8.49a.25.25 0 0 0 -.27-.21l-2.19-.16c0-1.05 0-2.2 0-3.19h11.9c0 1 0 2.14-.06 3.15l-3.35.1c.16 1.2.63 3.72 1.16 6.6s1.05 5.39 1.47 7.39l.31.05c1.2-3.56 4.08-11.63 5.56-15.56.57-.06 2.72-.11 4.71-.11 1.05 3.82 3.4 12.27 4.45 15.77h.32c.73-2.77 1.15-4.5 1.83-7.07s1.21-5 1.52-6.76c.06-.15 0-.21-.16-.21l-2.78-.1c.06-1.11.06-2.26.11-3.2h5.92c1.31 0 2.78-.05 3.88-.05.05 1 0 2.14-.05 3.15z" fill="#009ab1"/><path d="m507.57 648.48a11.55 11.55 0 0 1 -7.65-2.51 10.93 10.93 0 0 1 -3.67-8.71 12.14 12.14 0 0 1 4.67-9.8 12.69 12.69 0 0 1 7.75-2.45 11.46 11.46 0 0 1 6.82 1.93c2.61 1.89 4.34 5 4.34 9.33a12.46 12.46 0 0 1 -5 10.11 12.2 12.2 0 0 1 -7.23 2.1zm.53-3.09a4.25 4.25 0 0 0 3.46-1.53c1.41-1.62 1.88-3.87 1.88-7.38 0-3-.52-5.14-1.62-6.56a4.19 4.19 0 0 0 -3.62-1.82 4.46 4.46 0 0 0 -3.51 1.56c-1.31 1.53-2 3.83-2 7 0 3.56.62 5.66 1.94 7.13a4.24 4.24 0 0 0 3.4 1.57z" fill="#009ab1"/><path d="m523.2 629.46c0-1.05 0-2.1 0-3.1 2.25-.31 8.33-1.36 8.59-1.36 0 0 .11.06.11.16.1 1.73.21 4.3.31 6.87l.32.05c3.08-6 4.66-7.13 7.07-7.13a9.64 9.64 0 0 1 3.41.63 11 11 0 0 1 -1.89 5.45 15.09 15.09 0 0 0 -3-.47 2.53 2.53 0 0 0 -1.62.63 13.08 13.08 0 0 0 -3.14 4.4 10.61 10.61 0 0 0 -.84 4.61c-.05 1.42-.05 3.14-.05 4.46l4.65.15v3.09h-7.22c-2 0-4.35.06-6.25.06 0-1 0-2.15.06-3.15l2.78-.1c.11-.05.21-.11.21-.22v-15z" fill="#009ab1"/><path d="m543.75 615.78c0-1 0-2.15 0-3.14 2.41-.32 9.11-1.37 9.59-1.37.1 0 .16.06.16.21 0 6.4-.11 14.73-.16 22.69.79 0 2.2 0 3.09-.15a54.54 54.54 0 0 0 4.82-4.88c.11-.1 0-.2-.1-.2l-2.26-.11c0-1.05 0-2.26.06-3.25h6.07c1.47-.05 3-.05 4.4-.05 0 1 0 2.2-.05 3.2l-2.2.15c-2.88 2.62-4.77 4.3-6.5 5.81v.31a14.68 14.68 0 0 1 4.1 5.19 29 29 0 0 0 2.3 3.93 1 1 0 0 0 .89.47l2.88.11v3.19c-1.94 0-7.29.05-8.44.11a51.75 51.75 0 0 1 -2.93-5.92c-1.21-2.52-2.52-4.51-3.62-4.83-.74 0-1.78 0-2.46.06v7.33l2.72.16v3.09h-5.82c-1.94 0-4.08.05-5.92.05 0-1 0-2.14.05-3.14l3-.16a.23.23 0 0 0 .16-.2v-28.6z" fill="#009ab1"/><g fill="#58585b"><path d="m376 472.16h4.79v-4.16c0-3.6.73-6.29 2.19-8.09a7.43 7.43 0 0 1 6.07-2.69 9.14 9.14 0 0 1 2.79.44 9.8 9.8 0 0 1 2.49 1.23l-1.08 3.84a7.63 7.63 0 0 0 -2-1.06 6.86 6.86 0 0 0 -2.18-.38 3.28 3.28 0 0 0 -2.84 1.34 7.56 7.56 0 0 0 -1 4.41v5.14h6.47v3.49h-6.47v8.52 3.46s.06 2.23.12 3.26.13 2 .23 2.86a22.16 22.16 0 0 0 .42 2.23h-5.15v-20.35h-4.85z"/><path d="m395.31 483.91a14.89 14.89 0 0 1 .93-5.47 11.81 11.81 0 0 1 2.52-4 10.32 10.32 0 0 1 3.68-2.48 12.05 12.05 0 0 1 4.48-.84 11.78 11.78 0 0 1 4.52.84 9.52 9.52 0 0 1 3.53 2.48 11.69 11.69 0 0 1 2.28 4 16.61 16.61 0 0 1 .82 5.47 14.61 14.61 0 0 1 -.94 5.45 11.62 11.62 0 0 1 -2.51 4 10.62 10.62 0 0 1 -3.69 2.44 12.2 12.2 0 0 1 -4.48.82 12 12 0 0 1 -4.52-.82 9.62 9.62 0 0 1 -3.52-2.44 11.06 11.06 0 0 1 -2.28-4 16.52 16.52 0 0 1 -.82-5.45m4.43 0a13 13 0 0 0 .5 3.73 8.31 8.31 0 0 0 1.43 2.8 6.21 6.21 0 0 0 2.19 1.73 6.54 6.54 0 0 0 2.82.59 6.31 6.31 0 0 0 2.72-.59 6.69 6.69 0 0 0 2.22-1.73 8.55 8.55 0 0 0 1.47-2.8 11.66 11.66 0 0 0 .54-3.73 13.26 13.26 0 0 0 -.5-3.78 8.32 8.32 0 0 0 -1.43-2.82 6.17 6.17 0 0 0 -2.2-1.78 6.4 6.4 0 0 0 -2.82-.61 6.23 6.23 0 0 0 -2.73.61 6.31 6.31 0 0 0 -2.19 1.78 8.57 8.57 0 0 0 -1.48 2.82 12.23 12.23 0 0 0 -.54 3.78"/><path d="m424.05 496v-14.73a37.67 37.67 0 0 0 -.4-6 27.61 27.61 0 0 0 -.8-3.7h4.31a8 8 0 0 1 .29 1c.1.4.18.83.26 1.27s.15.89.22 1.32l.19 1.08a13.64 13.64 0 0 1 3.94-3.82 9.83 9.83 0 0 1 2-1 5.8 5.8 0 0 1 1.81-.33 4.7 4.7 0 0 1 2.55.66 5.12 5.12 0 0 1 1.69 1.77 7.91 7.91 0 0 1 1 2.56 14.35 14.35 0 0 1 .31 3l-3.83.84a10.11 10.11 0 0 0 -.24-1.76 4.83 4.83 0 0 0 -.5-1.42 2.44 2.44 0 0 0 -.81-.92 2.12 2.12 0 0 0 -1.21-.33 3.23 3.23 0 0 0 -1.7.58 9.48 9.48 0 0 0 -1.84 1.49 14.33 14.33 0 0 0 -1.66 2.11 9.81 9.81 0 0 0 -1.15 2.41v13.92z"/><path d="m458.55 496v-14.73a38.89 38.89 0 0 0 -.4-6 25.85 25.85 0 0 0 -.81-3.7h4.32a8 8 0 0 1 .29 1c.1.4.18.83.26 1.27s.15.89.21 1.32l.19 1.08a14.56 14.56 0 0 1 1.89-2.24 13.57 13.57 0 0 1 2.06-1.61 10 10 0 0 1 2-1 5.85 5.85 0 0 1 1.81-.33 4.65 4.65 0 0 1 2.55.66 5.15 5.15 0 0 1 1.7 1.77 8.4 8.4 0 0 1 1 2.56 15 15 0 0 1 .3 3l-3.83.84a10.15 10.15 0 0 0 -.23-1.76 5.48 5.48 0 0 0 -.5-1.42 2.46 2.46 0 0 0 -.82-.92 2.09 2.09 0 0 0 -1.2-.33 3.26 3.26 0 0 0 -1.71.58 9.74 9.74 0 0 0 -1.83 1.49 13.73 13.73 0 0 0 -1.67 2.11 10.18 10.18 0 0 0 -1.15 2.41v13.95z"/><path d="m497.72 496a7 7 0 0 1 -.47-1.72c-.14-.77-.25-1.59-.34-2.48s-.15-1.75-.2-2.6-.08-1.53-.08-2.06v-2.39a44.33 44.33 0 0 1 -1.82 4.14 23.29 23.29 0 0 1 -2.44 3.82 13 13 0 0 1 -3 2.8 6.23 6.23 0 0 1 -6.33.42 6.54 6.54 0 0 1 -2.29-2 10 10 0 0 1 -1.52-3.27 16.47 16.47 0 0 1 -.55-4.49 20.46 20.46 0 0 1 .77-5.57 14.66 14.66 0 0 1 2.34-4.83 11.69 11.69 0 0 1 4-3.4 12.22 12.22 0 0 1 5.79-1.29 35.87 35.87 0 0 1 4.63.3 32.8 32.8 0 0 1 4.11.78v11.14a55.74 55.74 0 0 0 .44 7.61 27.37 27.37 0 0 0 1.13 5.08zm-1.8-20.6-1.74-.3a19.45 19.45 0 0 0 -2.93-.18 7.58 7.58 0 0 0 -3.92.94 7.18 7.18 0 0 0 -2.5 2.52 10.93 10.93 0 0 0 -1.33 3.62 21.49 21.49 0 0 0 -.4 4.19 10.71 10.71 0 0 0 .28 2.55 7.39 7.39 0 0 0 .75 2 4.21 4.21 0 0 0 1.1 1.32 2.23 2.23 0 0 0 1.34.47 3.09 3.09 0 0 0 1.62-.52 8.11 8.11 0 0 0 1.63-1.43 17.77 17.77 0 0 0 1.57-2.07 25.89 25.89 0 0 0 1.43-2.48c.45-.88.87-1.76 1.25-2.65s.71-1.74 1-2.55.47-1.55.63-2.22a7.92 7.92 0 0 0 .23-1.66z"/><path d="m507.41 496v-14.73a39 39 0 0 0 -.39-6 25.85 25.85 0 0 0 -.81-3.7h4.32a8.24 8.24 0 0 1 .28 1c.11.4.19.83.27 1.27s.14.89.21 1.32l.19 1.08a14.56 14.56 0 0 1 1.89-2.21 14 14 0 0 1 2-1.61 10.08 10.08 0 0 1 2-1 5.85 5.85 0 0 1 1.81-.33 4.67 4.67 0 0 1 2.55.66 5.24 5.24 0 0 1 1.7 1.77 8.4 8.4 0 0 1 1 2.56 15 15 0 0 1 .3 3l-3.73.92a9.24 9.24 0 0 0 -.24-1.76 5.14 5.14 0 0 0 -.49-1.42 2.46 2.46 0 0 0 -.82-.92 2.12 2.12 0 0 0 -1.21-.33 3.26 3.26 0 0 0 -1.7.58 9.74 9.74 0 0 0 -1.83 1.49 13.73 13.73 0 0 0 -1.71 2.06 10.18 10.18 0 0 0 -1.15 2.41v13.89z"/><path d="m531.73 484.38a11.5 11.5 0 0 0 .66 3.66 7.07 7.07 0 0 0 1.6 2.59 6.68 6.68 0 0 0 2.4 1.52 8.8 8.8 0 0 0 3 .5 19.86 19.86 0 0 0 4.55-.53 15.18 15.18 0 0 0 4.43-1.87l.48 3.95a22.08 22.08 0 0 1 -2.49 1.1 23.71 23.71 0 0 1 -2.45.76 22.5 22.5 0 0 1 -2.48.41 24.83 24.83 0 0 1 -2.64.13 12 12 0 0 1 -4.39-.8 10.59 10.59 0 0 1 -3.67-2.37 11.41 11.41 0 0 1 -2.51-3.89 14.51 14.51 0 0 1 -.93-5.4 16.88 16.88 0 0 1 .8-5.38 12.21 12.21 0 0 1 2.29-4.12 9.62 9.62 0 0 1 3.62-2.64 13 13 0 0 1 8.26-.47 8.63 8.63 0 0 1 2.61 1.31 7.62 7.62 0 0 1 1.84 1.92 9.75 9.75 0 0 1 1.19 2.37 13 13 0 0 1 .63 2.65 19.23 19.23 0 0 1 .2 2.71v.94q0 .6 0 .93zm6.71-9.7a6.17 6.17 0 0 0 -4.32 1.54 8.17 8.17 0 0 0 -2.2 4.81h12.51a7.64 7.64 0 0 0 -.45-2.72 5.51 5.51 0 0 0 -1.24-2 5.09 5.09 0 0 0 -1.91-1.22 6.85 6.85 0 0 0 -2.39-.41"/><path d="m566.71 483.91a14.9 14.9 0 0 1 .92-5.47 12.12 12.12 0 0 1 2.52-4 10.36 10.36 0 0 1 3.69-2.48 12 12 0 0 1 4.48-.84 11.72 11.72 0 0 1 4.51.84 9.44 9.44 0 0 1 3.53 2.48 11.37 11.37 0 0 1 2.28 4 16.61 16.61 0 0 1 .82 5.47 14.82 14.82 0 0 1 -.93 5.45 11.79 11.79 0 0 1 -2.52 4 10.43 10.43 0 0 1 -3.69 2.44 12.2 12.2 0 0 1 -4.48.82 12 12 0 0 1 -4.51-.82 9.57 9.57 0 0 1 -3.53-2.44 11.06 11.06 0 0 1 -2.28-4 16.53 16.53 0 0 1 -.81-5.45m4.42 0a12.6 12.6 0 0 0 .51 3.73 8.12 8.12 0 0 0 1.42 2.8 6.3 6.3 0 0 0 2.19 1.73 6.55 6.55 0 0 0 2.83.59 6.24 6.24 0 0 0 2.71-.59 6.69 6.69 0 0 0 2.22-1.73 8.76 8.76 0 0 0 1.48-2.8 12 12 0 0 0 .54-3.73 12.9 12.9 0 0 0 -.51-3.78 8.13 8.13 0 0 0 -1.42-2.82 6.2 6.2 0 0 0 -2.21-1.78 6.36 6.36 0 0 0 -2.81-.61 6.2 6.2 0 0 0 -2.73.61 6.34 6.34 0 0 0 -2.2 1.78 8.77 8.77 0 0 0 -1.48 2.82 12.23 12.23 0 0 0 -.54 3.78"/><path d="m595.45 496v-14.73a37.67 37.67 0 0 0 -.4-6 27.61 27.61 0 0 0 -.8-3.7h4.31a8 8 0 0 1 .29 1c.1.4.18.83.26 1.27s.15.89.22 1.32l.19 1.08a13.64 13.64 0 0 1 3.94-3.82 9.83 9.83 0 0 1 2-1 5.8 5.8 0 0 1 1.81-.33 4.7 4.7 0 0 1 2.55.66 5.12 5.12 0 0 1 1.69 1.77 7.91 7.91 0 0 1 1 2.56 14.35 14.35 0 0 1 .31 3l-3.82.92a10.11 10.11 0 0 0 -.24-1.76 4.83 4.83 0 0 0 -.5-1.42 2.44 2.44 0 0 0 -.81-.92 2.12 2.12 0 0 0 -1.21-.33 3.23 3.23 0 0 0 -1.7.58 9.48 9.48 0 0 0 -1.84 1.49 14.33 14.33 0 0 0 -1.7 2.06 9.81 9.81 0 0 0 -1.15 2.41v13.89z"/><path d="m635.22 484.62v2.71s.06 2.1.1 3.17.08 2.09.14 3.06.13 1.79.2 2.44h-4.9v-27.06c0-2.34 0-4.45-.13-6.34s-.2-3.54-.36-4.92h4.92z"/><path d="m642 483.91a14.89 14.89 0 0 1 .93-5.47 11.81 11.81 0 0 1 2.52-4 10.32 10.32 0 0 1 3.68-2.48 12.06 12.06 0 0 1 4.49-.84 11.76 11.76 0 0 1 4.51.84 9.52 9.52 0 0 1 3.53 2.48 11.69 11.69 0 0 1 2.28 4 16.61 16.61 0 0 1 .82 5.47 14.61 14.61 0 0 1 -.94 5.45 11.62 11.62 0 0 1 -2.51 4 10.43 10.43 0 0 1 -3.69 2.44 12.2 12.2 0 0 1 -4.48.82 12 12 0 0 1 -4.52-.82 9.62 9.62 0 0 1 -3.52-2.44 11.06 11.06 0 0 1 -2.28-4 16.52 16.52 0 0 1 -.82-5.45m4.43 0a12.6 12.6 0 0 0 .51 3.73 8.12 8.12 0 0 0 1.42 2.8 6.21 6.21 0 0 0 2.19 1.73 6.54 6.54 0 0 0 2.82.59 6.31 6.31 0 0 0 2.72-.59 6.69 6.69 0 0 0 2.22-1.73 8.55 8.55 0 0 0 1.47-2.8 11.66 11.66 0 0 0 .54-3.73 13.26 13.26 0 0 0 -.5-3.78 8.32 8.32 0 0 0 -1.43-2.82 6.08 6.08 0 0 0 -2.2-1.78 6.4 6.4 0 0 0 -2.82-.61 6.23 6.23 0 0 0 -2.73.61 6.31 6.31 0 0 0 -2.19 1.78 8.57 8.57 0 0 0 -1.48 2.82 12.23 12.23 0 0 0 -.54 3.78"/><path d="m687.44 471.57 6.23 19.28 5-19.28h4.43c-.29.91-.54 1.73-.75 2.45s-.43 1.43-.61 2.09-.39 1.3-.57 1.94-.38 1.3-.58 2l-4.4 15.95h-4.56l-6-18.8-6 18.8h-4.54l-4.43-15.92c-.19-.64-.37-1.27-.55-1.9s-.37-1.27-.57-1.94-.42-1.39-.64-2.16-.47-1.6-.76-2.51h4.43l5 19.28 6.23-19.28z"/><path d="m724.21 471.57a14 14 0 0 1 .53 1.76 26.34 26.34 0 0 1 .42 2.79 17 17 0 0 1 1.83-2 12.55 12.55 0 0 1 2.11-1.59 10.9 10.9 0 0 1 2.35-1 8.84 8.84 0 0 1 2.58-.37 7.78 7.78 0 0 1 3.72.9 8.2 8.2 0 0 1 2.87 2.51 12.4 12.4 0 0 1 1.85 3.83 17 17 0 0 1 .66 4.86 16.6 16.6 0 0 1 -.87 5.54 13.31 13.31 0 0 1 -2.33 4.24 10.42 10.42 0 0 1 -3.46 2.68 9.57 9.57 0 0 1 -4.24 1 8.1 8.1 0 0 1 -1.81-.19 9.61 9.61 0 0 1 -1.65-.53 10.9 10.9 0 0 1 -1.59-.82c-.53-.33-1.08-.69-1.66-1.09v5.63 2.6s.06 1.48.1 2.14.12 1.25.2 1.81.17 1.08.26 1.59h-5v-23.48c0-1.48 0-2.86 0-4.13s-.07-2.43-.15-3.49a26.79 26.79 0 0 0 -.36-2.89 12.09 12.09 0 0 0 -.65-2.3zm1.31 18.2c.82.58 1.53 1.05 2.12 1.43a12.51 12.51 0 0 0 1.65.89 6.49 6.49 0 0 0 1.41.44 9 9 0 0 0 1.53.12 5.23 5.23 0 0 0 2.43-.6 6.27 6.27 0 0 0 2.06-1.74 8.84 8.84 0 0 0 1.44-2.75 11.53 11.53 0 0 0 .53-3.65 16.66 16.66 0 0 0 -.36-3.61 9.08 9.08 0 0 0 -1.09-2.75 5.23 5.23 0 0 0 -1.74-1.76 4.22 4.22 0 0 0 -2.31-.63 5.47 5.47 0 0 0 -2.11.46 7.82 7.82 0 0 0 -2.08 1.38 11.32 11.32 0 0 0 -1.9 2.21 16.22 16.22 0 0 0 -1.56 3.06z"/><path d="m749.12 496v-14.73a39 39 0 0 0 -.39-6 25.85 25.85 0 0 0 -.81-3.7h4.31a6.6 6.6 0 0 1 .29 1c.1.4.19.83.27 1.27s.14.89.21 1.32l.19 1.08a14.56 14.56 0 0 1 1.89-2.21 14 14 0 0 1 2-1.61 9.83 9.83 0 0 1 2-1 5.85 5.85 0 0 1 1.81-.33 4.67 4.67 0 0 1 2.55.66 5.24 5.24 0 0 1 1.7 1.77 8.4 8.4 0 0 1 1 2.56 15 15 0 0 1 .3 3l-3.83.84a10.11 10.11 0 0 0 -.24-1.76 5.14 5.14 0 0 0 -.49-1.42 2.46 2.46 0 0 0 -.82-.92 2.12 2.12 0 0 0 -1.21-.33 3.26 3.26 0 0 0 -1.7.58 9.74 9.74 0 0 0 -1.83 1.49 13.73 13.73 0 0 0 -1.67 2.11 10.18 10.18 0 0 0 -1.15 2.41v13.92z"/><path d="m773.44 484.38a11.5 11.5 0 0 0 .66 3.66 7.07 7.07 0 0 0 1.6 2.59 6.68 6.68 0 0 0 2.4 1.52 8.8 8.8 0 0 0 3 .5 19.86 19.86 0 0 0 4.55-.53 15.18 15.18 0 0 0 4.43-1.87l.48 3.95a22.08 22.08 0 0 1 -2.49 1.1 23.71 23.71 0 0 1 -2.45.76 22.5 22.5 0 0 1 -2.48.41 24.83 24.83 0 0 1 -2.64.13 12 12 0 0 1 -4.39-.8 10.59 10.59 0 0 1 -3.67-2.37 11.41 11.41 0 0 1 -2.51-3.89 14.51 14.51 0 0 1 -.93-5.4 16.88 16.88 0 0 1 .8-5.38 12.21 12.21 0 0 1 2.29-4.12 9.62 9.62 0 0 1 3.62-2.62 13 13 0 0 1 8.26-.47 8.63 8.63 0 0 1 2.61 1.31 7.62 7.62 0 0 1 1.84 1.92 9.75 9.75 0 0 1 1.19 2.37 13 13 0 0 1 .63 2.65 19.23 19.23 0 0 1 .2 2.71v.94q0 .6 0 .93zm6.71-9.7a6.17 6.17 0 0 0 -4.32 1.54 8.17 8.17 0 0 0 -2.2 4.81h12.51a7.64 7.64 0 0 0 -.45-2.72 5.51 5.51 0 0 0 -1.24-2 5.09 5.09 0 0 0 -1.91-1.22 6.85 6.85 0 0 0 -2.39-.41"/><path d="m818.11 471.57c-.34.69-.69 1.43-1 2.23s-.7 1.58-1 2.34-.63 1.5-.92 2.19-.53 1.26-.72 1.75-.37.9-.63 1.56l-.89 2.23-1 2.61c-.36.91-.73 1.82-1.07 2.72-.85 2.11-1.75 4.37-2.71 6.8h-4.67l-2.62-6.56c-.34-.88-.7-1.77-1.07-2.68s-.72-1.79-1-2.63-.64-1.6-.92-2.31-.51-1.28-.7-1.74-.43-1.07-.72-1.77-.59-1.42-.93-2.19l-1-2.33c-.34-.8-.69-1.53-1-2.22h5l7.31 19.64 7.3-19.64z"/><path d="m840.16 496a7 7 0 0 1 -.48-1.72c-.13-.77-.24-1.59-.33-2.48s-.16-1.75-.2-2.6-.08-1.53-.08-2.06v-2.39a44.33 44.33 0 0 1 -1.82 4.14 23.29 23.29 0 0 1 -2.44 3.82 13 13 0 0 1 -3 2.8 6.23 6.23 0 0 1 -6.33.42 6.54 6.54 0 0 1 -2.29-2 9.81 9.81 0 0 1 -1.52-3.27 16.47 16.47 0 0 1 -.55-4.49 20.08 20.08 0 0 1 .77-5.57 14.66 14.66 0 0 1 2.34-4.83 11.69 11.69 0 0 1 4-3.4 12.22 12.22 0 0 1 5.79-1.29 35.87 35.87 0 0 1 4.63.3 32.8 32.8 0 0 1 4.11.78v11.14a55.74 55.74 0 0 0 .44 7.61 27.37 27.37 0 0 0 1.13 5.08zm-1.81-20.6c-.4-.08-1-.17-1.73-.3a19.45 19.45 0 0 0 -2.93-.18 7.56 7.56 0 0 0 -3.92.94 7.18 7.18 0 0 0 -2.5 2.52 11.17 11.17 0 0 0 -1.34 3.61 22.29 22.29 0 0 0 -.39 4.19 11.27 11.27 0 0 0 .27 2.55 7.73 7.73 0 0 0 .76 2 4.21 4.21 0 0 0 1.1 1.32 2.23 2.23 0 0 0 1.34.47 3.09 3.09 0 0 0 1.62-.52 8.11 8.11 0 0 0 1.63-1.43 17.74 17.74 0 0 0 1.56-2.07 24 24 0 0 0 1.44-2.48c.45-.88.87-1.76 1.25-2.65s.71-1.74 1-2.55.48-1.55.64-2.22a7.81 7.81 0 0 0 .22-1.66z"/><path d="m855.12 484.62v2.71s.06 2.1.1 3.17.08 2.09.14 3.06.13 1.79.2 2.44h-4.91v-27.06q0-3.51-.12-6.34t-.36-4.92h4.91z"/><path d="m866.38 484.38a11.5 11.5 0 0 0 .62 3.62 7 7 0 0 0 1.61 2.59 6.64 6.64 0 0 0 2.39 1.52 8.84 8.84 0 0 0 3 .5 19.73 19.73 0 0 0 4.55-.53 15 15 0 0 0 4.43-1.87l.49 3.95a21.44 21.44 0 0 1 -2.5 1.1 18.37 18.37 0 0 1 -4.92 1.17 24.89 24.89 0 0 1 -2.65.13 11.94 11.94 0 0 1 -4.38-.8 10.59 10.59 0 0 1 -3.67-2.37 11.58 11.58 0 0 1 -2.52-3.89 14.72 14.72 0 0 1 -.92-5.4 16.88 16.88 0 0 1 .8-5.38 11.88 11.88 0 0 1 2.29-4.12 9.67 9.67 0 0 1 3.61-2.62 13 13 0 0 1 8.26-.47 8.81 8.81 0 0 1 2.62 1.31 7.8 7.8 0 0 1 1.84 1.92 10.12 10.12 0 0 1 1.19 2.37 14.42 14.42 0 0 1 .63 2.65 19.2 19.2 0 0 1 .19 2.71v.94.93zm6.71-9.7a6.13 6.13 0 0 0 -4.31 1.54 8.18 8.18 0 0 0 -2.21 4.81h12.51a7.88 7.88 0 0 0 -.44-2.72 5.67 5.67 0 0 0 -1.25-2 5.09 5.09 0 0 0 -1.91-1.22 6.85 6.85 0 0 0 -2.39-.41"/><path d="m906.62 496v-13.17a20 20 0 0 0 -.29-3.72 6.24 6.24 0 0 0 -.89-2.3 3.07 3.07 0 0 0 -1.49-1.19 6.12 6.12 0 0 0 -2.12-.34 5.61 5.61 0 0 0 -2.53.61 9.4 9.4 0 0 0 -2.26 1.58 12.46 12.46 0 0 0 -1.82 2.19 10.3 10.3 0 0 0 -1.17 2.45v13.89h-4.43v-14.73a37.67 37.67 0 0 0 -.4-6 27.61 27.61 0 0 0 -.8-3.7h4.31a8 8 0 0 1 .29 1c.09.4.18.83.26 1.27s.15.89.22 1.32l.19 1.08a15.33 15.33 0 0 1 4.6-3.94 10.44 10.44 0 0 1 4.86-1.21 7.13 7.13 0 0 1 5.87 2.5c1.36 1.67 2 4.15 2 7.44v15z"/><path d="m936.45 494a14.41 14.41 0 0 1 -1.81 1.19 10.88 10.88 0 0 1 -1.88.81 12.17 12.17 0 0 1 -2.1.48 18.84 18.84 0 0 1 -2.47.15 11.93 11.93 0 0 1 -4.53-.85 10.67 10.67 0 0 1 -3.69-2.46 11.46 11.46 0 0 1 -2.49-3.88 13.65 13.65 0 0 1 -.91-5.14 14.64 14.64 0 0 1 .88-5.11 12.7 12.7 0 0 1 2.49-4.19 11.47 11.47 0 0 1 3.92-2.84 12.34 12.34 0 0 1 5.17-1 13.61 13.61 0 0 1 4.13.56 11.74 11.74 0 0 1 3.06 1.47l-.84 4.31a13.81 13.81 0 0 0 -3.24-1.79 9.84 9.84 0 0 0 -3.47-.6 7.35 7.35 0 0 0 -3 .61 7 7 0 0 0 -2.4 1.76 8.18 8.18 0 0 0 -1.59 2.83 11.47 11.47 0 0 0 -.58 3.79 11.16 11.16 0 0 0 .53 3.52 8.08 8.08 0 0 0 1.5 2.71 6.57 6.57 0 0 0 2.38 1.76 7.53 7.53 0 0 0 3.14.63 9.87 9.87 0 0 0 4-.75 12 12 0 0 0 3.35-2.13z"/><path d="m945.43 484.38a11.5 11.5 0 0 0 .66 3.66 7.07 7.07 0 0 0 1.6 2.59 6.68 6.68 0 0 0 2.4 1.52 8.8 8.8 0 0 0 3 .5 19.86 19.86 0 0 0 4.55-.53 15.18 15.18 0 0 0 4.43-1.87l.48 3.95a22.08 22.08 0 0 1 -2.49 1.1 23.71 23.71 0 0 1 -2.45.76 22.5 22.5 0 0 1 -2.48.41 24.83 24.83 0 0 1 -2.64.13 12 12 0 0 1 -4.39-.8 10.59 10.59 0 0 1 -3.67-2.37 11.41 11.41 0 0 1 -2.51-3.89 14.51 14.51 0 0 1 -.93-5.4 16.88 16.88 0 0 1 .8-5.38 12.21 12.21 0 0 1 2.29-4.12 9.62 9.62 0 0 1 3.62-2.62 13 13 0 0 1 8.26-.47 8.63 8.63 0 0 1 2.61 1.31 7.62 7.62 0 0 1 1.84 1.92 9.75 9.75 0 0 1 1.19 2.37 13 13 0 0 1 .63 2.65 19.23 19.23 0 0 1 .2 2.71v.94q0 .6 0 .93zm6.71-9.7a6.17 6.17 0 0 0 -4.32 1.54 8.17 8.17 0 0 0 -2.2 4.81h12.5a7.65 7.65 0 0 0 -.44-2.72 5.51 5.51 0 0 0 -1.24-2 5.09 5.09 0 0 0 -1.91-1.22 6.85 6.85 0 0 0 -2.39-.41"/><path d="m397.22 547.73a14.41 14.41 0 0 1 -1.81 1.19 10.45 10.45 0 0 1 -1.88.81 11.31 11.31 0 0 1 -2.1.48 17.28 17.28 0 0 1 -2.47.16 12.13 12.13 0 0 1 -4.53-.85 11 11 0 0 1 -3.69-2.46 11.6 11.6 0 0 1 -2.49-3.89 13.61 13.61 0 0 1 -.91-5.14 14.85 14.85 0 0 1 .87-5.1 12.8 12.8 0 0 1 2.5-4.19 11.47 11.47 0 0 1 3.92-2.84 12.34 12.34 0 0 1 5.17-1 13.33 13.33 0 0 1 4.13.57 12.22 12.22 0 0 1 3.06 1.46l-.84 4.32a14.24 14.24 0 0 0 -3.24-1.8 10.07 10.07 0 0 0 -3.47-.59 7.27 7.27 0 0 0 -3 .61 7 7 0 0 0 -2.39 1.76 8.09 8.09 0 0 0 -1.59 2.83 11.41 11.41 0 0 0 -.58 3.78 11.12 11.12 0 0 0 .53 3.52 8.13 8.13 0 0 0 1.5 2.72 6.81 6.81 0 0 0 2.38 1.76 7.52 7.52 0 0 0 3.14.62 10 10 0 0 0 3.95-.74 12 12 0 0 0 3.35-2.13z"/><path d="m402 537.67a15 15 0 0 1 .93-5.47 12.23 12.23 0 0 1 2.52-4 10.55 10.55 0 0 1 3.68-2.48 12.31 12.31 0 0 1 4.49-.84 12 12 0 0 1 4.51.84 9.64 9.64 0 0 1 3.53 2.48 11.62 11.62 0 0 1 2.28 4 16.69 16.69 0 0 1 .82 5.47 14.67 14.67 0 0 1 -.94 5.46 11.72 11.72 0 0 1 -2.51 4 10.71 10.71 0 0 1 -3.69 2.44 12.2 12.2 0 0 1 -4.48.81 12 12 0 0 1 -4.52-.81 9.86 9.86 0 0 1 -3.52-2.44 11.14 11.14 0 0 1 -2.28-4 16.59 16.59 0 0 1 -.82-5.46m4.43 0a12.72 12.72 0 0 0 .51 3.74 8 8 0 0 0 1.42 2.79 6.3 6.3 0 0 0 2.19 1.73 6.54 6.54 0 0 0 2.82.6 6.29 6.29 0 0 0 2.72-.6 6.69 6.69 0 0 0 2.22-1.73 8.6 8.6 0 0 0 1.48-2.79 12.07 12.07 0 0 0 .53-3.74 13 13 0 0 0 -.5-3.78 8.32 8.32 0 0 0 -1.43-2.82 6 6 0 0 0 -2.2-1.77 6.41 6.41 0 0 0 -2.82-.62 6.24 6.24 0 0 0 -4.92 2.39 8.57 8.57 0 0 0 -1.48 2.82 12.32 12.32 0 0 0 -.54 3.78"/><path d="m449.84 549.77h-4.43v-13.65a28.78 28.78 0 0 0 -.18-3.61 6.23 6.23 0 0 0 -.56-2.16 2 2 0 0 0 -1.06-1 4.95 4.95 0 0 0 -3.44.1 6.47 6.47 0 0 0 -1.7 1 8.82 8.82 0 0 0 -1.47 1.55 10.67 10.67 0 0 0 -1.17 2v15.82h-4.43v-14.82a38.84 38.84 0 0 0 -.41-6 31.2 31.2 0 0 0 -.8-3.7h4.32a12.57 12.57 0 0 1 .45 1.81c.13.7.23 1.33.31 1.91a17.15 17.15 0 0 1 2.11-2.09 10 10 0 0 1 2-1.28 8.12 8.12 0 0 1 2-.65 11.32 11.32 0 0 1 2-.18 6.52 6.52 0 0 1 2.13.34 6 6 0 0 1 1.69.89 5.67 5.67 0 0 1 1.26 1.28 6 6 0 0 1 .81 1.52 15.56 15.56 0 0 1 2.18-2 10.53 10.53 0 0 1 2.07-1.22 8.65 8.65 0 0 1 2-.63 10.43 10.43 0 0 1 1.9-.18 7.18 7.18 0 0 1 3.07.59 4.68 4.68 0 0 1 2 1.74 7.92 7.92 0 0 1 1.08 2.85 21.64 21.64 0 0 1 .32 3.92v15.82h-4.43v-13.15a32.42 32.42 0 0 0 -.17-3.78 7.64 7.64 0 0 0 -.56-2.3 2.19 2.19 0 0 0 -1.06-1.15 4 4 0 0 0 -1.68-.31 4.63 4.63 0 0 0 -1.75.35 6.09 6.09 0 0 0 -1.67 1 8.05 8.05 0 0 0 -1.48 1.54 11.59 11.59 0 0 0 -1.21 2z"/><path d="m474.59 525.33a12.73 12.73 0 0 1 .53 1.77 23.64 23.64 0 0 1 .42 2.79 15.55 15.55 0 0 1 1.84-2 11.79 11.79 0 0 1 2.11-1.59 10.64 10.64 0 0 1 2.34-1 9.19 9.19 0 0 1 2.58-.37 7.76 7.76 0 0 1 3.72.91 8.32 8.32 0 0 1 2.88 2.51 12.39 12.39 0 0 1 1.84 3.83 18.25 18.25 0 0 1 -.2 10.4 13.47 13.47 0 0 1 -2.34 4.23 10.23 10.23 0 0 1 -3.46 2.69 9.71 9.71 0 0 1 -4.24 1 7.55 7.55 0 0 1 -1.81-.2 9.58 9.58 0 0 1 -1.65-.52 11 11 0 0 1 -1.59-.83c-.53-.33-1.08-.69-1.66-1.09v5.63 2.6s.07 1.49.11 2.14.11 1.26.19 1.82.17 1.08.26 1.59h-5v-23.49c0-1.48 0-2.87 0-4.14s-.08-2.43-.15-3.49-.21-2-.37-2.88a11.32 11.32 0 0 0 -.65-2.31zm1.31 18.21c.82.58 1.53 1.05 2.12 1.42a11.44 11.44 0 0 0 1.65.89 6.57 6.57 0 0 0 1.42.44 8.84 8.84 0 0 0 1.52.12 5.34 5.34 0 0 0 2.43-.59 6.52 6.52 0 0 0 2.06-1.74 8.85 8.85 0 0 0 1.44-2.75 11.59 11.59 0 0 0 .54-3.66 15.94 15.94 0 0 0 -.37-3.6 8.89 8.89 0 0 0 -1.09-2.76 5.33 5.33 0 0 0 -1.74-1.76 4.27 4.27 0 0 0 -2.31-.62 5.45 5.45 0 0 0 -2.11.45 7.86 7.86 0 0 0 -2.09 1.34 11.14 11.14 0 0 0 -1.91 2.22 16.12 16.12 0 0 0 -1.56 3z"/><path d="m505 538.39v2.7s.06 2.1.1 3.17.08 2.1.14 3.06.13 1.8.2 2.44h-4.9v-27.06c0-2.33-.05-4.44-.13-6.34s-.2-3.53-.36-4.92h4.95z"/><path d="m516.43 538.15a11.34 11.34 0 0 0 .65 3.66 6.92 6.92 0 0 0 1.61 2.58 6.67 6.67 0 0 0 2.39 1.53 9.09 9.09 0 0 0 3 .49 19.72 19.72 0 0 0 4.55-.52 15.26 15.26 0 0 0 4.43-1.88l.49 4a25.44 25.44 0 0 1 -2.5 1.1 20.68 20.68 0 0 1 -2.44.75 18.86 18.86 0 0 1 -2.48.41 24.83 24.83 0 0 1 -2.64.13 12 12 0 0 1 -4.39-.8 10.59 10.59 0 0 1 -3.67-2.37 11.48 11.48 0 0 1 -2.52-3.89 14.68 14.68 0 0 1 -.92-5.4 16.82 16.82 0 0 1 .8-5.37 11.79 11.79 0 0 1 2.29-4.12 9.8 9.8 0 0 1 3.61-2.63 11.88 11.88 0 0 1 4.8-.93 11.72 11.72 0 0 1 3.46.47 8.56 8.56 0 0 1 2.62 1.3 8 8 0 0 1 1.84 1.92 10.39 10.39 0 0 1 1.19 2.38 14.13 14.13 0 0 1 .63 2.64 19.34 19.34 0 0 1 .19 2.72v.94.93zm6.7-9.7a6.09 6.09 0 0 0 -4.31 1.54 8.12 8.12 0 0 0 -2.21 4.8h12.51a7.78 7.78 0 0 0 -.44-2.71 5.62 5.62 0 0 0 -1.25-2 5.07 5.07 0 0 0 -1.91-1.21 6.63 6.63 0 0 0 -2.39-.41"/><path d="m549 540.76-6.25 9h-5.39c.65-.86 1.2-1.59 1.65-2.17s.85-1.11 1.18-1.57.67-.91 1-1.32.63-.88 1-1.41l4.27-6.18-3.78-5.32-1.1-1.51c-.34-.44-.69-.9-1.06-1.36s-.78-1-1.23-1.55-1-1.25-1.64-2h5.5l6.24 8.65 5.87-8.65h5.39c-.63.8-1.15 1.49-1.59 2l-1.17 1.56c-.35.47-.68.93-1 1.37l-1 1.49-3.91 5.75 4.02 5.76c.42.61.8 1.12 1.12 1.54s.65.86 1 1.31.75 1 1.16 1.51 1 1.26 1.62 2.11h-5.51z"/><path d="m600.38 537.07a47.74 47.74 0 0 0 .51 7.61 27 27 0 0 0 1.28 5.09h-4.31a16.81 16.81 0 0 1 -.63-1.86c-.25-.82-.48-1.68-.68-2.57a13.09 13.09 0 0 1 -3.91 3.73 9.85 9.85 0 0 1 -8.81.47 8.62 8.62 0 0 1 -3-2.35 10.85 10.85 0 0 1 -1.92-3.67 15.81 15.81 0 0 1 -.68-4.78 17.82 17.82 0 0 1 .88-5.74 13.4 13.4 0 0 1 2.41-4.38 10.74 10.74 0 0 1 3.61-2.79 10.39 10.39 0 0 1 4.49-1 8.12 8.12 0 0 1 1.59.17 11.3 11.3 0 0 1 1.65.46 15.26 15.26 0 0 1 1.62.66c.52.24 1 .5 1.48.75v-6.71c0-1.93 0-3.61-.13-5.06a22.31 22.31 0 0 0 -.47-3.68h5zm-4.44-6.35q-.88-.48-1.65-.81a10.62 10.62 0 0 0 -1.51-.55 11 11 0 0 0 -1.51-.33 12.39 12.39 0 0 0 -1.67-.1 5.74 5.74 0 0 0 -2.62.62 7 7 0 0 0 -2.21 1.79 9.05 9.05 0 0 0 -1.55 2.87 11.93 11.93 0 0 0 -.58 3.82 11.66 11.66 0 0 0 1.43 6.35 5.1 5.1 0 0 0 4.57 2.15 4.8 4.8 0 0 0 2.19-.55 9 9 0 0 0 2.06-1.43 12.76 12.76 0 0 0 3.05-4.37z"/><path d="m608.12 517.55a3.7 3.7 0 0 1 .21-1.26 3.23 3.23 0 0 1 .61-1 2.7 2.7 0 0 1 .95-.69 2.9 2.9 0 0 1 1.22-.26 3.07 3.07 0 0 1 1.25.26 2.69 2.69 0 0 1 1 .69 3.56 3.56 0 0 1 .66 1 3.48 3.48 0 0 1 .23 1.26 3.52 3.52 0 0 1 -.23 1.26 3.56 3.56 0 0 1 -.66 1 3 3 0 0 1 -1 .69 3.07 3.07 0 0 1 -1.25.25 2.9 2.9 0 0 1 -1.22-.25 3 3 0 0 1 -.95-.69 3.23 3.23 0 0 1 -.61-1 3.74 3.74 0 0 1 -.21-1.26m5.27 20.84v2.72s.06 2.1.1 3.17.08 2.09.14 3.07.13 1.78.2 2.41h-4.83v-12.68c0-1.17 0-2.32 0-3.46s0-2.2-.05-3.22-.06-1.95-.11-2.82-.1-1.63-.18-2.25h4.79z"/><path d="m637.3 531c-.41-.24-.86-.49-1.37-.75a17.21 17.21 0 0 0 -1.66-.73 16.66 16.66 0 0 0 -1.92-.57 10.43 10.43 0 0 0 -2.12-.23 7.64 7.64 0 0 0 -2.23.28 4 4 0 0 0 -1.44.74 2.63 2.63 0 0 0 -.78 1 2.79 2.79 0 0 0 -.24 1.09 2.88 2.88 0 0 0 .19 1.1 2.07 2.07 0 0 0 .8.89 8 8 0 0 0 1.74.79c.75.25 1.75.52 3 .81a19.54 19.54 0 0 1 3.06.93 9.89 9.89 0 0 1 2.52 1.42 6 6 0 0 1 2.32 5 6.28 6.28 0 0 1 -.72 3 7.66 7.66 0 0 1 -2 2.44 9.43 9.43 0 0 1 -2.92 1.63 11 11 0 0 1 -3.62.58 17.33 17.33 0 0 1 -2.82-.21 16 16 0 0 1 -2.54-.6 13.72 13.72 0 0 1 -2.16-.89 10.6 10.6 0 0 1 -1.7-1l1.2-4.32a11.27 11.27 0 0 0 1.82 1.31 14.74 14.74 0 0 0 2.11 1 12.45 12.45 0 0 0 2.16.66 10.17 10.17 0 0 0 2.05.22 6.21 6.21 0 0 0 1.93-.27 5.29 5.29 0 0 0 1.51-.72 3.45 3.45 0 0 0 1-1 2.32 2.32 0 0 0 .36-1.21 3 3 0 0 0 -.27-1.26 3.24 3.24 0 0 0 -1-1.12 9.11 9.11 0 0 0 -2-1 29.36 29.36 0 0 0 -3.29-1 15.74 15.74 0 0 1 -3.55-1.25 7.41 7.41 0 0 1 -2.12-1.76 4.82 4.82 0 0 1 -1.07-1.86 7.9 7.9 0 0 1 -.29-2.14 5.66 5.66 0 0 1 .19-1.29 6.4 6.4 0 0 1 .6-1.55 7.78 7.78 0 0 1 1.1-1.58 6.87 6.87 0 0 1 1.71-1.39 9.94 9.94 0 0 1 2.42-1 12 12 0 0 1 3.21-.39 17 17 0 0 1 2.43.17 16 16 0 0 1 3.82 1.06c.53.25 1 .47 1.42.69z"/><path d="m648.15 538.15a11.6 11.6 0 0 0 .66 3.66 6.92 6.92 0 0 0 1.61 2.58 6.67 6.67 0 0 0 2.39 1.53 9 9 0 0 0 3 .49 19.78 19.78 0 0 0 4.55-.52 15.49 15.49 0 0 0 4.44-1.89l.48 4a25.3 25.3 0 0 1 -2.49 1.1 20.26 20.26 0 0 1 -2.45.75 18.59 18.59 0 0 1 -2.48.41 24.83 24.83 0 0 1 -2.64.13 12 12 0 0 1 -4.39-.8 10.68 10.68 0 0 1 -3.67-2.37 11.61 11.61 0 0 1 -2.51-3.89 14.47 14.47 0 0 1 -.93-5.4 17.1 17.1 0 0 1 .8-5.37 12.11 12.11 0 0 1 2.29-4.12 9.92 9.92 0 0 1 3.62-2.63 11.86 11.86 0 0 1 4.79-.93 11.75 11.75 0 0 1 3.47.47 8.4 8.4 0 0 1 2.61 1.3 7.83 7.83 0 0 1 1.85 1.92 10.36 10.36 0 0 1 1.18 2.38 13.4 13.4 0 0 1 .64 2.64 21 21 0 0 1 .19 2.72v.94.93zm6.71-9.7a6.13 6.13 0 0 0 -4.32 1.54 8.17 8.17 0 0 0 -2.2 4.8h12.51a7.55 7.55 0 0 0 -.45-2.71 5.47 5.47 0 0 0 -1.24-2 5.07 5.07 0 0 0 -1.91-1.21 6.63 6.63 0 0 0 -2.39-.41"/><path d="m689.44 549.76a6.69 6.69 0 0 1 -.44-1.76c-.13-.76-.24-1.59-.33-2.48s-.16-1.74-.2-2.59-.08-1.54-.08-2.06v-2.4a43.21 43.21 0 0 1 -1.82 4.14 22.47 22.47 0 0 1 -2.44 3.82 13 13 0 0 1 -3 2.8 6.26 6.26 0 0 1 -6.33.43 6.54 6.54 0 0 1 -2.29-2 9.87 9.87 0 0 1 -1.52-3.28 16.37 16.37 0 0 1 -.55-4.49 20.13 20.13 0 0 1 .77-5.57 14.66 14.66 0 0 1 2.34-4.83 11.69 11.69 0 0 1 4-3.4 12.22 12.22 0 0 1 5.79-1.29 35.87 35.87 0 0 1 4.63.3 34.71 34.71 0 0 1 4.11.78v11.14a55.63 55.63 0 0 0 .44 7.61 27 27 0 0 0 1.13 5.08zm-1.81-20.6c-.4-.08-1-.17-1.73-.29a19.45 19.45 0 0 0 -2.93-.18 7.46 7.46 0 0 0 -3.92.94 7.1 7.1 0 0 0 -2.5 2.52 11.11 11.11 0 0 0 -1.34 3.6 22.29 22.29 0 0 0 -.39 4.19 11.21 11.21 0 0 0 .27 2.55 7.81 7.81 0 0 0 .76 2 4.16 4.16 0 0 0 1.1 1.31 2.23 2.23 0 0 0 1.34.47 3.09 3.09 0 0 0 1.62-.52 8.37 8.37 0 0 0 1.63-1.42 17.89 17.89 0 0 0 1.56-2.08 24 24 0 0 0 1.44-2.48c.45-.87.87-1.75 1.25-2.65s.71-1.74 1-2.55.48-1.54.64-2.21a8 8 0 0 0 .22-1.66z"/><path d="m714.78 531c-.4-.24-.85-.49-1.37-.75a17.21 17.21 0 0 0 -1.66-.73 16.66 16.66 0 0 0 -1.92-.57 10.43 10.43 0 0 0 -2.12-.23 7.69 7.69 0 0 0 -2.21.29 4.13 4.13 0 0 0 -1.44.74 2.63 2.63 0 0 0 -.78 1 3 3 0 0 0 -.23 1.09 3.09 3.09 0 0 0 .18 1.1 2.07 2.07 0 0 0 .8.89 8 8 0 0 0 1.74.79c.75.25 1.76.52 3 .81a20 20 0 0 1 3.07.93 9.82 9.82 0 0 1 2.51 1.42 6.38 6.38 0 0 1 1.7 2.07 6.19 6.19 0 0 1 .62 2.89 6.39 6.39 0 0 1 -.71 3 7.69 7.69 0 0 1 -2 2.44 9.2 9.2 0 0 1 -2.92 1.63 11 11 0 0 1 -3.62.58 17.12 17.12 0 0 1 -2.81-.21 15.5 15.5 0 0 1 -2.54-.6 13.84 13.84 0 0 1 -2.17-.89 11.07 11.07 0 0 1 -1.7-1l1.2-4.32a11.37 11.37 0 0 0 1.83 1.31 14.63 14.63 0 0 0 2.1 1 12.3 12.3 0 0 0 2.17.66 10.07 10.07 0 0 0 2 .22 6.21 6.21 0 0 0 1.93-.27 5.16 5.16 0 0 0 1.51-.72 3.45 3.45 0 0 0 1-1 2.25 2.25 0 0 0 .37-1.21 3 3 0 0 0 -.28-1.26 3.14 3.14 0 0 0 -1-1.12 9.23 9.23 0 0 0 -2-1 29.61 29.61 0 0 0 -3.3-1 15.74 15.74 0 0 1 -3.55-1.25 7.7 7.7 0 0 1 -2.16-1.58 4.82 4.82 0 0 1 -1.07-1.86 7.9 7.9 0 0 1 -.29-2.14 5.66 5.66 0 0 1 .19-1.29 6.85 6.85 0 0 1 .6-1.55 8.21 8.21 0 0 1 1.1-1.58 6.87 6.87 0 0 1 1.71-1.39 9.86 9.86 0 0 1 2.43-1 11.83 11.83 0 0 1 3.2-.39 17 17 0 0 1 2.43.17 15.9 15.9 0 0 1 2.09.45 15.09 15.09 0 0 1 1.73.61c.53.25 1 .47 1.42.69z"/><path d="m725.64 538.15a11.6 11.6 0 0 0 .66 3.66 6.92 6.92 0 0 0 1.61 2.58 6.58 6.58 0 0 0 2.39 1.53 9 9 0 0 0 3 .49 19.85 19.85 0 0 0 4.55-.52 15.49 15.49 0 0 0 4.43-1.88l.48 4a26.39 26.39 0 0 1 -2.49 1.1 20.82 20.82 0 0 1 -2.45.75 18.59 18.59 0 0 1 -2.48.41 24.83 24.83 0 0 1 -2.64.13 12 12 0 0 1 -4.39-.8 10.59 10.59 0 0 1 -3.67-2.37 11.31 11.31 0 0 1 -2.51-3.89 14.47 14.47 0 0 1 -.93-5.4 16.82 16.82 0 0 1 .8-5.37 12.11 12.11 0 0 1 2.29-4.12 9.76 9.76 0 0 1 3.62-2.63 12.9 12.9 0 0 1 8.26-.46 8.4 8.4 0 0 1 2.61 1.3 7.61 7.61 0 0 1 1.84 1.92 10 10 0 0 1 1.19 2.38 13.4 13.4 0 0 1 .64 2.64 21 21 0 0 1 .19 2.72v.94.93zm6.71-9.7a6.13 6.13 0 0 0 -4.35 1.55 8.17 8.17 0 0 0 -2.2 4.8h12.51a7.55 7.55 0 0 0 -.45-2.71 5.47 5.47 0 0 0 -1.24-2 5.07 5.07 0 0 0 -1.91-1.21 6.63 6.63 0 0 0 -2.39-.41"/><path d="m764.52 531c-.4-.24-.85-.49-1.36-.75a17.42 17.42 0 0 0 -1.67-.73 16.66 16.66 0 0 0 -1.92-.57 10.35 10.35 0 0 0 -2.12-.23 7.69 7.69 0 0 0 -2.21.29 4.13 4.13 0 0 0 -1.44.74 2.73 2.73 0 0 0 -.78 1 3 3 0 0 0 -.23 1.09 3.09 3.09 0 0 0 .18 1.1 2.07 2.07 0 0 0 .8.89 8 8 0 0 0 1.74.79c.75.25 1.76.52 3 .81a20 20 0 0 1 3.07.93 9.82 9.82 0 0 1 2.51 1.42 6.38 6.38 0 0 1 1.7 2.07 6.19 6.19 0 0 1 .63 2.89 6.4 6.4 0 0 1 -.72 3 7.69 7.69 0 0 1 -2 2.44 9.2 9.2 0 0 1 -2.92 1.63 10.85 10.85 0 0 1 -3.61.58 17.16 17.16 0 0 1 -2.82-.21 15.74 15.74 0 0 1 -2.54-.6 13.84 13.84 0 0 1 -2.17-.89 11.58 11.58 0 0 1 -1.7-1l1.2-4.32a11.83 11.83 0 0 0 1.83 1.31 14.63 14.63 0 0 0 2.1 1 12.3 12.3 0 0 0 2.17.66 10.09 10.09 0 0 0 2.05.22 6.26 6.26 0 0 0 1.93-.27 5.23 5.23 0 0 0 1.5-.72 3.61 3.61 0 0 0 1-1 2.32 2.32 0 0 0 .36-1.21 3 3 0 0 0 -.28-1.26 3.14 3.14 0 0 0 -1-1.12 9.23 9.23 0 0 0 -2-1 30 30 0 0 0 -3.29-1 15.66 15.66 0 0 1 -3.56-1.25 7.7 7.7 0 0 1 -2.16-1.58 5.09 5.09 0 0 1 -1.07-1.86 8.31 8.31 0 0 1 -.28-2.14 5.59 5.59 0 0 1 .18-1.29 7.35 7.35 0 0 1 .6-1.55 8.21 8.21 0 0 1 1.1-1.58 7.06 7.06 0 0 1 1.71-1.39 9.86 9.86 0 0 1 2.43-1 11.83 11.83 0 0 1 3.2-.39 17.1 17.1 0 0 1 2.44.17 16.09 16.09 0 0 1 2.08.45 15.09 15.09 0 0 1 1.73.61c.53.25 1 .47 1.42.69z"/><path d="m385.57 229a.34.34 0 0 0 .37-.37v-48.38l-6.28-.18c0-2 .09-4 .18-5.91h41.24q.57 7.46.85 15.19c-2 .19-4.41.56-6.65.74l-1.51-7.77c-.18-.85-.65-1.41-2.06-1.6-2-.18-6.74-.47-12.74-.47h-2l-.1 20.81c4.31-.09 8-.09 12-.19 1.21 0 1.58-.65 1.77-1.78l.47-4.12c2.16 0 4.5 0 6.47.1-.1 2.9-.1 6.09-.19 9.28v8.9c-2.06.09-4.31.18-6.47.18l-.37-4.4c-.1-1.41-.66-1.88-2-1.88-3.57-.09-7.41-.18-11.72-.09l-.09 20c0 1.68.37 2 5.06 2 6 0 10.13-.28 11.53-.65.94-.19 1.41-.75 1.78-1.78l2.91-8.16c2.25.38 4.59.85 6.65 1.32-1 5.06-2.15 10.31-3.37 15.46-4.51-.09-17-.09-29.8-.09h-11.75c0-1.88 0-3.94.09-5.82z"/><path d="m461.57 231.15c-8.06 4.59-9.94 4.88-13.68 4.88-6.09 0-12.37-6.95-12.37-12.94 0-7.78.09-15.37.09-21.84l-5.06-.1c0-1.87.09-3.93.19-5.8 3.55-.19 14.15-.47 15.28-.57.18 0 .28.29.28.38-.1 6.84-.28 14.71-.28 22.12 0 3.37-.1 6.37 1.31 8.52a5.54 5.54 0 0 0 5.24 2.82c2.63 0 5.82-1.32 8.82-3.56.09-7.12 0-17.34 0-23.81l-5.44-.19c0-2 .1-4 .1-5.9 3.46-.09 14.62-.28 15.92-.28.1 0 .1.19.1.37 0 10.22-.19 21.84-.19 32.71 0 .75.19 1 .56 1l5.81-.09c0 1.78 0 3.75-.09 5.53-1 .47-7.59 1.6-12.56 1.6a18 18 0 0 1 -3.56-4.88z"/><path d="m482.57 202c0-1.88 0-3.75.1-5.53 4-.56 14.9-2.44 15.37-2.44.09 0 .18.1.18.28.19 3.1.38 7.69.57 12.28l.56.1c5.53-10.78 8.34-12.75 12.65-12.75a17.31 17.31 0 0 1 6.09 1.12c0 3-2.06 8.53-3.37 9.75a27.13 27.13 0 0 0 -5.35-.84 4.56 4.56 0 0 0 -2.89 1.12c-1.79 1.4-3.48 3.75-5.63 7.88-1.13 2.15-1.5 5.34-1.5 8.24-.1 2.54-.1 5.63-.1 8l8.35.28c0 1.68 0 3.75-.09 5.53h-12.94c-3.56 0-7.78.09-11.16.09 0-1.78 0-3.83.1-5.62l5-.18c.18-.1.38-.19.38-.38v-26.84z"/><path d="m541 236c-5.34 0-10.31-1.5-13.68-4.49-4.22-3.66-6.56-8.73-6.56-15.57a21.72 21.72 0 0 1 8.34-17.53 22.71 22.71 0 0 1 13.87-4.4 20.53 20.53 0 0 1 12.19 3.47c4.68 3.37 7.78 8.9 7.78 16.69a22.31 22.31 0 0 1 -8.94 18.1 21.65 21.65 0 0 1 -12.94 3.73zm.94-5.53a7.63 7.63 0 0 0 6.19-2.71c2.53-2.91 3.37-6.95 3.37-13.22 0-5.44-.93-9.18-2.9-11.72a7.47 7.47 0 0 0 -6.48-3.28 8 8 0 0 0 -6.27 2.81c-2.35 2.72-3.56 6.84-3.56 12.56 0 6.37 1.12 10.12 3.46 12.75a7.56 7.56 0 0 0 6.09 2.81z"/><path d="m583.62 199.28c9.28-5 10.59-5.25 14.43-5.25 8.81-.09 14.91 9.28 14.81 18.09a28.34 28.34 0 0 1 -2.53 12 21.55 21.55 0 0 1 -7.31 9.09 20.06 20.06 0 0 1 -10.22 2.79 20.41 20.41 0 0 1 -9-1.78l-.47.19v16.31l8.26.18c0 1.88 0 3.85-.11 5.63-3.93 0-8.89 0-13.4.09-3.37 0-7.4 0-10.59.1 0-1.79 0-3.75.1-5.54l5.06-.37c.19 0 .28-.28.28-.47l.09-48.08-6.65-.09c0-1.79.09-3.76.19-5.44 3.93-.56 14.9-2.81 15.46-2.81.19 0 .19.09.19.28.28 1.59.56 3.37.84 5zm18 15.65c0-3.84-.47-6.93-1.78-9.28a7.35 7.35 0 0 0 -6.19-3.74 18.1 18.1 0 0 0 -9.93 3.65c-.09 6.28-.18 14.15-.18 20.15 0 2 4.4 4.12 7.87 4.12a8.88 8.88 0 0 0 6.74-2.9c2.16-2.44 3.47-6.28 3.47-11.9z"/><path d="m620 216.91c0-12.66 8.52-22.87 21.46-22.87 5.34 0 9.28 1.87 11.71 4.87 2.91 3.47 4.12 8.15 4.12 13.12-.28 1.22-3.09 4.22-4 4.31-4.12.28-15.37.28-22.31.28 0 4.31 1 7.31 2.81 9.28 2.53 2.72 5.35 3.09 8.62 3.09 4.13 0 9.56-1.59 12.65-2.81a41.14 41.14 0 0 1 1.41 5.72c-5.34 2.53-12.09 4.13-16.3 4.13-12.31-.03-20.17-7.13-20.17-19.03zm20-17.07a7 7 0 0 0 -5.9 2.72 13.5 13.5 0 0 0 -3 8.44c4.5 0 10.77-.1 15.09-.28a.94.94 0 0 0 1-1 14.2 14.2 0 0 0 -1.88-7 6.2 6.2 0 0 0 -5.24-2.81z"/><path d="m688.21 231.8c-6.37 3.28-10.31 4.22-13.68 4.22-4.78 0-11.25-4.31-11.25-9.93 0-5.25 5.91-13.22 19.41-13.22h5.71c.28-7.69-1.88-11.15-6.94-11.15-3.65 0-8.05 2.72-11.53 5.81-1.31-1.5-2.71-3.19-3.94-4.87 5.16-4.6 11.17-8.63 19.22-8.63 7.12 0 13.4 5.35 13.4 14.72 0 5.15-.18 15.37-.18 19.3 0 .85.18 1.22.65 1.13l5.72-.19c0 1.69.1 3.76 0 5.54a55.75 55.75 0 0 1 -12.8 1.47 27.61 27.61 0 0 1 -3.28-4.22zm-14.21-6.74c0 2.52 2.54 4.31 5.45 4.31a16.67 16.67 0 0 0 8.71-3.1.81.81 0 0 0 .18-.66v-7.39c-.47 0-2-.1-3.84-.1-7.4 0-10.5 3.19-10.5 6.84z"/><path d="m708.74 202.09c0-1.78.1-3.75.1-5.43 4.12-.47 14.89-2.54 15.45-2.54.2 0 .2.1.2.28.37 1.88.84 4 1.12 5.63l.47.09c9.28-5.62 11.34-6.09 15.46-6.09 4.51 0 8.06 3.47 9.94 6.47a14.54 14.54 0 0 1 1.88 7.49c0 6.19-.2 14.63-.28 21.19l5.43.19c0 1.78 0 3.84-.09 5.62h-10.79c-3.37 0-7.21.09-10.12.09v-5.62l4.78-.28c.2 0 .28-.19.38-.37v-15.1c0-4 0-7-1-8.81-1.41-2.62-3.28-2.9-5.25-2.9-2.82 0-7.22 2.06-10.22 4.49-.18 6.48-.28 16.5-.28 22.69l5.63.19c0 1.87-.1 3.84-.1 5.62h-11.09c-3.37 0-7.3.09-10.5.09 0-1.78 0-3.84.1-5.62l5.15-.28c.19 0 .28-.19.28-.37v-26.53z"/><path d="m380 273.89c.09-2 .09-3.94.19-5.91 5.72-.09 12.84-.18 19.5-.18 5.43 0 8.34.09 13.3 1.4 7 1.69 12.29 8.16 12.29 14.53 0 8.07-5.35 13.87-12.29 16.59v.47c4.32 2 6.57 7.31 11.16 16.31 2.25 4.4 3 5.34 4.12 5.44l5.25.37c0 1.88-.1 3.85-.1 5.81-1.68 0-4.59 0-6.55.09-1.79 0-6.94.1-8.44.1-2.9-4.31-8.06-16.22-10.59-20.81-1.78-3.09-3.66-4.22-7.21-4.22a23.1 23.1 0 0 0 -4 .19l-.1 18.65 6.76.29c0 1.86-.1 3.83-.1 5.8h-23.19c.09-2 .09-3.94.09-5.8l5.44-.29c.19 0 .38-.09.38-.28v-48.37zm16.62 24.11a16.68 16.68 0 0 0 3.84.19c9.56 0 13.6-6.1 13.6-12 0-8-5.44-12.65-12.85-12.65-2.44 0-3.84.09-4.4.37z"/><path d="m436.46 310.63c0-12.65 8.53-22.87 21.46-22.87 5.35 0 9.28 1.88 11.72 4.87 2.9 3.47 4.12 8.16 4.12 13.13-.29 1.22-3.1 4.21-4 4.31-4.12.28-15.37.28-22.31.28 0 4.31 1 7.31 2.81 9.28 2.53 2.72 5.35 3.09 8.63 3.09 4.12 0 9.55-1.59 12.64-2.81a42.28 42.28 0 0 1 1.42 5.72c-5.35 2.53-12.09 4.12-16.31 4.12-12.28 0-20.15-7.12-20.15-19zm20.05-17.06a7 7 0 0 0 -5.9 2.72 13.47 13.47 0 0 0 -3 8.43c4.5 0 10.78-.08 15.09-.27a.94.94 0 0 0 1-1 14.19 14.19 0 0 0 -1.88-7 6.22 6.22 0 0 0 -5.24-2.81z"/><path d="m505.54 323.1c0 1.87 0 3.75-.1 5.62h-14.06c-3.28 0-7.4.1-10.6.1 0-1.88 0-3.76.11-5.63l5.06-.28a.41.41 0 0 0 .37-.38c0-8.9 0-18.36-.09-27.17h-6.85c0-2.07.09-4.32.2-6.19 2-.1 4.11-.1 6-.19.38 0 .56-.28.56-.65 0-9.38 1.41-12.85 5.25-17 5.34-5.72 10.59-6.84 15-6.84a22.42 22.42 0 0 1 7.78 1.31c0 2.44-2.06 6.94-3.66 8.06-.75-.28-4.59-1.87-7.12-1.87a5.28 5.28 0 0 0 -4.6 2.25c-1.5 2.43-2 4.68-1.87 14.71 4.22 0 8.81 0 12.84-.1 0 2-.18 4.51-.28 6.57h-12.66c0 7.59-.1 19-.1 27.46z"/><path d="m514.35 310.63c0-12.65 8.52-22.87 21.46-22.87 5.34 0 9.28 1.88 11.72 4.87 2.9 3.47 4.12 8.16 4.12 13.13-.29 1.22-3.1 4.21-4 4.31-4.12.28-15.37.28-22.31.28 0 4.31 1 7.31 2.81 9.28 2.53 2.72 5.35 3.09 8.63 3.09 4.12 0 9.55-1.59 12.64-2.81a42.28 42.28 0 0 1 1.42 5.72c-5.35 2.53-12.09 4.12-16.31 4.12-12.28 0-20.15-7.12-20.15-19zm20-17.06a7 7 0 0 0 -5.9 2.72 13.47 13.47 0 0 0 -3 8.43c4.5 0 10.78-.08 15.09-.27a.94.94 0 0 0 1-1 14.19 14.19 0 0 0 -1.88-7 6.22 6.22 0 0 0 -5.24-2.81z"/><path d="m557.84 295.73c0-1.88 0-3.75.09-5.53 4-.56 14.9-2.44 15.37-2.44.1 0 .19.1.19.28.18 3.1.38 7.69.56 12.28l.56.1c5.53-10.78 8.34-12.75 12.66-12.75a17.35 17.35 0 0 1 6.09 1.12c0 3-2.06 8.53-3.38 9.75a27 27 0 0 0 -5.34-.84 4.6 4.6 0 0 0 -2.9 1.12c-1.78 1.4-3.47 3.76-5.62 7.88-1.13 2.15-1.51 5.34-1.51 8.24-.09 2.53-.09 5.63-.09 8l8.35.28c0 1.68 0 3.75-.1 5.53h-12.94c-3.56 0-7.77.09-11.15.09 0-1.78 0-3.83.1-5.62l5-.18c.18-.1.37-.19.37-.38v-26.84z"/><path d="m597.3 310.63c0-12.65 8.53-22.87 21.46-22.87 5.35 0 9.28 1.88 11.72 4.87 2.9 3.47 4.12 8.16 4.12 13.13-.29 1.22-3.1 4.21-4 4.31-4.12.28-15.37.28-22.31.28 0 4.31 1 7.31 2.81 9.28 2.53 2.72 5.34 3.09 8.63 3.09 4.12 0 9.55-1.59 12.64-2.81a42.28 42.28 0 0 1 1.42 5.72c-5.35 2.53-12.09 4.12-16.31 4.12-12.28 0-20.15-7.12-20.15-19zm20.05-17.06a7 7 0 0 0 -5.9 2.72 13.47 13.47 0 0 0 -3 8.43c4.5 0 10.78-.08 15.09-.27a.94.94 0 0 0 1-1 14.19 14.19 0 0 0 -1.88-7 6.22 6.22 0 0 0 -5.24-2.81z"/><path d="m640.41 295.82c0-1.78.1-3.75.1-5.43 4.12-.47 14.9-2.54 15.46-2.54.19 0 .19.1.19.28.37 1.88.85 4 1.12 5.63l.47.09c9.28-5.62 11.35-6.09 15.47-6.09 4.5 0 8 3.47 9.93 6.47a14.44 14.44 0 0 1 1.88 7.49c0 6.19-.19 14.63-.28 21.19l5.43.19c0 1.78 0 3.84-.09 5.62h-10.78c-3.38 0-7.22.09-10.13.09v-5.62l4.78-.28c.2 0 .28-.19.39-.37v-15.1c0-4 0-7-1-8.81-1.4-2.62-3.28-2.9-5.25-2.9-2.81 0-7.22 2.06-10.21 4.49-.2 6.48-.29 16.5-.29 22.69l5.63.19c0 1.87-.09 3.84-.09 5.62h-11.14c-3.36 0-7.3.09-10.49.09 0-1.78 0-3.84.09-5.62l5.15-.28c.19 0 .29-.19.29-.37v-26.54z"/><path d="m695 311.29c0-13.31 9.84-23.52 24.56-23.52 3.75 0 7.59.93 9.37 2.05 0 2.07-2.34 6.94-3.84 7.79-.94-.38-5.16-2.54-8.91-2.54a7.81 7.81 0 0 0 -6.84 3.19c-1.87 2.44-3.28 6-3.28 11.15 0 4.88 1.12 7.88 3.19 10.41 2 2.34 5.06 2.9 7.59 2.9 3.66 0 8.25-1.5 11.24-2.62a52.39 52.39 0 0 1 1.31 5.53 38.89 38.89 0 0 1 -15.92 4.13c-10 0-18.47-6.76-18.47-18.38z"/><path d="m734.61 310.63c0-12.65 8.53-22.87 21.46-22.87 5.35 0 9.28 1.88 11.72 4.87 2.9 3.47 4.12 8.16 4.12 13.13-.28 1.22-3.09 4.21-4 4.31-4.12.28-15.37.28-22.31.28 0 4.31 1 7.31 2.81 9.28 2.53 2.72 5.34 3.09 8.63 3.09 4.12 0 9.55-1.59 12.65-2.81a42.23 42.23 0 0 1 1.41 5.72c-5.35 2.53-12.09 4.12-16.31 4.12-12.27 0-20.15-7.12-20.15-19zm20-17.06a7 7 0 0 0 -5.9 2.72 13.47 13.47 0 0 0 -3 8.43c4.5 0 10.78-.08 15.09-.27a.94.94 0 0 0 1-1 14.29 14.29 0 0 0 -1.87-7 6.25 6.25 0 0 0 -5.25-2.81z"/><path d="m384.63 416.36a.35.35 0 0 0 .37-.36l-.09-48.26-6.29-.19c0-1.88 0-4 .1-5.82h15.46c9.19 13.4 21.47 32 30.75 46.4l.56-.09c-.1-13.41-.18-26.9-.38-40.3l-8-.1c0-2 .1-4 .1-5.91h11.89c3.2 0 6.76-.09 9.38-.09.09 1.88 0 3.94 0 5.81l-5.06.29c-.19 0-.28.09-.28.47l-.34 53.79a22.26 22.26 0 0 1 -7.69 1.31c-8.25-10.87-20.24-27.37-31.77-44.79h-.66c0 12.74-.08 25.2-.08 37.86l8.34.19c0 1.87-.1 4-.1 6-3.84 0-8.53-.09-12.84-.09-3.09 0-6.28.09-8.9.09 0-1.87 0-4 .08-5.9z"/><path d="m442.74 404.36c0-12.65 8.53-22.87 21.46-22.87 5.35 0 9.28 1.88 11.72 4.88 2.9 3.47 4.12 8.15 4.12 13.12-.29 1.22-3.09 4.22-4 4.31-4.12.28-15.37.28-22.31.28 0 4.31 1 7.31 2.81 9.28 2.53 2.72 5.34 3.09 8.63 3.09 4.12 0 9.55-1.59 12.65-2.81a44.18 44.18 0 0 1 1.41 5.72c-5.35 2.53-12.09 4.12-16.31 4.12-12.28 0-20.15-7.12-20.15-19zm20.05-17.06a7 7 0 0 0 -5.9 2.72 13.5 13.5 0 0 0 -3 8.44c4.5 0 10.78-.1 15.09-.28a.94.94 0 0 0 1-1 14.2 14.2 0 0 0 -1.88-7 6.2 6.2 0 0 0 -5.24-2.81z"/><path d="m502 423.48a9.82 9.82 0 0 1 -7.12-2.62c-2.81-2.34-2.9-4.5-2.9-7.32 0-5 .09-11.15.09-13 0-2.44.09-9.75.09-11.44h-6.47a59 59 0 0 1 .2-6c2-.1 4.12-.29 6-.38a.71.71 0 0 0 .66-.66c.09-2.62.28-5.81.46-8.34a60.32 60.32 0 0 1 9.76-3.94c.09 0 .18.1.18.29 0 2.72-.09 9.28-.18 12.65 4.77 0 10-.09 14.62-.09 0 2.06-.19 4.49-.28 6.56-4.22 0-9.57-.1-14.44-.1v9.38c-.09 3.84-.09 8.43-.09 12.93 0 3.38 2.53 5.06 5.34 5.06a44.29 44.29 0 0 0 9.47-1.4 52.49 52.49 0 0 1 .84 5.72 50.29 50.29 0 0 1 -16.12 2.71z"/><path d="m584.92 388.33c-1.21 3.85-3 9.19-5.52 16.78-2.17 6.38-4 11.44-6.47 18.19-2.07.09-4.88.18-9.1.18-2.62-8-5.24-15.93-7.77-24.93h-.57c-2.62 7-7.11 18-10.12 24.75-2.15.09-5.43.18-8.62.18-2.35-8.06-3.84-13.68-5.34-19.49-1.69-6.47-2.91-11.34-3.94-15.18a.43.43 0 0 0 -.47-.38l-3.93-.28c0-1.88 0-3.94.09-5.72h21.28c0 1.78 0 3.84-.1 5.62l-6 .19c.28 2.16 1.13 6.65 2.07 11.81s1.86 9.66 2.62 13.21l.56.1c2.16-6.38 7.31-20.81 9.93-27.83 1-.11 4.88-.19 8.44-.19 1.87 6.84 6.09 21.93 8 28.2h.56c1.31-5 2.06-8.05 3.28-12.64 1.13-4.41 2.15-8.91 2.72-12.09.09-.29 0-.38-.28-.38l-5-.19c.1-2 .1-4 .19-5.72h10.57c2.35 0 5-.09 6.94-.09a55.47 55.47 0 0 1 -.1 5.62z"/><path d="m612.66 423.48c-5.34 0-10.31-1.5-13.68-4.49-4.22-3.66-6.56-8.73-6.56-15.57a21.72 21.72 0 0 1 8.34-17.53 22.73 22.73 0 0 1 13.87-4.4 20.53 20.53 0 0 1 12.19 3.51c4.68 3.37 7.78 8.9 7.78 16.69a22.31 22.31 0 0 1 -8.91 18.08 21.65 21.65 0 0 1 -12.93 3.75zm.94-5.53a7.63 7.63 0 0 0 6.19-2.71c2.53-2.91 3.37-6.95 3.37-13.22 0-5.44-.93-9.18-2.9-11.72a7.47 7.47 0 0 0 -6.48-3.28 8 8 0 0 0 -6.27 2.81c-2.35 2.72-3.56 6.84-3.56 12.56 0 6.37 1.12 10.12 3.46 12.75a7.56 7.56 0 0 0 6.09 2.86z"/><path d="m638.73 389.46c0-1.88 0-3.75.09-5.53 4-.56 14.9-2.44 15.37-2.44.09 0 .19.1.19.28.18 3.1.38 7.69.56 12.28l.56.1c5.53-10.78 8.34-12.75 12.66-12.75a17.25 17.25 0 0 1 6.08 1.12c0 3-2 8.53-3.37 9.75a27 27 0 0 0 -5.34-.84 4.58 4.58 0 0 0 -2.9 1.12c-1.79 1.4-3.47 3.75-5.62 7.88-1.13 2.15-1.51 5.34-1.51 8.24-.09 2.53-.09 5.63-.09 8l8.34.28c0 1.68 0 3.75-.09 5.54h-12.94c-3.56 0-7.77.08-11.15.08 0-1.77 0-3.83.1-5.62l5-.18c.19-.1.38-.19.38-.38v-26.84z"/><path d="m675.84 365c0-1.88.09-3.85.09-5.63 4.31-.56 16.31-2.44 17.16-2.44.18 0 .28.1.28.38 0 11.44-.19 26.34-.28 40.58 1.4 0 3.93-.09 5.53-.28a95 95 0 0 0 8.62-8.71c.19-.19 0-.38-.18-.38l-4-.18c0-1.88 0-4 .1-5.82h10.84c2.62-.09 5.35-.09 7.87-.09 0 1.78 0 3.94-.09 5.72l-3.94.28c-5.15 4.69-8.53 7.68-11.62 10.41v.55a26.2 26.2 0 0 1 7.31 9.28 52.45 52.45 0 0 0 4.13 7 1.81 1.81 0 0 0 1.58.84l5.17.19c0 1.88 0 3.85-.1 5.72-3.47 0-13 .1-15.09.19a92.13 92.13 0 0 1 -5.22-10.56c-2.16-4.5-4.5-8.06-6.47-8.62-1.31 0-3.19 0-4.4.09 0 3.84-.09 9.37-.09 13.12l4.86.28c0 1.78 0 3.75-.08 5.53h-10.45c-3.47 0-7.31.1-10.59.1 0-1.79 0-3.85.09-5.63l5.34-.28c.1 0 .28-.19.28-.38v-51.17z"/></g><g clip-path="url(#a)"><path d="m237.6 297.13h16.35v16.12h-16.35z" fill="url(#b)"/></g><g clip-path="url(#c)"><path d="m185.96 192.9h31.75v22.76h-31.75z" fill="url(#d)"/></g><g clip-path="url(#e)"><path d="m149.52 197.88h31.21v23.33h-31.21z" fill="url(#f)"/></g><g clip-path="url(#g)"><path d="m268.26 276.44h26.55v30.26h-26.55z" fill="url(#h)"/></g><g clip-path="url(#i)"><path d="m254.05 236.03h28.37v27.3h-28.37z" fill="url(#j)"/></g><g clip-path="url(#k)"><path d="m223.83 206.26h29.36v24.44h-29.36z" fill="url(#l)"/></g><g clip-path="url(#m)"><path d="m168.13 154.95h44.58v28.64h-44.58z" fill="url(#n)"/></g><g clip-path="url(#o)"><path d="m115.23 161.21h45.17v30.38h-45.17z" fill="url(#p)"/></g><g clip-path="url(#q)"><path d="m271.35 215.37h38.72v42.06h-38.72z" fill="url(#r)"/></g><g clip-path="url(#s)"><path d="m222.04 172.5h43.12v33.37h-43.12z" fill="url(#t)"/></g><g clip-path="url(#u)"><path d="m199.27 229.82h17.39v13.78h-17.39z" fill="url(#v)"/></g><g clip-path="url(#w)"><path d="m178.95 232.81h17.21v13.91h-17.21z" fill="url(#x)"/></g><g clip-path="url(#y)"><path d="m242.93 276.09h15.81v15.77h-15.81z" fill="url(#z)"/></g><g clip-path="url(#A)"><path d="m236.33 254.39h16.21v14.81h-16.21z" fill="url(#B)"/></g><g clip-path="url(#C)"><path d="m219.91 237.66h17.06v14.12h-17.06z" fill="url(#D)"/></g><g clip-path="url(#E)"><path d="m297.24 278.73h32.33v49.58h-32.33z" fill="url(#F)"/></g><g clip-path="url(#G)"><path d="m222.66 311.09h16.75v16.1h-16.75z" fill="url(#H)"/></g><g clip-path="url(#I)"><path d="m190.1 347.88h31.38v29.93h-31.38z" fill="url(#J)"/></g><g clip-path="url(#K)"><path d="m230.2 342.14h28.49v30.42h-28.49z" fill="url(#L)"/></g><g clip-path="url(#M)"><path d="m258.23 316.3h27.32v30.91h-27.32z" fill="url(#N)"/></g><g clip-path="url(#O)"><path d="m120.44 220.96h33.71v25.56h-33.71z" fill="url(#P)"/></g><g clip-path="url(#Q)"><path d="m110.07 258.28h33.15v28.89h-33.15z" fill="url(#R)"/></g><g clip-path="url(#S)"><path d="m121.36 300.52h33.61v29.85h-33.61z" fill="url(#T)"/></g><g clip-path="url(#U)"><path d="m150.13 332.96h33.4v29.79h-33.4z" fill="url(#V)"/></g><g clip-path="url(#W)"><path d="m173.98 391.28h45.77v45.89h-45.77z" fill="url(#X)"/></g><g clip-path="url(#Y)"><path d="m231.14 382.92h42.54v47.23h-42.54z" fill="url(#Z)"/></g><g clip-path="url(#aa)"><path d="m278.69 343.09h37.06v49.32h-37.06z" fill="url(#ab)"/></g><g clip-path="url(#ac)"><path d="m67.8 193.51h50.85v38.19h-50.85z" fill="url(#ad)"/></g><g clip-path="url(#ae)"><path d="m47.24 250.98h52.35v47.14h-52.35z" fill="url(#af)"/></g><g clip-path="url(#ag)"><path d="m66.4 318.53h51.98v48.2h-51.98z" fill="url(#ah)"/></g><g clip-path="url(#ai)"><path d="m113.86 369.06h49.25v46.26h-49.25z" fill="url(#aj)"/></g><g clip-path="url(#ak)"><path d="m201.48 314.26h17.27v16.02h-17.27z" fill="url(#al)"/></g><g clip-path="url(#am)"><path d="m163.83 245.97h17.8v14.44h-17.8z" fill="url(#an)"/></g><g clip-path="url(#ao)"><path d="m158.75 266.27h17.78v15.3h-17.78z" fill="url(#ap)"/></g><g clip-path="url(#aq)"><path d="m164.81 288.51h17.56v15.85h-17.56z" fill="url(#ar)"/></g><g clip-path="url(#as)"><path d="m180.31 306.15h17.72v15.83h-17.72z" fill="url(#at)"/></g></svg>