<svg id="Layer_1" data-name="Layer 1" xmlns="http://www.w3.org/2000/svg" viewBox="0 0 200 250"><defs><style>.cls-1,.cls-2,.cls-3{fill:#0959a1;}.cls-1{stroke:#fff;stroke-opacity:0;}.cls-3{stroke:#0959a1;}</style></defs><path class="cls-1" d="M102.13,38.6a6.09,6.09,0,0,1-6.67,0,.89.89,0,0,0-.11.31L93.4,61.28l5.23-.55,5.56.58-2-22.41A1.18,1.18,0,0,0,102.13,38.6Z"/><circle class="cls-1" cx="98.79" cy="30.68" r="6.16" transform="translate(6.1 76.62) rotate(-43.62)"/><circle class="cls-1" cx="120.82" cy="67.79" r="4.06"/><path class="cls-1" d="M115.93,65.14,98.79,63.33,81.65,65.14a4,4,0,0,1,0,5.29l17.14,1.81,17.14-1.81a4,4,0,0,1,0-5.29Z"/><circle class="cls-1" cx="76.62" cy="67.79" r="4.06"/><path class="cls-2" d="M104.73,169.38l-1-.87,1-1c2.88-2.92,4.35-6,4.35-9.21V141.57c0-3.19-1.47-6.28-4.35-9.19l-.9-.92.9-.94c2.88-2.92,4.34-6,4.34-9.2V104.57c0-3.19-1.5-6.09-4.39-9l-1.12-1,1.16-1.06c2.88-2.92,4.34-6,4.34-9.2V73.48l-4.8.42v2.22H93.34V73.9l-4.83-.39V84.34c0,3.18,1.47,6.28,4.35,9.19l1.14,1-1,1c-2.89,2.92-4.5,5.87-4.5,9v16.76c0,3.18,1.47,6.28,4.35,9.19l.92.93-.92.92c-2.88,2.92-4.34,6-4.34,9.2v16.76c0,3.18,1.46,6.27,4.34,9.18l1,1-1,.86c-2.89,2.92-4.35,6-4.35,9.2v16.76c0,7.36,7.83,12.19,9.4,13.09l.87.49.87-.49c1.56-.9,9.39-5.75,9.38-13.11V178.57C109.06,175.38,107.6,172.29,104.73,169.38Zm-.48-13.3H93.35v-4.5h10.9Zm0-7.37H93.35v-4.5h10.9Zm0-30.1H93.35v-4.5h10.9Zm0-7.37H93.35v-4.5h10.9ZM93.34,79h10.9V83.5H93.34Zm0,7.38h10.9c-1.2,2.9-4.83,5.66-5.46,6A15.92,15.92,0,0,1,93.34,86.37Zm5.45,11.5c.63.35,4.26,3.1,5.46,6H93.34A15.84,15.84,0,0,1,98.79,97.87Zm-5.44,23.61h10.9c-1.2,2.89-4.83,5.65-5.46,6A16,16,0,0,1,93.35,121.48Zm5.44,13.87c.63.34,4.26,3.1,5.46,6H93.34A15.7,15.7,0,0,1,98.79,135.35ZM93.35,159h10.9c-1.2,2.89-4.83,5.65-5.46,6A15.86,15.86,0,0,1,93.35,159Zm5.44,43.48a16,16,0,0,1-5.44-6h10.9C103.05,199.33,99.42,202.09,98.79,202.43Zm5.46-8.86H93.35v-4.5h10.9Zm0-7.37H93.35v-4.5h10.9Zm-10.91-7.37a15.84,15.84,0,0,1,5.45-6c.63.35,4.26,3.1,5.46,6Z"/><path class="cls-3" d="M75.31,89c-18.28-.75-46,30.57-16.81,48.62.31-6.75.63-9.47,2-12.42-4.69-1.51-11.48-11.9-11.48-11.9s7.16,8.29,12.27,4.43S55,105.58,75.31,89Z"/><path class="cls-3" d="M76.37,96.68c9.8,15.61-3.5,24.55-12.26,22,0,0,3-2.84,1.53-8.48C72.92,112.34,76.37,96.68,76.37,96.68Z"/><path class="cls-3" d="M122.24,89c18.28-.75,46,30.57,16.81,48.62-.3-6.75-.62-9.47-2.05-12.42,4.7-1.51,11.48-11.9,11.48-11.9s-7.16,8.29-12.27,4.43S142.53,105.58,122.24,89Z"/><path class="cls-3" d="M121.18,96.68c-9.8,15.61,3.5,24.55,12.26,22,0,0-2.94-2.84-1.52-8.48C124.63,112.34,121.18,96.68,121.18,96.68Z"/><path class="cls-3" d="M170.32,139.17c-.17,3.88-17.68,19.31-33.07,17.15l3.42-3.44s8,2.73,8.47-2.41C157.35,149.05,166.13,141.66,170.32,139.17Z"/><path class="cls-3" d="M176.28,157.68c-2.9,11.13-34.75,15.18-46.4,6l3.26-3.26c3.69,1.28,3.86,6.61,13.57,1.68,5.18,7.95,9.25-.31,9.25-.31C160.41,162.58,164.67,164.51,176.28,157.68Z"/><path class="cls-3" d="M150.64,202.22c1.75-5.66.08-9.65-4.29-16.63-4.53-6.23-4.77-8.27-6-9.52-2.58-2.58-6,.18-16.35-6.48l-2.53,2.53c4.64,4.3,8.83,3.06,11.66,7,1.12,1,4.11-.56,4.11-.56a33.62,33.62,0,0,0-1.05,4.86C136.17,184.57,146.35,185.64,150.64,202.22Z"/><path class="cls-3" d="M127,217c1.71-7.33,8.33-12.45,5.49-21-3-7.61-3.05-10.19-3.92-11.69-1.78-3.11-3.94-.15-11.39-7.9l-2.86,2.86c3.23,5.15,6.67,4.61,8.55,9.45.78,1.14,3.17-1,3.17-1s-1.07,4.83-1.15,6.27C126.36,194.87,132.55,196.7,127,217Z"/><path class="cls-3" d="M27.27,139.17c.16,3.88,17.67,19.31,33.07,17.15l-3.43-3.44s-8,2.73-8.46-2.41C40.23,149.05,31.45,141.66,27.27,139.17Z"/><path class="cls-3" d="M21.31,157.68c2.9,11.13,34.75,15.18,46.4,6l-3.26-3.26c-3.69,1.28-3.86,6.61-13.58,1.68-5.17,7.95-9.24-.31-9.24-.31C37.17,162.58,32.92,164.51,21.31,157.68Z"/><path class="cls-3" d="M46.94,202.22c-1.74-5.66-.08-9.65,4.3-16.63,4.52-6.23,4.77-8.27,6-9.52,2.59-2.58,6,.18,16.36-6.48l2.53,2.53c-4.64,4.3-8.84,3.06-11.67,7-1.11,1-4.11-.56-4.11-.56a33.35,33.35,0,0,1,1.06,4.86C61.42,184.57,51.24,185.64,46.94,202.22Z"/><path class="cls-3" d="M70.62,217c-1.72-7.33-8.34-12.45-5.49-21,3-7.61,3.05-10.19,3.91-11.69,1.79-3.11,3.94-.15,11.39-7.9l2.87,2.86c-3.23,5.15-6.68,4.61-8.55,9.45-.79,1.14-3.17-1-3.17-1s1.06,4.83,1.14,6.27C71.22,194.87,65,196.7,70.62,217Z"/><path class="cls-2" d="M86.6,122.91s-20.94,11.63-26,15.51-6.91,8.74-2.19,13.43,28.2,27.77,28.2,27.77c-.23-5.63,3.17-8.54,5.27-11.09-4.58-5.66-4.61-6.83-4.65-20.66-.06-8.34-.11-11,4.51-16.42C90.42,129.89,87.13,127.23,86.6,122.91Z"/><path class="cls-2" d="M110.91,122.91s20.94,11.63,26.05,15.51,6.92,8.74,2.19,13.43S111,179.62,111,179.62c.23-5.63-3-8.55-5.14-11.09,4.58-5.66,4.55-6.83,4.59-20.66.06-8.34,0-11-4.59-16.48C107.09,129.82,110.39,127.23,110.91,122.91Z"/></svg>