<svg fill="none" xmlns="http://www.w3.org/2000/svg" viewBox="0 0 24 24"><path d="M10.486 4.114c.675-1.162 2.353-1.162 3.028 0l2.065 3.56c.19.328.52.552.894.608l3.43.518c1.495.226 2.02 2.114.855 3.078l-2.499 2.07a1.25 1.25 0 0 0-.43 1.197l.7 3.676c.274 1.44-1.238 2.559-2.535 1.876L12.582 18.9a1.25 1.25 0 0 0-1.164 0l-3.412 1.797c-1.297.683-2.81-.436-2.535-1.876l.7-3.676a1.25 1.25 0 0 0-.43-1.197l-2.5-2.07c-1.164-.964-.64-2.852.856-3.078l3.43-.518a1.25 1.25 0 0 0 .894-.608l2.065-3.56Z" fill="currentColor"/></svg>