<svg xmlns="http://www.w3.org/2000/svg"
    xml:space="preserve" viewBox="0.010000000707805157 0 65.39999389648438 14" width="137" height="50"
>
    <style>
        .b {
            fill: #134395;
        }
    </style>
    <path class="b" d="M33.6,13.66V6.25c0-1.47-.2-2.99-2.34-2.99-1.1,0-2.42,.79-2.42,2.59v7.8h-3.91V6.25c0-1.47-.19-2.99-2.33-2.99-1.1,0-2.39,.88-2.39,2.37V13.66h-3.94V.37h3.94v1.97s.79-2.34,4.08-2.34c1.69,0,3.13,.59,4.08,2.34,.9-1.55,2.33-2.34,4.36-2.34,2.9,0,4.79,1.72,4.79,3.97V13.66h-3.91Z" />
    <path class="b" d="M51.29,1.16l-1.1,3.17s-1.16-1.07-2.86-1.07c-2.5,0-3.17,2.13-3.17,3.84,0,1.8,1.13,3.69,3.11,3.69s3.11-1.1,3.11-1.1l.85,2.98s-1.7,1.31-4.6,1.31c-3.47,0-6.16-2.23-6.16-6.89,0-3.96,2.47-6.98,6.7-6.98,2.59,0,4.11,1.04,4.11,1.04Z" />
    <path class="b" d="M11.97,13.67h-3.71v-2.43s-.74,2.76-4.14,2.76c-2.49,0-4.11-1.75-4.11-4.58V.38H3.74v7.92c0,1.11,.21,2.52,2.12,2.52,1.35,0,2.4-.98,2.4-2.7V.38h3.71V13.67Z" />
    <path class="b" d="M65.41,6.22h-5.23v1.94h2.15v2.15c-.53,.25-1.25,.48-2.11,.48h0c-2.75,0-3.43-1.89-3.43-3.69,0-1.71,.67-3.84,3.49-3.84,1.71,0,2.86,1.07,2.86,1.07l1.1-3.17s-1.53-1.04-4.12-1.04c-4.23,0-6.71,3.02-6.71,6.98,0,4.66,2.69,6.89,6.16,6.89h0c.16,0,.31-.01,.46-.01,3.02-.07,5.37-1.34,5.37-1.34V6.22Z" />
</svg>