<svg height="43" viewBox="0 0 132 43" width="132" xmlns="http://www.w3.org/2000/svg"><g fill="none" fill-rule="evenodd"><g transform="translate(.762326 .837914)"><path d="m41.599381 20.799703c0 11.487343-9.312361 20.799703-20.799703 20.799703-11.4873431 0-20.79970314-9.31236-20.79970314-20.799703s9.31236004-20.799703 20.79970314-20.799703c11.487342 0 20.799703 9.31236 20.799703 20.799703" fill="#017ffd"/><g fill="#fff"><path d="m14.792183 25.43923c0 2.058731-1.668878 3.727609-3.727608 3.727609-2.058731 0-3.7276086-1.668878-3.7276086-3.727609 0-2.05873 1.6688776-3.727608 3.7276086-3.727608 2.05873 0 3.727608 1.668878 3.727608 3.727608"/><path d="m22.333414 22.076239c-3.035877-1.997149-3.324182-3.656726-2.79181-6.722388l-.0018.000879c.03632-.208499.05618-.422529.05618-.641334 0-2.058731-1.669003-3.727609-3.727608-3.727609-2.058731 0-3.727609 1.668878-3.727609 3.727609 0 1.403948.776439 2.626041 1.922999 3.26172v.000125c3.486558 2.210927 3.1931 4.545898 2.961601 7.005164-.0098.0793-.0176.159234-.02224.23992-.000251.0028-.000503.0055-.000628.0082-.0038.06975-.0062.140005-.0062.210762 0 2.05873 1.668878 3.727608 3.727609 3.727608 2.058605 0 3.727608-1.668878 3.727608-3.727608 0-1.482246-.865293-2.762276-2.118176-3.363017"/><path d="m32.173169 22.069553c-3.035877-1.997149-3.324182-3.656726-2.79181-6.722263l-.0018.000754c.0362-.2085.05618-.422529.05618-.641209 0-2.05873-1.669003-3.727734-3.727608-3.727734-2.058731 0-3.727734 1.669004-3.727734 3.727734 0 1.403823.776564 2.625916 1.923124 3.26172h-.000126c3.486684 2.210927 3.193226 4.546024 2.961727 7.00529-.0098.07918-.0176.159108-.02224.239794-.000251.0028-.000503.0055-.000628.0082-.0039.06975-.0063.140005-.0063.210762 0 2.05873 1.669003 3.727608 3.727608 3.727608 2.058731 0 3.727734-1.668878 3.727734-3.727608 0-1.482246-.865293-2.762276-2.118176-3.363017"/></g></g><g transform="translate(.515625 .771484)"><path d="m21.106624 42c11.598013 0 21.000067-9.40192 21.000067-20.999933 0-11.5980129-9.402054-21.000067-21.000067-21.000067-12.1648815 0-20.99993305 9.4020541-20.99993305 21.000067 0 11.598013 9.40191975 20.999933 20.99993305 20.999933" fill="#017ffd"/><g transform="translate(8.609758 11.079755)"><path d="m12.514659 18.317345c-.295916 0-.596977-.05204-.890395-.162144-1.311851-.491871-1.9764502-1.954106-1.484579-3.266105l4.892248-13.0457491c.492164-1.31155761 1.954841-1.97689156 3.265957-1.48457972 1.311999.49187084 1.976598 1.95410612 1.48458 3.26610462l-4.892101 13.0457492c-.381913 1.01814-1.348749 1.646724-2.37571 1.646724" fill="#9cd0f9"/><path d="m2.7303106 18.317345c-.2959163 0-.5969777-.05204-.890395-.162144-1.31185155-.491871-1.97645049-1.954106-1.48457966-3.266105l4.89224786-13.0457491c.4918708-1.31155761 1.9541061-1.97689156 3.2659577-1.48457972 1.3119985.49187084 1.9765975 1.95410612 1.4845796 3.26610462l-4.8921008 13.0457492c-.3819129 1.01814-1.3487493 1.646724-2.3757097 1.646724" fill="#9cd0f9"/><g fill="#fafafa"><path d="m12.51538 18.317345c-1.026961 0-1.993503-.628143-2.37571-1.646724l-4.8921009-13.0457492c-.4920178-1.3119985.1725811-2.77423378 1.4845797-3.26610462 1.3128806-.49040081 2.7740868.1727281 3.2659576 1.48457972l4.8922476 13.0457491c.491871 1.311999-.172728 2.774234-1.484579 3.266105-.293418.109811-.594479.162144-.890395.162144"/><path d="m22.299743 18.317345c-1.02696 0-1.993503-.628143-2.37571-1.646724l-4.8921-13.0457492c-.492018-1.3119985.172581-2.77423378 1.484579-3.26610462 1.312146-.49040081 2.773793.1727281 3.265958 1.48457972l4.892248 13.0457491c.491871 1.311999-.172728 2.774234-1.48458 3.266105-.293417.109811-.594479.162144-.890395.162144"/></g></g></g><g fill="#0d65fc" transform="translate(52.703527 12.076697)"><path d="m9.6736904 18.111555v-14.3509017l-2.8289375 14.3252967h-1.9121733l-2.9560499-14.1981843v14.2237893h-1.73339288v-17.8432929h2.77818388l2.931359 14.2489379 2.8289375-14.2489379h2.7786408v17.8432929z"/><path d="m16.082397 13.90514c0 1.631428.687688 2.574712 2.115645 2.574712 1.453105 0 2.115187-.943284 2.115187-2.574712v-9.4310111c0-1.6058232-.662082-2.5747125-2.115187-2.5747125-1.427957 0-2.115645.9688893-2.115645 2.5747125zm-1.962926-9.3285895c0-2.7274304 1.350683-4.48688594 4.078571-4.48688594 2.752579 0 4.10372 1.75945554 4.10372 4.48688594v9.2270825c0 2.701825-1.351141 4.485971-4.10372 4.485971-2.727888 0-4.078571-1.784146-4.078571-4.485971z"/><path d="m31.56588 18.111418h-6.415062v-17.84283584h1.988532v16.03262684h4.42653z"/><path d="m41.137218 4.5764133v1.5294643h-1.886111v-1.6318858c0-1.605366-.637848-2.5742554-2.090039-2.5742554-1.4275 0-2.090954.9688894-2.090954 2.5742554v9.4310112c0 1.605823.663454 2.574712 2.090954 2.574712 1.452191 0 2.090039-.968889 2.090039-2.574712v-1.555527h-1.835357v-1.784147h3.721468v3.238624c0 2.701825-1.274325 4.485514-4.027361 4.485514-2.726973 0-4.001756-1.783689-4.001756-4.485514v-9.2275397c0-2.7022823 1.274783-4.48688591 4.001756-4.48688591 2.753036 0 4.027361 1.78460361 4.027361 4.48688591"/><path d="m45.684276 8.1700372h4.358402v1.7846036h-4.358402v6.3464772h5.352439v1.810209h-7.340971v-17.84283628h7.340971v1.81020908h-5.352439z"/><path d="m53.518517 18.111418v-17.84283584h2.523502l4.129325 12.89779684v-12.89779684h1.758541v17.84283584h-2.063977l-4.562787-14.4272608v14.4272608z"/><path d="m65.312127.26839927v17.84283573h1.988533v-17.84283573z"/><path d="m78.405302 4.5509451v.4842161h-1.886111v-.5866376c0-1.605366-.612243-2.5491072-2.038828-2.5491072-1.427957 0-2.039743.9437412-2.039743 2.523959 0 4.0017554 5.990288 4.3844644 5.990288 9.4058626 0 2.701825-1.299931 4.460366-4.027361 4.460366-2.727431 0-4.001756-1.758541-4.001756-4.460366v-1.019643h1.860506v1.12115c0 1.605823.662539 2.549107 2.090039 2.549107 1.427957 0 2.090039-.943284 2.090039-2.549107 0-3.9761499-5.964682-4.3588589-5.964682-9.3797999 0-2.7530358 1.274782-4.46128054 3.951459-4.46128054 2.701825 0 3.97615 1.75945554 3.97615 4.46128054"/></g></g></svg>