<svg width="19" height="21" viewBox="0 0 19 21" fill="none" xmlns="http://www.w3.org/2000/svg">
<path d="M1 0.5C1 0.223858 0.776142 0 0.5 0C0.223858 0 0 0.223858 0 0.5V2.16667C0 2.44281 0.223858 2.66667 0.5 2.66667C0.776142 2.66667 1 2.44281 1 2.16667V0.5Z" fill="#017FFD"/>
<path d="M1 5.5C1 5.22386 0.776142 5 0.5 5C0.223858 5 0 5.22386 0 5.5V8.83333C0 9.10948 0.223858 9.33333 0.5 9.33333C0.776142 9.33333 1 9.10948 1 8.83333V5.5Z" fill="#017FFD"/>
<path d="M1 12.1667C1 11.8905 0.776142 11.6667 0.5 11.6667C0.223858 11.6667 0 11.8905 0 12.1667V13.5H1V12.1667Z" fill="#017FFD"/>
<path d="M9.5 21V20H11.75C12.0261 20 12.25 20.2239 12.25 20.5C12.25 20.7761 12.0261 21 11.75 21H9.5Z" fill="#017FFD"/>
<path d="M16.25 20C15.9739 20 15.75 20.2239 15.75 20.5C15.75 20.7761 15.9739 21 16.25 21H18.5C18.7761 21 19 20.7761 19 20.5C19 20.2239 18.7761 20 18.5 20H16.25Z" fill="#017FFD"/>
</svg>
