<svg width="24" height="24" viewBox="0 0 24 24" fill="none" xmlns="http://www.w3.org/2000/svg">
<path d="M11.75 10.5C12.1642 10.5 12.5 10.8358 12.5 11.25V16.25C12.5 16.6642 12.1642 17 11.75 17C11.3358 17 11 16.6642 11 16.25V11.25C11 10.8358 11.3358 10.5 11.75 10.5Z" fill="#017FFD"/>
<path d="M11.75 8.75C12.3023 8.75 12.75 8.30228 12.75 7.75C12.75 7.19772 12.3023 6.75 11.75 6.75C11.1977 6.75 10.75 7.19772 10.75 7.75C10.75 8.30228 11.1977 8.75 11.75 8.75Z" fill="#017FFD"/>
<path fill-rule="evenodd" clip-rule="evenodd" d="M3 11.75C3 6.91751 6.91751 3 11.75 3C16.5825 3 20.5 6.91751 20.5 11.75C20.5 16.5825 16.5825 20.5 11.75 20.5C6.91751 20.5 3 16.5825 3 11.75ZM11.75 4.5C7.74594 4.5 4.5 7.74594 4.5 11.75C4.5 15.7541 7.74594 19 11.75 19C15.7541 19 19 15.7541 19 11.75C19 7.74594 15.7541 4.5 11.75 4.5Z" fill="#017FFD"/>
</svg>
